<svg xmlns="http://www.w3.org/2000/svg" id="tokamak_symbol" width="45" height="30" viewBox="0 0 45 30">
    <defs>
        <style>
            .cls-2{fill:#2a72e5}
        </style>
    </defs>
    <path id="Base" fill="none" d="M0 0H45V30H0z"/>
    <g id="그룹_5395">
        <g id="그룹_5394">
            <path id="패스_45" d="M763.94 694.65c-.138.438-.308 1.029-.419 1.478a2.226 2.226 0 0 1 1.147-1.451 5.954 5.954 0 0 1 4.72-2.3v-.017c-3.39-.974-4.442.141-4.737.665a11.517 11.517 0 0 0-.711 1.622" class="cls-2" transform="translate(-763.25 -683.889)"/>
            <path id="패스_46" d="M792.812 659.728l-.5.477c.574-.47 1.52-.36 2.976.345a6.317 6.317 0 0 1 1.188-1.521c-.69-.5-1.39-.941-1.834-.736a15.794 15.794 0 0 0-1.831 1.434" class="cls-2" transform="translate(-788.609 -654.172)"/>
            <path id="패스_47" d="M842.239 634.591c-.518.19-1.208.443-1.72.653a6.225 6.225 0 0 1 .719.922 17.035 17.035 0 0 1 2.405-1.069c-.138-.579-.173-.867 0-.941-.423.129-.99.288-1.409.435" class="cls-2" transform="translate(-831.067 -632.956)"/>
            <path id="패스_48" d="M900.207 624.135c-.787.064-1.837.162-2.622.254-.41.1-.592.248-.794.866a29.7 29.7 0 0 1 3.239-.432 1.767 1.767 0 0 1 1.408-.742l-1.23.055" class="cls-2" transform="translate(-880.629 -624.08)"/>
            <path id="패스_49" d="M965.088 625.909c-.737-.112-1.72-.253-2.459-.339a3.155 3.155 0 0 0-2.108.5 32.04 32.04 0 0 1 3.371.354 4.225 4.225 0 0 1 2.644-.231c-.434-.085-1.011-.212-1.447-.283" class="cls-2" transform="translate(-936.76 -625.382)"/>
            <path id="패스_50" d="M1026.037 640.226c-.546-.253-1.276-.585-1.83-.815a5.658 5.658 0 0 0-3.449-.281 20.927 20.927 0 0 1 2.635 1.012 6.429 6.429 0 0 1 4.307 1.006c-.495-.286-1.154-.672-1.664-.922" class="cls-2" transform="translate(-989.815 -637.205)"/>
            <path id="패스_51" d="M1072.906 668.737a12.507 12.507 0 0 0-1.512-2.974l-.391-.537a7.484 7.484 0 0 0-5.925-3.186 8.485 8.485 0 0 1 1.51 1.477c3.983.563 6.724 4.061 6.984 8.912a12.387 12.387 0 0 0-.666-3.693" class="cls-2" transform="translate(-1028.851 -657.519)"/>
            <path id="패스_52" d="M1079.032 709.644a17.207 17.207 0 0 0 2.159-1.65c.254-.247.595-.573.84-.832 4.967-5.752 2.71-14.05-2.624-15.555a4.085 4.085 0 0 1 .092.8v.143a4.016 4.016 0 0 1-.093.784c5.706 2.573 5.146 12.84-.909 16.646l.535-.331" class="cls-2" transform="translate(-1040.67 -683.563)"/>
            <path id="패스_53" d="M1011.037 740.278c.743-.192 1.73-.467 2.466-.692 7.3-2.742 8.47-13.941 4.369-16.635a8.134 8.134 0 0 1-1.509 1.432c3.468 3.821-.086 14.617-6.6 16.166l1.27-.27" class="cls-2" transform="translate(-980.135 -711.172)"/>
            <path id="패스_54" d="M936.039 762.906c.689-.006 1.607-.017 2.3-.043 6.067-.626 10.385-11.757 8.883-15.24a20.309 20.309 0 0 1-2.636.936c-.014 4.452-6.013 14.4-10.315 14.288.531.019 1.24.058 1.772.059" class="cls-2" transform="translate(-913.637 -732.906)"/>
            <path id="패스_55" d="M866.528 774.393c.678.163 1.583.373 2.264.512 2.531.185 8.905-8.4 11.26-12.938a31.8 31.8 0 0 1-3.38.255c-1.838 1.782-6.686 7.387-7.639 8.492-2.454 2.846-3.366 3.387-3.7 3.338l1.192.34" class="cls-2" transform="translate(-852.925 -745.541)"/>
            <path id="패스_56" d="M810.181 767.822a20.317 20.317 0 0 0 2.294 1.328l.065.032c.137-.725 6.169-7.924 10.827-10.5a30.061 30.061 0 0 1-3.233-.526c-5.565 2.132-11.244 8.65-10.267 9.451l.313.215" class="cls-2" transform="translate(-803.974 -742.184)"/>
            <path id="패스_57" d="M772.357 747.591c.264.354.619.824.9 1.161-1.254-1.908 4.03-6.849 9.5-8a17.646 17.646 0 0 1-2.406-1.139c-5.031.546-9.82 4.109-8.835 6.572.241.431.564 1.007.842 1.407" class="cls-2" transform="translate(-770.176 -725.849)"/>
            <path id="패스_58" d="M761.251 715.591v.241c.022.417.057.974.1 1.389-.135-2.71 3.984-4.461 7.765-4.337a6.584 6.584 0 0 1-1.189-1.558c-3.2-.41-4.945.413-5.849 1.176a6.6 6.6 0 0 0-.829 3.09" class="cls-2" transform="translate(-761.249 -700.836)"/>
        </g>
    </g>
</svg>
