<svg xmlns="http://www.w3.org/2000/svg" width="320" height="140" viewBox="0 0 320 140">
    <defs>
        <style>
            .cls-2{fill:#375bd2}
        </style>
    </defs>
    <g id="chainlink" transform="translate(-360 -3189)">
        <path id="Base" fill="none" d="M0 0H320V140H0z" transform="translate(360 3189)"/>
        <g id="Layer_2" transform="translate(398 3222)">
            <g id="Layer_1-2">
                <path id="패스_8539" d="M63.395 31.349A13.221 13.221 0 0 1 76.069 17.6h.652c6.742 0 10.722 3.966 11.9 8.607l-4.191 1.4a7.379 7.379 0 0 0-7.708-5.791c-4.363 0-8.739 3.186-8.739 9.611s4.27 9.492 8.792 9.492a7.933 7.933 0 0 0 7.866-5.83l4.112 1.322a11.9 11.9 0 0 1-12.031 8.765 13.1 13.1 0 0 1-13.34-12.85c-.014-.316-.001-.646.013-.977z" class="cls-2" transform="translate(20.41 5.668)"/>
                <path id="패스_8540" d="M89.8 44.589h-4.34V17.54h4.34v10.576a6.415 6.415 0 0 1 5.156-2.274c4.482 0 6.61 3.213 6.61 7.218v11.529h-4.181V33.828a3.53 3.53 0 0 0-2.961-3.966 3.845 3.845 0 0 0-.78 0 3.78 3.78 0 0 0-3.781 3.781 2.758 2.758 0 0 0 0 .331z" class="cls-2" transform="translate(27.523 5.649)"/>
                <path id="패스_8541" d="M106.327 32.146l4.654-.727c1.058-.132 1.322-.674 1.322-1.322 0-1.534-1.031-2.763-3.437-2.763a3.464 3.464 0 0 0-3.728 3.133v.2l-3.966-.886c.331-3.146 3.186-5.949 7.655-5.949 5.605 0 7.734 3.173 7.734 6.875v9.03a18.021 18.021 0 0 0 .225 2.922h-3.966a10.559 10.559 0 0 1-.172-2.327 6.321 6.321 0 0 1-5.605 2.869 5.711 5.711 0 0 1-6.161-5.209v-.264c-.068-3.348 2.325-5.146 5.445-5.582zm6 2.922v-.833l-4.746.714a2.5 2.5 0 0 0-2.419 2.472 2.407 2.407 0 0 0 2.444 2.368h.239a4.126 4.126 0 0 0 4.532-3.673v-.029a4.306 4.306 0 0 0-.066-1.018z" class="cls-2" transform="translate(32.488 7.674)"/>
                <path id="패스_8542" d="M119 17.266a2.829 2.829 0 0 1 2.869 2.79v.013A2.829 2.829 0 1 1 119 17.24zm-2.115 27.5V26.494h4.336v18.192z" class="cls-2" transform="translate(37.426 5.552)"/>
                <path id="패스_8543" d="M128.523 42.561H124.2V24.37h4.217v2.419a6.018 6.018 0 0 1 5.381-2.948c4.442 0 6.61 3.213 6.61 7.218v11.5h-4.323V31.8c0-2.234-1.018-4.045-3.741-4.045a3.833 3.833 0 0 0-3.808 3.86v.436z" class="cls-2" transform="translate(39.999 7.677)"/>
                <path id="패스_8544" d="M140.42 44.589V17.54h4.336v27.049z" class="cls-2" transform="translate(45.223 5.649)"/>
                <path id="패스_8545" d="M150.233 17.26a2.816 2.816 0 1 1-2.8 2.829v-.026a2.83 2.83 0 0 1 2.8-2.803zm-2.129 27.5V26.488h4.3v18.191z" class="cls-2" transform="translate(47.48 5.559)"/>
                <path id="패스_8546" d="M159.766 42.561h-4.336V24.37h4.217v2.419a6.029 6.029 0 0 1 5.381-2.948c4.442 0 6.61 3.213 6.61 7.218v11.5H167.3V31.8a3.53 3.53 0 0 0-2.961-3.966 3.976 3.976 0 0 0-.793 0 3.834 3.834 0 0 0-3.794 3.834 2.705 2.705 0 0 0 0 .463z" class="cls-2" transform="translate(50.057 7.677)"/>
                <path id="패스_8547" d="M181.189 34.079l7.628 10.576h-5.288l-5.288-7.5-2.234 2.353v5.077h-4.3V17.54h4.3v16.208l6.98-7.351h5.751z" class="cls-2" transform="translate(55.3 5.649)"/>
                <path id="패스_8548" d="M32.47 15.865l18.746 10.761v21.629L32.522 59.082 13.789 48.347V26.732L32.47 15.865M32.47 0l-6.875 3.966-18.72 10.867L0 18.8v37.506l6.875 3.966 18.746 10.762L32.5 75l6.875-3.966 18.676-10.841 6.875-3.966v-37.56L58.051 14.7 39.318 3.966 32.443 0z" class="cls-2"/>
            </g>
        </g>
    </g>
</svg>
