<svg xmlns="http://www.w3.org/2000/svg" width="320" height="140" viewBox="0 0 320 140">
    <defs>
        <style>
            .cls-2{fill:#1a1a1a}.cls-3{fill:#9c9c98}.cls-5{fill:#4d4d4d}.cls-6{fill:gray}
        </style>
    </defs>
    <g id="dcent" transform="translate(-360 -3189)">
        <path id="Base" fill="none" d="M0 0H320V140H0z" transform="translate(360 3189)"/>
        <g id="dcent-2" transform="translate(267.224 3072.845)">
            <g id="그룹_6306" transform="translate(128.776 151.155)">
                <g id="그룹_6305">
                    <g id="그룹_6302" transform="translate(74.796 20.991)">
                        <g id="그룹_6301">
                            <path id="패스_8478" d="M236.142 186.23a12.488 12.488 0 0 0-4.45-9.928 17.152 17.152 0 0 0-11.492-3.822h-15.44v6.894h15.44a8.59 8.59 0 0 1 5.817 2.015 6.6 6.6 0 0 1 2.34 5.2 6.4 6.4 0 0 1-2.325 5.123 8.775 8.775 0 0 1-5.832 1.931h-7.584V183.2h-7.856v17.3h15.44a16.521 16.521 0 0 0 11.43-4.076 13.185 13.185 0 0 0 4.512-10.194z" class="cls-2" transform="translate(-204.762 -172.48)"/>
                            <path id="패스_8479" d="M246.3 186.23a13.182 13.182 0 0 0 4.511 10.19 16.515 16.515 0 0 0 11.431 4.076h13.551v-6.855h-13.549a8.677 8.677 0 0 1-5.8-1.953 6.417 6.417 0 0 1-2.322-5.1 6.633 6.633 0 0 1 2.319-5.2 8.521 8.521 0 0 1 5.8-2.015h13.551v-6.893h-13.548a17.167 17.167 0 0 0-11.5 3.822 12.494 12.494 0 0 0-4.444 9.928z" class="cls-2" transform="translate(-205.412 -172.48)"/>
                            <path id="패스_8480" d="M346.572 172.48h-7.855v16.481l-17-15.285a4.071 4.071 0 0 0-3.128-1.156 3.285 3.285 0 0 0-2.531.954 3.42 3.42 0 0 0-.879 2.434V200.5h7.854v-16.444l17 15.285a4.563 4.563 0 0 0 3.471 1.353c2.068 0 3.072-1.186 3.072-3.624z" class="cls-2" transform="translate(-206.491 -172.48)"/>
                            <path id="패스_8481" d="M380.968 172.48h-30.939v6.894h11.541V200.5h7.855v-21.125h11.543z" class="cls-2" transform="translate(-207.036 -172.48)"/>
                        </g>
                    </g>
                    <path id="패스_8482" d="M301.747 179.375l6.474-6.894h-28.07V200.5h26.7v-6.854h-18.844v-3.9h18.847v-6.573h-18.847v-3.791z" class="cls-2" transform="translate(-131.146 -151.489)"/>
                    <path id="패스_8483" d="M243.081 178.636h-3.638l-2.744-7.4h9.125z" class="cls-2" transform="translate(-130.466 -151.469)"/>
                    <g id="그룹_6304">
                        <path id="패스_8484" d="M160.813 164.373l5.223-3.014v-7.189l-5.223-3.014v13.217z" class="cls-3" transform="translate(-129.278 -151.155)"/>
                        <path id="패스_8485" fill="#76c8ac" d="M141.108 195.694v-20.233L158.54 165.4v-14.24l-28.878 16.671a1.776 1.776 0 0 0-.886 1.537v33.342c0 .032.006.069.008.1z" transform="translate(-128.776 -151.155)"/>
                        <path id="패스_8486" d="M176.89 197.846l-17.447 10.075-17.343-10.014-12.332 7.12 28.789 16.623a1.8 1.8 0 0 0 .886.236 1.78 1.78 0 0 0 .884-.236l28.879-16.675.016-.009z" class="cls-5" transform="translate(-128.792 -151.886)"/>
                        <g id="그룹_6303" transform="translate(36.666 10.065)">
                            <path id="패스_8487" d="M189.773 167.988l-11.446-6.608v7.191l-12.3 7.1 12.3 7.1v12.958l12.331 7.12v-33.325a1.778 1.778 0 0 0-.885-1.536z" class="cls-3" transform="translate(-166.025 -161.38)"/>
                        </g>
                        <path id="패스_8488" d="M153.709 182.9V197l11.977-6.914v-14.1z" class="cls-5" transform="translate(-129.166 -151.543)"/>
                    </g>
                </g>
            </g>
            <g id="그룹_6308" transform="translate(203.572 208.239)">
                <g id="그룹_6307">
                    <path id="패스_8489" d="M207.268 209.3c1.842 0 2.6.662 2.6 2.277v3.111c0 1.574-.792 2.237-2.6 2.237h-2.506V209.3zm0 6.387c.99 0 1.236-.347 1.236-1.07v-2.972c0-.722-.158-1.1-1.217-1.1h-1.169v5.14z" class="cls-6" transform="translate(-204.762 -209.149)"/>
                    <path id="패스_8490" d="M215.512 215.159c0 1.228-.733 1.814-2.269 1.814a1.979 1.979 0 0 1-2.268-2.278v-1.328a2.021 2.021 0 0 1 2.268-2.278 1.979 1.979 0 0 1 2.269 2.278v1.159h-3.17v.15c0 .939.366 1.117.92 1.117.645 0 .912-.227.912-.634zm-3.17-1.752h1.852c0-.732-.139-1.14-.911-1.14-.802 0-.941.433-.941 1.14z" class="cls-6" transform="translate(-204.859 -209.177)"/>
                    <path id="패스_8491" d="M216.826 209.289h1.357v5.477c0 .643.117.851.682.851v1.307c-1.575 0-2.04-.466-2.04-2.139z" class="cls-6" transform="translate(-204.951 -209.149)"/>
                    <path id="패스_8492" d="M221.371 209.9a.767.767 0 0 1-1.534 0 .767.767 0 0 1 1.534 0zm-.1 7.03h-1.356v-5.724h1.356z" class="cls-6" transform="translate(-204.998 -209.146)"/>
                    <path id="패스_8493" d="M226.836 211.11l-1.793 5.853h-1.2l-1.793-5.853h1.416l.525 1.753a23.441 23.441 0 0 1 .455 2.457c.109-.754.259-1.656.456-2.457l.516-1.753z" class="cls-6" transform="translate(-205.033 -209.177)"/>
                    <path id="패스_8494" d="M232 215.159c0 1.228-.733 1.814-2.269 1.814a1.979 1.979 0 0 1-2.268-2.278v-1.328a2.021 2.021 0 0 1 2.268-2.278 1.979 1.979 0 0 1 2.269 2.279v1.159h-3.17v.15c0 .939.366 1.117.92 1.117.645 0 .911-.227.911-.634zm-3.17-1.752h1.852c0-.732-.139-1.14-.912-1.14-.796 0-.935.433-.935 1.14z" class="cls-6" transform="translate(-205.117 -209.177)"/>
                    <path id="패스_8495" d="M236.149 212.515c-.882-.118-1.576.229-1.576 1.1v3.348h-1.356v-5.853h1.248l.059.615a1.635 1.635 0 0 1 1.625-.645z" class="cls-6" transform="translate(-205.207 -209.176)"/>
                    <path id="패스_8496" d="M238.66 209.9a.768.768 0 0 1-1.535 0 .768.768 0 0 1 1.535 0zm-.1 7.03h-1.36v-5.724h1.356z" class="cls-6" transform="translate(-205.269 -209.146)"/>
                    <path id="패스_8497" d="M240.105 211.109h1.178l.07.594a1.792 1.792 0 0 1 1.377-.634c.96-.009 1.9.5 1.9 2.279v3.6h-1.348v-3.6c0-.751-.317-1.058-.881-1.058-.525 0-.94.257-.94 1.01v3.644h-1.357z" class="cls-6" transform="translate(-205.315 -209.176)"/>
                    <path id="패스_8498" d="M245.906 214.794v-1.456c0-1.624.753-2.258 1.9-2.258a1.4 1.4 0 0 1 1.328.673l.1-.644h1.118v5.991a1.979 1.979 0 0 1-2.208 2.238c-1.426 0-2.108-.614-2.108-1.853h1.3c0 .456.269.694.813.694.713 0 .94-.366.94-1.091v-.7a1.34 1.34 0 0 1-1.236.595c-1.223-.001-1.947-.683-1.947-2.189zm3.109-.2v-1.139c0-.672-.217-1.167-.89-1.167-.535 0-.861.278-.861 1.118v1.218c0 .823.277 1.16.842 1.16.694 0 .909-.446.909-1.184z" class="cls-6" transform="translate(-205.406 -209.177)"/>
                    <path id="패스_8499" d="M257.752 210.548h-1.575v6.378h-1.356v-6.378h-1.584v-1.219h4.515z" class="cls-6" transform="translate(-205.521 -209.149)"/>
                    <path id="패스_8500" d="M260.375 212.515c-.881-.118-1.575.229-1.575 1.1v3.348h-1.356v-5.853h1.247l.06.615a1.632 1.632 0 0 1 1.624-.645z" class="cls-6" transform="translate(-205.587 -209.176)"/>
                    <path id="패스_8501" d="M265.938 216.943h-1.209l-.069-.594a1.786 1.786 0 0 1-1.377.633c-.962.01-1.9-.5-1.9-2.278v-3.6h1.347v3.6c0 .752.317 1.058.882 1.058.524 0 .941-.257.941-1.01V211.1h1.387z" class="cls-6" transform="translate(-205.648 -209.177)"/>
                    <path id="패스_8502" d="M270.181 212.941c0-.445-.347-.643-.784-.643-.524 0-.841.208-.841.613 0 .645.673.554 1.455.645a1.584 1.584 0 0 1 1.564 1.594c0 1.277-1 1.832-2.256 1.832-1.387 0-2.219-.7-2.219-1.832h1.376c.03.407.247.643.9.643.543 0 .822-.306.822-.594 0-.5-.644-.5-1.348-.594-.851-.109-1.673-.475-1.673-1.625 0-1.316.941-1.9 2.209-1.9 1.436 0 2.119.812 2.119 1.861z" class="cls-6" transform="translate(-205.738 -209.177)"/>
                    <path id="패스_8503" d="M272.609 210.082l1.357-.149v1.139h.991v1.237h-.991v2.467c0 .643.1 1.08 1.011.971v1.188c-1.725.188-2.368-.406-2.368-2.139z" class="cls-6" transform="translate(-205.824 -209.159)"/>
                    <path id="패스_8504" d="M280.4 215.159c0 1.228-.733 1.814-2.269 1.814a1.979 1.979 0 0 1-2.268-2.278v-1.328a2.021 2.021 0 0 1 2.268-2.278 1.979 1.979 0 0 1 2.269 2.278v1.159h-3.169v.15c0 .939.366 1.117.92 1.117.645 0 .911-.227.911-.634zm-3.169-1.752h1.851c0-.732-.138-1.14-.911-1.14-.804 0-.942.433-.942 1.14z" class="cls-6" transform="translate(-205.875 -209.177)"/>
                    <path id="패스_8505" d="M284.948 216.925l-.1-.644a1.475 1.475 0 0 1-1.375.673c-1.15 0-1.921-.633-1.921-2.258v-1.505c0-1.376.662-2.179 1.96-2.179a1.334 1.334 0 0 1 1.2.516V209.3h1.356v7.625zm-2.04-3.675v1.377c0 .842.346 1.12.881 1.12.673 0 .92-.5.92-1.169v-1.337c0-.7-.337-.971-.882-.971-.583.001-.919.277-.919.98z" class="cls-6" transform="translate(-205.964 -209.149)"/>
                    <path id="패스_8506" d="M295.188 214.567c0 1.675-.792 2.378-2.606 2.378s-2.545-.7-2.545-2.278v-3.1c0-1.615.7-2.279 2.545-2.279s2.606.673 2.606 2.367h-1.366c0-.743-.179-1.159-1.239-1.159-.989 0-1.177.415-1.177 1.139v2.96c0 .724.188 1.14 1.177 1.14s1.239-.415 1.239-1.169z" class="cls-6" transform="translate(-206.097 -209.149)"/>
                    <path id="패스_8507" d="M296.1 214.774v-1.407a2.268 2.268 0 1 1 4.536 0v1.407a2.268 2.268 0 1 1-4.536 0zm3.169-.07v-1.268c0-.723-.187-1.138-.9-1.138s-.9.415-.9 1.138v1.264c0 .723.19 1.14.9 1.14s.9-.412.9-1.14z" class="cls-6" transform="translate(-206.192 -209.177)"/>
                    <path id="패스_8508" d="M302.012 211.109h1.178l.069.594a1.792 1.792 0 0 1 1.375-.634c.962-.009 1.9.5 1.9 2.279v3.6h-1.344v-3.6c0-.751-.317-1.058-.881-1.058-.525 0-.942.257-.942 1.01v3.644h-1.355z" class="cls-6" transform="translate(-206.284 -209.176)"/>
                    <path id="패스_8509" d="M308.1 211.109h1.177l.07.594a1.791 1.791 0 0 1 1.376-.634c.961-.009 1.9.5 1.9 2.279v3.6h-1.348v-3.6c0-.751-.317-1.058-.881-1.058-.525 0-.94.257-.94 1.01v3.644H308.1z" class="cls-6" transform="translate(-206.38 -209.176)"/>
                    <path id="패스_8510" d="M318.47 215.159c0 1.228-.733 1.814-2.269 1.814a1.979 1.979 0 0 1-2.268-2.278v-1.328a2.022 2.022 0 0 1 2.268-2.278 1.979 1.979 0 0 1 2.269 2.278v1.159h-3.17v.15c0 .939.366 1.117.92 1.117.645 0 .913-.227.913-.634zm-3.169-1.752h1.851c0-.732-.138-1.14-.91-1.14-.802 0-.942.433-.942 1.14z" class="cls-6" transform="translate(-206.471 -209.177)"/>
                    <path id="패스_8511" d="M322.83 213.287c0-.662-.237-.988-.91-.988-.752 0-.971.415-.971 1.138v1.263c0 .723.189 1.14.9 1.14s.971-.308.979-1h1.289c0 1.575-.733 2.209-2.268 2.209s-2.268-.7-2.268-2.308v-1.307a2.055 2.055 0 0 1 2.308-2.347c1.535 0 2.228.624 2.228 2.2z" class="cls-6" transform="translate(-206.559 -209.177)"/>
                    <path id="패스_8512" d="M325.292 210.082l1.356-.149v1.139h.991v1.237h-.991v2.467c0 .643.1 1.08 1.011.971v1.188c-1.725.188-2.367-.406-2.367-2.139z" class="cls-6" transform="translate(-206.649 -209.159)"/>
                    <path id="패스_8513" d="M330.179 209.9a.767.767 0 0 1-1.533 0 .767.767 0 0 1 1.533 0zm-.1 7.03h-1.356v-5.724h1.356z" class="cls-6" transform="translate(-206.701 -209.146)"/>
                    <path id="패스_8514" d="M335.643 211.11l-1.792 5.853h-1.2l-1.793-5.853h1.416l.525 1.753a22.946 22.946 0 0 1 .455 2.457c.11-.754.258-1.656.456-2.457l.516-1.753z" class="cls-6" transform="translate(-206.736 -209.177)"/>
                    <path id="패스_8515" d="M337.913 209.9a.767.767 0 0 1-1.534 0 .767.767 0 0 1 1.534 0zm-.1 7.03h-1.356v-5.724h1.356z" class="cls-6" transform="translate(-206.822 -209.146)"/>
                    <path id="패스_8516" d="M339.209 210.082l1.355-.149v1.139h.99v1.237h-.99v2.467c0 .643.1 1.08 1.011.971v1.188c-1.725.188-2.366-.406-2.366-2.139z" class="cls-6" transform="translate(-206.867 -209.159)"/>
                    <path id="패스_8517" d="M346.861 211.11l-1.734 5.773h.011l-.317 1.13c-.376 1.318-1.158 1.456-2.278 1.01l.208-1c.348.079.714.227.852-.287l.228-.821-1.753-5.8h1.415l.525 1.753a22.945 22.945 0 0 1 .455 2.457c.11-.754.259-1.656.458-2.457l.514-1.753z" class="cls-6" transform="translate(-206.912 -209.177)"/>
                </g>
            </g>
        </g>
    </g>
</svg>
