<svg xmlns="http://www.w3.org/2000/svg" width="320" height="140" viewBox="0 0 320 140">
    <defs>
        <style>
            .cls-2{fill:#163782}
        </style>
    </defs>
    <g id="despread" transform="translate(-360 -3189)">
        <path id="Base" fill="none" d="M0 0H320V140H0z" transform="translate(360 3189)"/>
        <g id="despread-2" transform="translate(377.336 3166.004)">
            <g id="그룹_6336" transform="translate(12.664 58.996)">
                <path id="패스_8554" d="M108.846 110.231c-3.825 0-7.206 2.938-7.816 8.315h14.634c0-5.266-2.384-8.315-6.818-8.315z" class="cls-2" transform="translate(-52.628 -82.167)"/>
                <path id="패스_8555" d="M46.355 93.231h-3.714v30.319h3.714c8.758 0 13.47-5.154 13.47-15.3-.001-10.197-4.712-15.019-13.47-15.019z" class="cls-2" transform="translate(-26.221 -74.479)"/>
                <path id="패스_8556" d="M81.915 59H20.623a7.982 7.982 0 0 0-7.959 7.959v51.692a7.982 7.982 0 0 0 7.959 7.959h61.292a7.982 7.982 0 0 0 7.959-7.959V66.955A7.983 7.983 0 0 0 81.915 59zm-48.341 54.334h-10.92v-40.8h10.587c12.527 0 19.677 6.929 19.677 20.232 0 13.251-7.15 20.568-19.344 20.568zM80.91 99.753H61.122c.5 5.82 4.157 9.312 9.423 9.312a12.937 12.937 0 0 0 7.261-2.273l2.217 4.047a18.5 18.5 0 0 1-10.31 3.214c-8.259 0-14.855-5.875-14.855-15.908 0-9.922 6.762-16.075 13.913-16.075 8.093 0 12.416 5.82 12.416 14.467a16.489 16.489 0 0 1-.277 3.216z" class="cls-2" transform="translate(-12.664 -58.996)"/>
            </g>
            <g id="그룹_6337" transform="translate(94.099 58.996)">
                <path id="패스_8557" d="M381.845 136.986c0 2.992 2.051 4.213 4.768 4.213 2.66 0 4.822-1.275 7.316-3.548v-7.482c-9.035 1.107-12.084 3.38-12.084 6.817z" class="cls-2" transform="translate(-261.062 -91.184)"/>
                <path id="패스_8558" d="M331.943 59h-.879v54.338h-5.211l-.553-3.438h-.166a12.777 12.777 0 0 1-8.869 4.157c-7.649 0-12.582-5.819-12.582-15.908 0-9.922 6.263-16.075 13.081-16.075 3.492 0 5.709 1.33 8.2 3.437l-.278-5.044V59H169.3a7.982 7.982 0 0 0-7.959 7.959v51.692a7.982 7.982 0 0 0 7.959 7.959h32.453V82.848h5.21l.5 3.325h.166c2.661-2.217 5.987-4.1 9.368-4.1 7.76 0 12.084 6.152 12.084 15.52 0 10.476-6.263 16.463-13.137 16.463-2.716 0-5.432-1.22-8.037-3.437l.166 5.211v10.779h123.87a7.982 7.982 0 0 0 7.959-7.959V66.955A7.983 7.983 0 0 0 331.943 59zm-147.876 55.054a20.35 20.35 0 0 1-14.522-5.987l3.77-4.434a15.814 15.814 0 0 0 10.864 4.823c4.933 0 7.7-2.328 7.7-5.764 0-3.714-2.772-4.879-6.541-6.541l-5.654-2.439c-3.936-1.664-8.315-4.768-8.315-10.7 0-6.43 5.654-11.252 13.414-11.252a17.476 17.476 0 0 1 12.361 5.154l-3.382 4.1a12.994 12.994 0 0 0-8.979-3.658c-4.157 0-6.873 1.995-6.873 5.265 0 3.492 3.27 4.822 6.6 6.153l5.6 2.383c4.822 2.051 8.314 5.044 8.314 11.031-.001 6.546-5.433 11.866-14.357 11.866zm55.1-19.733v19.012h-6.319V82.848h5.21l.5 5.488h.166c2.163-3.936 5.377-6.264 8.647-6.264a7.586 7.586 0 0 1 3.437.665l-1.163 5.543a9.024 9.024 0 0 0-3.049-.5c-2.496.001-5.496 1.72-7.433 6.541zm35.807 5.432h-19.793c.5 5.82 4.157 9.312 9.423 9.312a12.937 12.937 0 0 0 7.261-2.273l2.217 4.047a18.5 18.5 0 0 1-10.31 3.214c-8.259 0-14.855-5.875-14.855-15.908 0-9.922 6.762-16.075 13.913-16.075 8.092 0 12.416 5.82 12.416 14.467a16.445 16.445 0 0 1-.276 3.216zm25.608 13.58h-5.21l-.554-3.492h-.166c-2.772 2.384-6.042 4.213-9.7 4.213-5.265 0-8.98-3.437-8.98-8.813 0-6.541 5.543-9.922 18.237-11.308-.055-3.548-1.33-6.651-5.82-6.651-3.215 0-6.208 1.441-8.814 3.1l-2.383-4.323a23.349 23.349 0 0 1 12.306-3.991c7.593 0 11.085 4.822 11.085 12.915z" class="cls-2" transform="translate(-161.337 -58.996)"/>
                <path id="패스_8559" d="M340.379 110.231c-3.825 0-7.206 2.938-7.816 8.315H347.2c0-5.266-2.387-8.315-6.821-8.315z" class="cls-2" transform="translate(-238.775 -82.167)"/>
                <path id="패스_8560" d="M433.253 121.482c0 6.928 2.716 10.753 7.483 10.753 2.55 0 4.712-1.164 6.928-3.713v-14.911a9.557 9.557 0 0 0-6.707-2.772c-4.267 0-7.704 4.046-7.704 10.643z" class="cls-2" transform="translate(-284.312 -82.442)"/>
                <path id="패스_8561" d="M261.062 121.149c0-6.375-2.051-10.31-7.151-10.31-2.383 0-4.656 1.219-7.262 3.714v14.911a10.337 10.337 0 0 0 6.652 2.771c4.436 0 7.761-3.935 7.761-11.086z" class="cls-2" transform="translate(-199.92 -82.442)"/>
            </g>
        </g>
    </g>
</svg>
