<svg xmlns="http://www.w3.org/2000/svg" width="320" height="140" viewBox="0 0 320 140">
    <defs>
        <clipPath id="clip-path">
            <path id="패스_8524" d="M640.475 238.619h5.732l13.684 31.457h-7.82l-2.711-6.665h-12.217l-2.622 6.665h-7.642zm2.666 9.153l-3.821 9.775h7.687z" class="cls-1" transform="translate(-626.879 -238.619)"/>
        </clipPath>
        <clipPath id="clip-path-2">
            <path id="패스_8528" d="M618.262 238.677c-.14 0-.276.016-.415.022-.227-.011-.454-.02-.677-.02h-6.7l-.886 5.939h8.377c.047 0 .093-.007.141-.007a3.753 3.753 0 0 1 0 7.507l-8.62.009.008.021h-1.028l-.849 5.691h10.109c.18.01.357.027.54.027a9.594 9.594 0 0 0 0-19.188z" class="cls-1" transform="translate(-607.613 -238.677)"/>
        </clipPath>
        <style>
            .cls-1{fill:none}.cls-2{fill:#1f4b9e}.cls-3{fill:#f29600}.cls-4{fill:#e95513}
        </style>
    </defs>
    <g id="panony" transform="translate(-360 -3189)">
        <path id="Base" d="M0 0H320V140H0z" class="cls-1" transform="translate(360 3189)"/>
        <g id="panony-2" transform="translate(-139.544 3006.894)">
            <g id="그룹_6316" transform="translate(529.545 223.106)">
                <g id="그룹_6310" transform="translate(4.843)">
                    <g id="그룹_6309">
                        <path id="패스_8518" d="M571.28 268l-11.165-4.857.013-21.661a7.07 7.07 0 1 0-14.141 0l-.018 15.508-10.76-4.681s-.051-10.783-.051-11.127a18.074 18.074 0 1 1 36.148 0z" class="cls-2" transform="translate(-535.158 -223.106)"/>
                    </g>
                </g>
                <g id="그룹_6315" transform="translate(0 33.389)">
                    <g id="그룹_6311" transform="translate(4.026)">
                        <path id="패스_8519" d="M566.058 279.254a3.7 3.7 0 0 1-.991-.315L535.3 264.365c-1.1-.539-1.421-1.466-.714-2.07a3.3 3.3 0 0 1 3.277-.115l29.766 14.574c1.1.539 1.421 1.466.714 2.069a2.906 2.906 0 0 1-2.285.431z" class="cls-3" transform="translate(-534.211 -261.808)"/>
                    </g>
                    <g id="그룹_6312" transform="translate(.24 5.471)">
                        <path id="패스_8520" d="M554.132 281.905a3.725 3.725 0 0 1-.991-.316l-22.227-10.882c-1.1-.539-1.422-1.466-.714-2.07a3.3 3.3 0 0 1 3.276-.115l22.224 10.883c1.1.539 1.422 1.466.714 2.07a2.911 2.911 0 0 1-2.282.43z" class="cls-2" transform="translate(-529.823 -268.15)"/>
                    </g>
                    <g id="그룹_6313" transform="translate(4.009 14.648)">
                        <path id="패스_8521" d="M550.583 288.666a3.736 3.736 0 0 1-.991-.316l-14.31-7.006c-1.1-.539-1.421-1.466-.714-2.07a3.3 3.3 0 0 1 3.277-.115l14.309 7.006c1.1.539 1.422 1.466.714 2.07a2.911 2.911 0 0 1-2.285.431z" class="cls-4" transform="translate(-534.192 -278.787)"/>
                    </g>
                    <g id="그룹_6314" transform="translate(0 20.028)">
                        <path id="패스_8522" d="M536.467 290.265a3.708 3.708 0 0 1-.99-.316l-4.841-2.37c-1.1-.539-1.423-1.466-.716-2.069a3.3 3.3 0 0 1 3.275-.116l4.841 2.37c1.1.539 1.423 1.466.716 2.069a2.907 2.907 0 0 1-2.285.432z" class="cls-2" transform="translate(-529.545 -285.023)"/>
                    </g>
                </g>
            </g>
            <g id="그룹_6326" transform="translate(588.88 235.25)">
                <path id="패스_8523" d="M640.475 238.619h5.732l13.684 31.457h-7.82l-2.711-6.665h-12.217l-2.622 6.665h-7.642zm2.666 9.153l-3.821 9.775h7.687z" class="cls-2" transform="translate(-602.242 -237.379)"/>
                <g id="그룹_6319" transform="translate(24.637 1.24)">
                    <g id="그룹_6318" clip-path="url(#clip-path)">
                        <g id="그룹_6317" transform="translate(-9.426 -6.285)">
                            <path id="사각형_78" d="M0 0H77.02V6.129H0z" class="cls-2" transform="rotate(-45 65.74 27.23)"/>
                            <path id="사각형_79" d="M0 0H77.02V6.129H0z" class="cls-4" transform="rotate(-45 72.989 24.228)"/>
                            <path id="사각형_80" d="M0 0H77.02V6.129H0z" class="cls-3" transform="rotate(-45 80.235 21.226)"/>
                        </g>
                    </g>
                </g>
                <path id="패스_8525" d="M668.366 238.52h9.444l13.41 21.918h.09V238.52h6.95v31.542h-9.089L675.4 247.608h-.089v22.454h-6.95z" class="cls-2" transform="translate(-607.937 -237.366)"/>
                <path id="패스_8526" d="M605.117 252.148v-13.469h-6.8v31.483h6.8v-18.014z" class="cls-2" transform="translate(-598.322 -237.387)"/>
                <path id="패스_8527" d="M618.262 238.677c-.14 0-.276.016-.415.022-.227-.011-.454-.02-.677-.02h-6.7l-.886 5.939h8.377c.047 0 .093-.007.141-.007a3.753 3.753 0 0 1 0 7.507l-8.62.009.008.021h-1.028l-.849 5.691h10.109c.18.01.357.027.54.027a9.594 9.594 0 0 0 0-19.188z" class="cls-2" transform="translate(-599.597 -237.387)"/>
                <g id="그룹_6322" transform="translate(8.016 1.29)">
                    <g id="그룹_6321" clip-path="url(#clip-path-2)">
                        <g id="그룹_6320" transform="translate(-16.424 -21.101)">
                            <path id="사각형_81" d="M0 0H69.264V5.512H0z" class="cls-2" transform="rotate(-45 59.12 24.488)"/>
                            <path id="사각형_82" d="M0 0H69.264V5.512H0z" class="cls-4" transform="rotate(-45 65.638 21.789)"/>
                            <path id="사각형_83" d="M0 0H69.264V5.512H0z" class="cls-3" transform="rotate(-45 72.156 19.089)"/>
                        </g>
                    </g>
                </g>
                <g id="그룹_6323" transform="translate(95.778)">
                    <path id="패스_8529" d="M709.339 254.288a18.4 18.4 0 0 1 1.31-7.081 15.543 15.543 0 0 1 3.656-5.4 16.112 16.112 0 0 1 5.564-3.426 21.3 21.3 0 0 1 14.071 0 16.112 16.112 0 0 1 5.56 3.419 15.543 15.543 0 0 1 3.656 5.4 19.788 19.788 0 0 1 0 14.163 15.535 15.535 0 0 1-3.656 5.4 16.1 16.1 0 0 1-5.564 3.426 21.3 21.3 0 0 1-14.071 0 16.1 16.1 0 0 1-5.564-3.426 15.535 15.535 0 0 1-3.656-5.4 18.4 18.4 0 0 1-1.306-7.075zm7.45 0a11.935 11.935 0 0 0 .713 4.208 9.635 9.635 0 0 0 2.046 3.311 9.327 9.327 0 0 0 3.2 2.184 11.469 11.469 0 0 0 8.323 0 9.331 9.331 0 0 0 3.2-2.184 9.647 9.647 0 0 0 2.046-3.311 12.711 12.711 0 0 0 0-8.393 9.615 9.615 0 0 0-2.046-3.334 9.342 9.342 0 0 0-3.2-2.184 11.456 11.456 0 0 0-8.323 0 9.337 9.337 0 0 0-3.2 2.184 9.6 9.6 0 0 0-2.048 3.331 12 12 0 0 0-.711 4.188z" class="cls-2" transform="translate(-709.339 -237.182)"/>
                </g>
                <g id="그룹_6324" transform="translate(135.783 .828)">
                    <path id="패스_8530" d="M755.71 238.142h9.749l13.841 22.623h.091v-22.623h7.174V270.7h-9.38l-14.209-23.175h-.091V270.7h-7.175z" class="cls-2" transform="translate(-755.71 -238.142)"/>
                </g>
                <g id="그룹_6325" transform="translate(169.028 .828)">
                    <path id="패스_8531" d="M806.477 256.811l-12.232-18.669h8.921l6.9 12.185 7.312-12.185h8.506l-12.232 18.669V270.7h-7.173z" class="cls-2" transform="translate(-794.245 -238.142)"/>
                </g>
            </g>
        </g>
    </g>
</svg>
