<svg xmlns="http://www.w3.org/2000/svg" width="320" height="140" viewBox="0 0 320 140">
    <defs>
        <style>
            .cls-1{fill:none}.cls-2{fill:#e7f1f7}.cls-4{fill:#0860a8}.cls-6{fill:#231e21}
        </style>
    </defs>
    <g id="paycoiin" transform="translate(-1240 -3194)">
        <path id="Base" d="M0 0H320V140H0z" class="cls-1" transform="translate(1240 3194)"/>
        <g id="paycoiin-2" transform="translate(1066.931 3056.543)">
            <g id="그룹_6294" transform="translate(218.069 170.457)">
                <g id="그룹_6293">
                    <path id="패스_8431" d="M287.926 194.11a3.125 3.125 0 0 1-.972 1.823c-.07.081-.143.162-.223.245a9.123 9.123 0 0 1-1.339.967l-13.288 7.9c-.375.2-4.652 2.449-8.095 2.514h-.079a18.1 18.1 0 0 1-8.407-2.323L249.916 202l-9.619-5.839-.008-.006a3.133 3.133 0 0 1 .311-5.253l4.364-2.423 11.6-6.695c1.077-.62 4.458-2.226 7.137-2.162h.077a14.4 14.4 0 0 1 6.472 1.736l14.749 8.62c.045.027.092.051.139.074a8.691 8.691 0 0 1 1.388.938 3.132 3.132 0 0 1 1.445 2.638v.033a1.95 1.95 0 0 1-.045.449z" class="cls-2" transform="translate(-229.498 -175.459)"/>
                    <path id="패스_8432" fill="#d5e8f2" d="M278.356 183.535l-17.171-9.914a16.732 16.732 0 0 0-16.685 0l-17.171 9.914a16.731 16.731 0 0 0-8.342 14.45v19.827a16.566 16.566 0 0 0 7.422 13.564c.214.15.433.295.654.437l10.387 6.941-.28-.93 7.33 4.35a16.676 16.676 0 0 0 8.176 2.226 1.628 1.628 0 0 0 .178.01 1.676 1.676 0 0 0 .18-.01 16.675 16.675 0 0 0 8.152-2.226l17.171-9.913a16.732 16.732 0 0 0 8.343-14.45v-19.826a16.731 16.731 0 0 0-8.344-14.45zm-6.642 48.716l-12.193 7.04c-.14.081-.284.152-.427.228-.581.283-2.153.916-3.311.149 0 0-1.156-.636-1.264-3.5V228.2l.006.02a13.336 13.336 0 0 1 1.15-5.631 11.461 11.461 0 0 1 3.735-3.827l7.7-4.281c.555-.274 2.165-.945 3.343-.165 0 0 1.144.629 1.263 3.448zm11.655-31.544v17.1a13.392 13.392 0 0 1-6.677 11.566l-1.647.951v-15.2a11.278 11.278 0 0 0-5.624-9.74l-10.954-6.324a11.276 11.276 0 0 0-11.247 0l-10.954 6.324a11.278 11.278 0 0 0-5.623 9.74v9.946a1.665 1.665 0 1 0 3.33 0v-9.946a7.913 7.913 0 0 1 1.086-3.993l3.124 1.531 2.5.319.156-1.076s-2.9-1.358-2.561-2.8c0 0 .061-.983 1.7-2.015l8.909-5.143a7.938 7.938 0 0 1 7.917 0l9.037 5.217c1.521 1 1.583 1.936 1.583 1.936.25 1.051-1.218 2.057-2.038 2.527l-.223.124c-.184.1-.3.154-.3.154v.012l-7.578 4.213a7.87 7.87 0 0 1-4.671 1.341 9.628 9.628 0 0 1-4.324-1.341l-2.289.74 1.2.995 2.14.629 2.6.616a1.648 1.648 0 0 0-.538.576l-.992-.551-4.1-.375a11.462 11.462 0 0 1 3.735 3.827 13.373 13.373 0 0 1 1.15 5.5V235.929c-.05 3.063-1.271 3.735-1.271 3.735-1.445.956-3.541-.269-3.541-.269v.005c-.07-.039-.143-.073-.213-.114L228.995 229.1c-3.446-2.486-6.677-6.532-6.677-11.288v-19.827a13.391 13.391 0 0 1 6.677-11.566l17.171-9.914a13.392 13.392 0 0 1 13.355 0l17.171 9.914a13.324 13.324 0 0 1 4.366 4.071l-2.619 1.767-2.765 4.51s.617-.3 1.475-.609l2.605-.64h.033l.055-.018.483-.119a2.555 2.555 0 0 1 .384-.031 2.657 2.657 0 0 1 2.653 2.543V200.609c.003.031.006.063.006.098z" transform="translate(-218.57 -170.968)"/>
                    <path id="패스_8433" d="M252 268.9c.119-2.819 1.262-3.448 1.262-3.448 1.179-.78 2.789-.109 3.343.165l7.7 4.281a11.457 11.457 0 0 1 3.735 3.827 13.328 13.328 0 0 1 1.15 5.631l.007-.02v7.976c-.108 2.859-1.264 3.5-1.264 3.5-1.158.766-2.73.133-3.311-.149-.143-.075-.287-.147-.427-.228L252 283.391z" class="cls-2" transform="translate(-236.591 -222.108)"/>
                    <circle id="타원_58" cx="2.455" cy="2.455" r="2.455" class="cls-4" transform="translate(52.309 39.617)"/>
                    <path id="패스_8434" d="M346.751 210.537a3.152 3.152 0 0 1-.039.447 1.951 1.951 0 0 0 .039-.447z" class="cls-1" transform="translate(-288.284 -192.333)"/>
                    <path id="패스_8435" d="M313.15 265.453c-1.179-.78-2.789-.109-3.343.165l-7.7 4.281a11.461 11.461 0 0 0-3.735 3.827 13.335 13.335 0 0 0-1.15 5.631l-.006-.02v7.976c.108 2.859 1.264 3.5 1.264 3.5 1.158.766 2.73.133 3.311-.149.142-.075.287-.147.427-.228l12.193-7.04V268.9c-.117-2.818-1.261-3.447-1.261-3.447z" class="cls-1" transform="translate(-261.27 -222.108)"/>
                    <path id="패스_8436" d="M313.15 265.453c-1.179-.78-2.789-.109-3.343.165l-7.7 4.281a11.461 11.461 0 0 0-3.735 3.827 13.335 13.335 0 0 0-1.15 5.631l-.006-.02v7.976c.108 2.859 1.264 3.5 1.264 3.5 1.158.766 2.73.133 3.311-.149.142-.075.287-.147.427-.228l12.193-7.04V268.9c-.117-2.818-1.261-3.447-1.261-3.447z" class="cls-1" transform="translate(-261.27 -222.108)"/>
                    <path id="패스_8437" d="M250.234 285.694s-4.486-2.341-5.646-5.526a22.068 22.068 0 0 1-.858-6.87v-7.984c.335-4.213 2.724-6 4.562-6.709 3.33-1.37 6.55.791 7.079 1.112l10.5 5.945a2.081 2.081 0 1 1-2.054 3.62l-10.608-6.01a4.023 4.023 0 0 0-3.376-.382l-.085.041a3.467 3.467 0 0 0-1.856 3.165v7.2c.049 2.563.04 4.063.7 5.74a9.839 9.839 0 0 0 3.764 3.288c6.5 3.914 10.869 4.694 10.869 4.694a2.23 2.23 0 0 1 2.081 2.081 2.013 2.013 0 0 1-2.081 2.082s-3.66-.04-12.991-5.487z" class="cls-4" transform="translate(-232.074 -218.324)"/>
                    <path id="패스_8438" d="M336.143 290.9a2.081 2.081 0 0 1-2.081-2.081v-13.066a2.081 2.081 0 0 1 4.162 0v13.066a2.081 2.081 0 0 1-2.081 2.081z" class="cls-4" transform="translate(-281.38 -226.793)"/>
                    <path id="패스_8439" fill="#fb1228" d="M281.254 188.661c.014-4.5-4.932-6.942-5.642-7.308l-14.71-8.6-.026-.015a18.491 18.491 0 0 0-8.555-2.281c-4.365-.093-9.07 2.6-9.27 2.718l-15.93 9.2a19.227 19.227 0 0 0-7.172 6.993 15.087 15.087 0 0 0-.89 1.833 18.856 18.856 0 0 0-.989 6.273V220.2a2.081 2.081 0 0 0 4.163 0v-20.091c.007-.176.017-.346.029-.51v-2.313a2.654 2.654 0 0 1 3.783-2.407l.119.059.426.213 2.785 1.392 12.666 7.316.059.033a22.053 22.053 0 0 0 10.586 2.826c4.614-.1 9.8-2.92 10.017-3.041l.061-.035 13.334-7.927c5.04-2.832 5.202-6.175 5.156-7.054zm-4.757.447a3.125 3.125 0 0 1-.972 1.823c-.07.081-.143.162-.223.245a9.13 9.13 0 0 1-1.339.967l-13.288 7.9c-.375.2-4.652 2.449-8.095 2.514h-.079a18.1 18.1 0 0 1-8.407-2.323L238.487 197l-9.619-5.839-.008-.006a3.133 3.133 0 0 1 .311-5.253l4.364-2.423 11.6-6.695c1.077-.62 4.458-2.226 7.137-2.162h.077a14.4 14.4 0 0 1 6.472 1.736l14.749 8.62c.045.027.092.051.139.075a8.687 8.687 0 0 1 1.388.938 3.131 3.131 0 0 1 1.445 2.638v.033a1.949 1.949 0 0 1-.042.446z" transform="translate(-218.069 -170.457)"/>
                </g>
            </g>
            <g id="그룹_6295" transform="translate(307.95 189.843)">
                <path id="패스_8440" d="M415.963 217.9h9.1c6.692 0 11.466 2.285 11.466 9.059 0 6.569-4.774 9.589-11.3 9.589H420.7v11.385h-4.733zm8.814 14.853c4.815 0 7.1-1.836 7.1-5.794s-2.489-5.264-7.263-5.264H420.7v11.058z" class="cls-6" transform="translate(-415.963 -215.74)"/>
                <path id="패스_8441" d="M464.475 250.412c0-4.815 4.08-7.3 13.425-8.324-.041-2.611-.979-4.9-4.284-4.9a12.339 12.339 0 0 0-6.488 2.285l-1.755-3.183a17.19 17.19 0 0 1 9.058-2.938c5.59 0 8.161 3.549 8.161 9.507v13.511h-3.835l-.408-2.571h-.122a11.155 11.155 0 0 1-7.141 3.1c-3.877.001-6.611-2.529-6.611-6.487zm13.425.164v-5.509c-6.651.816-8.9 2.489-8.9 5.019 0 2.2 1.509 3.1 3.509 3.1 1.964.001 3.555-.938 5.391-2.61z" class="cls-6" transform="translate(-442.441 -224.175)"/>
                <path id="패스_8442" d="M523.456 258.4c-1.755 4.815-4.121 8.039-8.854 8.039a7.982 7.982 0 0 1-2.816-.449l.9-3.672a6.085 6.085 0 0 0 1.632.326c2.448 0 3.877-1.795 4.693-4.2l.449-1.551-8.9-22.28h4.815l4.162 11.548c.653 2 1.347 4.243 2.04 6.325h.2l1.755-6.325 3.591-11.548h4.57z" class="cls-6" transform="translate(-467.596 -224.861)"/>
                <path id="패스_8443" d="M560.242 245.189c0-7.508 5.182-11.833 11.1-11.833a9.638 9.638 0 0 1 6.57 2.57l-2.326 3.061a5.881 5.881 0 0 0-4.04-1.755c-3.754 0-6.448 3.183-6.448 7.957 0 4.733 2.571 7.875 6.325 7.875a7.689 7.689 0 0 0 4.9-2.04l1.918 3.1a10.934 10.934 0 0 1-7.263 2.775c-6.084.001-10.736-4.284-10.736-11.71z" class="cls-6" transform="translate(-494.712 -224.175)"/>
                <path id="패스_8444" d="M602.557 245.189c0-7.508 5.019-11.833 10.568-11.833s10.568 4.325 10.568 11.833c0 7.426-5.019 11.711-10.568 11.711s-10.568-4.285-10.568-11.711zm16.322 0c0-4.774-2.2-7.957-5.754-7.957-3.509 0-5.713 3.183-5.713 7.957 0 4.733 2.2 7.875 5.713 7.875 3.55 0 5.754-3.142 5.754-7.875z" class="cls-6" transform="translate(-517.809 -224.175)"/>
                <path id="패스_8445" d="M657.987 215.916a2.757 2.757 0 0 1 2.979-2.775 2.782 2.782 0 1 1-2.979 2.775zm.653 6.978h4.652v22.443h-4.652z" class="cls-6" transform="translate(-548.063 -213.141)"/>
                <path id="패스_8446" d="M683.411 233.927h3.836l.367 3.1h.122c2.081-2 4.366-3.672 7.426-3.672 4.775 0 6.9 3.182 6.9 8.9v14.115h-4.693v-13.548c0-3.876-1.143-5.427-3.795-5.427-2.081 0-3.51 1.061-5.509 3.06v15.915h-4.652z" class="cls-6" transform="translate(-561.94 -224.175)"/>
            </g>
        </g>
    </g>
</svg>
