<svg xmlns="http://www.w3.org/2000/svg" width="330" height="188.156" viewBox="0 0 330 188.156">
    <defs>
        <style>
            .cls-3{fill:none}.cls-2{opacity:.25}.cls-3{stroke:#246fed;stroke-miterlimit:10}
        </style>
    </defs>
    <g id="solution_img01" transform="translate(-405 -1405.422)">
        <path id="Base" fill="none" d="M0 0H330V187H0z" transform="translate(405 1406)"/>
        <g id="그룹_6217" transform="translate(-1112.958 352.515)">
            <g id="그룹_6204" transform="translate(1665.035 1053.485)">
                <g id="그룹_6203" class="cls-2" transform="translate(0 .104)">
                    <path id="선_175" d="M0 0L0 20.857" class="cls-3" transform="translate(18.344)"/>
                    <path id="패스_8340" d="M1802.493 1118.583l-17.993-10.533-18.344 10.532" class="cls-3" transform="translate(-1766.155 -1087.192)"/>
                </g>
                <path id="패스_8341" d="M1802.493 1064.017l-17.993-10.532-18.344 10.533v20.857l18.344 10.532 17.993-10.532v-20.857z" class="cls-3" transform="translate(-1766.155 -1053.485)"/>
                <path id="선_176" d="M0 20.857L0 0" class="cls-3" transform="translate(18.344 21.066)"/>
                <path id="패스_8342" d="M1802.493 1080.9l-17.993 10.533-18.344-10.532" class="cls-3" transform="translate(-1766.155 -1070.37)"/>
            </g>
            <g id="그룹_6206" transform="translate(1665.035 1198.562)">
                <g id="그룹_6205" class="cls-2" transform="translate(0 .104)">
                    <path id="선_177" d="M0 0L0 20.857" class="cls-3" transform="translate(18.344)"/>
                    <path id="패스_8343" d="M1802.493 1496.237L1784.5 1485.7l-18.344 10.532" class="cls-3" transform="translate(-1766.155 -1464.846)"/>
                </g>
                <path id="패스_8344" d="M1802.493 1441.672l-17.993-10.532-18.344 10.533v20.857l18.344 10.532 17.993-10.532v-20.857z" class="cls-3" transform="translate(-1766.155 -1431.139)"/>
                <path id="선_178" d="M0 20.857L0 0" class="cls-3" transform="translate(18.344 21.066)"/>
                <path id="패스_8345" d="M1802.493 1458.556l-17.993 10.534-18.344-10.532" class="cls-3" transform="translate(-1766.155 -1448.024)"/>
            </g>
            <g id="그룹_6208" transform="translate(1601.958 1089.657)">
                <g id="그룹_6207" class="cls-2" transform="translate(0 .104)">
                    <path id="선_179" d="M0 0L0 20.857" class="cls-3" transform="translate(18.344)"/>
                    <path id="패스_8346" d="M1638.3 1212.745l-17.993-10.533-18.344 10.532" class="cls-3" transform="translate(-1601.958 -1181.354)"/>
                </g>
                <path id="패스_8347" d="M1638.3 1158.179l-17.993-10.532-18.344 10.533v20.857l18.344 10.532 17.993-10.532v-20.857z" class="cls-3" transform="translate(-1601.958 -1147.647)"/>
                <path id="선_180" d="M0 20.857L0 0" class="cls-3" transform="translate(18.344 21.066)"/>
                <path id="패스_8348" d="M1638.3 1175.064l-18 10.536-18.344-10.532" class="cls-3" transform="translate(-1601.958 -1164.532)"/>
            </g>
            <g id="그룹_6210" transform="translate(1728.313 1089.657)">
                <g id="그룹_6209" class="cls-2" transform="translate(0 .104)">
                    <path id="선_181" d="M0 0L0 20.857" class="cls-3" transform="translate(18.344)"/>
                    <path id="패스_8349" d="M1967.216 1212.745l-17.993-10.533-18.344 10.532" class="cls-3" transform="translate(-1930.879 -1181.354)"/>
                </g>
                <path id="패스_8350" d="M1967.216 1158.179l-17.993-10.532-18.344 10.533v20.857l18.344 10.532 17.993-10.532v-20.857z" class="cls-3" transform="translate(-1930.879 -1147.647)"/>
                <path id="선_182" d="M0 20.857L0 0" class="cls-3" transform="translate(18.344 21.066)"/>
                <path id="패스_8351" d="M1967.216 1175.064l-17.993 10.533-18.344-10.532" class="cls-3" transform="translate(-1930.879 -1164.532)"/>
            </g>
            <g id="그룹_6212" transform="translate(1601.958 1163.239)">
                <g id="그룹_6211" class="cls-2" transform="translate(0 .104)">
                    <path id="선_183" d="M0 0L0 20.857" class="cls-3" transform="translate(18.344)"/>
                    <path id="패스_8352" d="M1638.3 1404.287l-17.993-10.533-18.344 10.532" class="cls-3" transform="translate(-1601.958 -1372.896)"/>
                </g>
                <path id="패스_8353" d="M1638.3 1349.721l-17.993-10.532-18.344 10.533v20.858l18.344 10.532 17.993-10.532v-20.858z" class="cls-3" transform="translate(-1601.958 -1339.189)"/>
                <path id="선_184" d="M0 20.857L0 0" class="cls-3" transform="translate(18.344 21.066)"/>
                <path id="패스_8354" d="M1638.3 1366.606l-18 10.534-18.344-10.532" class="cls-3" transform="translate(-1601.958 -1356.074)"/>
            </g>
            <g id="그룹_6214" transform="translate(1728.313 1163.239)">
                <g id="그룹_6213" class="cls-2" transform="translate(0 .104)">
                    <path id="선_185" d="M0 0L0 20.857" class="cls-3" transform="translate(18.344)"/>
                    <path id="패스_8355" d="M1967.216 1404.287l-17.993-10.533-18.344 10.532" class="cls-3" transform="translate(-1930.879 -1372.896)"/>
                </g>
                <path id="패스_8356" d="M1967.216 1349.721l-17.993-10.532-18.344 10.533v20.858l18.344 10.532 17.993-10.532v-20.858z" class="cls-3" transform="translate(-1930.879 -1339.189)"/>
                <path id="선_186" d="M0 20.857L0 0" class="cls-3" transform="translate(18.344 21.066)"/>
                <path id="패스_8357" d="M1967.216 1366.606l-17.993 10.533-18.344-10.532" class="cls-3" transform="translate(-1930.879 -1356.074)"/>
            </g>
            <g id="그룹_6216" transform="translate(1647.313 1105.457)">
                <g id="그룹_6215" class="cls-2" transform="translate(0 .206)">
                    <path id="선_187" d="M0.216 0L0 26.201" class="cls-3" transform="translate(36.199)"/>
                    <path id="선_188" d="M22.318 13.344L0 0" class="cls-3" transform="translate(49.814 48.969)"/>
                    <path id="선_189" d="M22.318 0L0 13.342" class="cls-3" transform="translate(0 48.969)"/>
                </g>
                <path id="패스_8358" d="M1792.155 1209.682l-35.718-20.907-36.414 20.91v41.4l36.414 20.907 35.717-20.907v-41.405z" class="cls-3" transform="translate(-1720.023 -1188.774)"/>
                <path id="선_190" d="M0 41.403L0 0" class="cls-3" transform="translate(36.414 41.817)"/>
                <path id="패스_8359" d="M1792.155 1243.2l-35.718 20.91-36.414-20.907" class="cls-3" transform="translate(-1720.023 -1222.291)"/>
                <path id="패스_8360" fill="none" stroke="#246fed" stroke-miterlimit="10" d="M1805.615 1265.153l-13.615-7.639-13.881 7.64v15.128l13.881 7.639 13.615-7.639v-15.128z" opacity="0.25" transform="translate(-1755.801 -1231.107)"/>
            </g>
        </g>
    </g>
</svg>
