<svg xmlns="http://www.w3.org/2000/svg" width="320" height="140" viewBox="0 0 320 140">
    <defs>
        <style>
            .cls-2{fill:#102039}
        </style>
    </defs>
    <g id="staked" transform="translate(-800 -3189)">
        <path id="Base" fill="none" d="M0 0H320V140H0z" transform="translate(800 3189)"/>
        <g id="그룹_6328" transform="translate(370 352)">
            <g id="그룹_6327" transform="translate(563.57 2889)">
                <path id="패스_8532" d="M16.5 28.535c5.516 1.95 6.561 3.662 6.561 6.325 0 3.329-2.71 6.135-7.94 6.135-2.425 0-5.943-1.189-7.465-2.663-1.617-1.617-2.377-3.282-2.853-6.706-.048-.476-.1-.571-.333-.571-.285 0-.428.1-.428.476 0 .856.1 2.52.1 4.661 0 1.95-.1 4.375-.1 4.851 0 .238.1.333.38.333.238 0 .38-.048.38-.476.1-1.284.475-1.474 1-1.474a3.772 3.772 0 0 1 1.521.476 16.883 16.883 0 0 0 7.7 1.855c7.417 0 11.269-4.375 11.269-10.082 0-5.659-3.186-7.942-9.557-10.272l-3.606-1.333C7.9 18.216 7.138 16.6 7.138 14.078c0-3.519 2.9-5.754 7.7-5.754a8.47 8.47 0 0 1 5.943 2.235c1.474 1.522 2.282 3.186 2.662 6.372.048.428.1.523.38.523.333 0 .38-.095.38-.428 0-.808-.048-2.425-.048-4.423 0-1.807.048-3.947.048-4.47 0-.238-.048-.333-.333-.333s-.38.048-.428.428c-.143 1.236-.523 1.427-1 1.427a3.553 3.553 0 0 1-1.141-.476 12.949 12.949 0 0 0-6.419-1.617C7.756 7.563 4 11.938 4 17.217c0 5.089 2.52 7.8 8.511 9.892z" class="cls-2" transform="translate(-4 -5.756)"/>
                <path id="패스_8533" d="M108.627 47.082c0 1 0 2.711.1 3.709.238 3 1.664 4.851 6.371 4.851a6.95 6.95 0 0 0 5.04-1.807 1.347 1.347 0 0 0 .523-.808.357.357 0 0 0-.333-.333c-.143 0-.238.1-.333.238a4.657 4.657 0 0 1-1.236 1.141 3.559 3.559 0 0 1-1.712.476 1.716 1.716 0 0 1-1.9-1.474 19.882 19.882 0 0 1-.238-3.947V33.1h4.469c.19 0 .285-.1.285-.38s-.1-.38-.285-.38H114.9v-5.9a1.184 1.184 0 0 0-.047-.428c-.048-.1-.238-.143-.523-.143-.38 0-.523.143-.666.523-1.094 3-1.759 3.947-3.376 4.946a10.214 10.214 0 0 1-4.755 1.141c-.19 0-.285.048-.285.285s.047.333.19.333h3.185z" class="cls-2" transform="translate(-81.057 -19.69)"/>
                <path id="패스_8534" d="M188.53 70.611c.428 2.378 1.616 3.567 5.277 3.567a8.745 8.745 0 0 0 4.279-1.141.688.688 0 0 0 .38-.571.368.368 0 0 0-.333-.38c-.238 0-.333.143-.618.428a2.2 2.2 0 0 1-1.427.523c-1.046 0-1.379-.618-1.379-2.473 0-.951.1-10.605.1-12.65a9.6 9.6 0 0 0-.761-4.233c-1.046-2.093-3.994-3.329-8.178-3.329-6.751 0-9.319 2.948-9.319 6.325 0 1.332.666 1.95 1.854 1.95 1.046 0 2-.333 2-2 0-2.568.238-3.852 1.189-4.661a4.745 4.745 0 0 1 3.281-.951c1.569 0 2.71.428 3.281 1.76a11.424 11.424 0 0 1 .381 3.662v5.374c-6.277 0-9.129.428-10.841 1.332-1.521.761-2.567 2.187-2.567 4.851 0 3.186 1.854 6.325 7.512 6.325a6.021 6.021 0 0 0 5.889-3.708zm.047-8.132v3.329a14.055 14.055 0 0 1-.666 4.565 4 4 0 0 1-3.851 2.806c-1.807 0-2.9-1.427-2.9-5.184 0-3 .761-4.327 1.759-4.9a9.727 9.727 0 0 1 4.327-.666c.713.002 1.141.05 1.332.05z" class="cls-2" transform="translate(-134.232 -38.32)"/>
                <path id="패스_8535" d="M286.775 31.672V23.35h.808a1.589 1.589 0 0 1 1.474.856l5.135 8.323a2.764 2.764 0 0 1 .618 1.427.661.661 0 0 1-.523.666 7.512 7.512 0 0 1-1.759.143c-.238 0-.285.048-.285.333 0 .238.095.285.285.285 1.189-.048 4.9-.048 6.134-.048s4.754.048 6.181.048c.19 0 .238-.048.238-.285 0-.286-.095-.333-.428-.333-1.046 0-1.854-.238-3.138-2.187l-8.32-12.65 4.089-4.423a9.156 9.156 0 0 1 2.186-1.805 5.305 5.305 0 0 1 1.854-.476c.285 0 .428-.048.428-.285s-.1-.285-.286-.285c-.523 0-2.044.048-3.708.048-2.092 0-3.708-.048-4.422-.048-.19 0-.285.048-.285.285 0 .19.048.285.333.285a13.266 13.266 0 0 1 1.521.19c.761.19 1.094.571 1.094 1.046a3.676 3.676 0 0 1-1.094 2.282 55.072 55.072 0 0 1-4.612 5.136 2.829 2.829 0 0 1-2.139.808h-1.379V7.8c0-3.852.19-7.038.19-7.419 0-.333-.143-.38-.333-.38-.475 0-4.184.238-9.081.238-.142 0-.19.143-.19.285 0 .238.048.333.238.333 1.521 0 2.14.048 2.472.333.333.333.428.666.428 3.139v27.343a7.04 7.04 0 0 1-.285 2.425c-.285.571-.856.666-2.71.666-.142 0-.238.048-.238.333 0 .238.048.285.238.285 1.189 0 4.707-.048 6.086-.048 1.569 0 5.611.048 6.276.048.19 0 .238-.1.238-.285 0-.286-.048-.333-.238-.333-2.045 0-2.662-.285-2.853-.666a5.849 5.849 0 0 1-.238-2.425z" class="cls-2" transform="translate(-211.968)"/>
                <path id="패스_8536" d="M400.392 61.813H412.8c1.188 0 1.664-.19 1.854-.38.38-.38.475-.9.475-1.855 0-5.849-3.994-9.226-9.7-9.226-7.56 0-11.7 5.612-11.7 12.412 0 6.563 4.137 11.556 11.649 11.556 5.183 0 8.083-2.52 9.319-5.279a5.066 5.066 0 0 0 .476-2 .763.763 0 0 0-.809-.761c-.713 0-.9.38-1 1.094a6.922 6.922 0 0 1-6.8 6.135c-3.415.003-6.172-1.044-6.172-11.696zm0-.713c.285-8.465 2.092-10.082 4.945-10.082 3.091 0 3.661 2.521 3.661 8.085 0 1.427-.238 2-1.711 2z" class="cls-2" transform="translate(-300.606 -38.32)"/>
                <path id="패스_8537" d="M511.96 31.149c-.047 2.14-.1 3.519-.1 4.042a.427.427 0 0 0 .476.476c1 0 4.707-.238 8.891-.238.19 0 .238-.1.238-.285 0-.286-.048-.333-.238-.333-2.235 0-2.663-.285-2.853-.666a5.849 5.849 0 0 1-.238-2.425V6.9c0-2.568.19-6.325.19-6.515 0-.285-.1-.38-.285-.38-.523 0-4.945.238-9.129.238-.143 0-.19.143-.19.285 0 .238.048.333.238.333a5.343 5.343 0 0 1 2.472.333c.381.333.428.666.428 3.139v11.788a5.66 5.66 0 0 0-5.8-4.09c-6.134 0-10.508 5.089-10.508 12.317 0 7.561 4.327 11.651 9.938 11.651 3.237.001 5.329-1.711 6.47-4.85zm-.1-7.894a34.745 34.745 0 0 1-.475 6.182c-.666 4.09-2.9 5.659-4.945 5.659-2.234 0-4.137-1.474-4.137-10.843 0-9.321 1.664-11.366 4.47-11.366 2.33 0 3.708 1.569 4.469 4.09a20.207 20.207 0 0 1 .623 6.278z" class="cls-2" transform="translate(-378.097)"/>
            </g>
            <path id="패스_8538" fill="#102039" fill-rule="evenodd" d="M70.022 35A35.011 35.011 0 1 1 35.011 0a35.006 35.006 0 0 1 35.011 35zm-38.794 8.189a13.719 13.719 0 1 1 10.16-22.942l-3.169 2.877a9.439 9.439 0 1 0 0 12.69l3.169 2.878a13.756 13.756 0 0 1-10.16 4.497zm-2.594 6.454a13.719 13.719 0 1 0 0-18.444l3.166 2.877a9.44 9.44 0 1 1 0 12.688z" transform="translate(473 2872)"/>
        </g>
    </g>
</svg>
