<svg xmlns="http://www.w3.org/2000/svg" width="207" height="22" viewBox="0 0 207 22">
    <path fill="none" d="M0 0H207V22H0z"/>
    <g>
        <g>
            <path d="M1234.451 677.61h-13.31v2.676h5.09v15.133h3.153v-15.133h5.067z" transform="translate(-52.327 -4.441) translate(54.327 6.441) translate(-1221.141 -677.61)"/>
            <path d="M1334.422 713.267a5.44 5.44 0 0 0-1.97-1.186 8.2 8.2 0 0 0-5.129 0 5.487 5.487 0 0 0-1.958 1.186 5.275 5.275 0 0 0-1.257 1.912 7.074 7.074 0 0 0-.447 2.608v1.562a7.134 7.134 0 0 0 .445 2.6 5.281 5.281 0 0 0 1.259 1.925 5.5 5.5 0 0 0 1.958 1.186 8.2 8.2 0 0 0 5.129 0 5.45 5.45 0 0 0 1.97-1.186 5.256 5.256 0 0 0 1.259-1.925 7.138 7.138 0 0 0 .445-2.6v-1.562a7.119 7.119 0 0 0-.445-2.608 5.279 5.279 0 0 0-1.259-1.912zm-3.292 9.284a4.106 4.106 0 0 1-2.472 0 2.519 2.519 0 0 1-.978-.59 2.74 2.74 0 0 1-.652-1.065 4.814 4.814 0 0 1-.238-1.6v-1.464a3.534 3.534 0 0 1 .84-2.66 3.671 3.671 0 0 1 4.528 0 3.526 3.526 0 0 1 .84 2.66v1.468a4.778 4.778 0 0 1-.236 1.6 2.784 2.784 0 0 1-.65 1.065 2.57 2.57 0 0 1-.982.586z" transform="translate(-52.327 -4.441) translate(54.327 6.441) translate(-1311.01 -707.465)"/>
            <path d="M1455.605 682.1h-3.93l-4.885 5.529V677.61h-3.106v17.809h3.106v-3.965l1.466-1.629 3.571 5.573.012.021h3.964l-5.377-7.795z" transform="translate(-52.327 -4.441) translate(54.327 6.441) translate(-1416.223 -677.61)"/>
            <path d="M1557.534 712.795a5.214 5.214 0 0 0-1.706-.835 8.332 8.332 0 0 0-5.141.254 12.928 12.928 0 0 0-2.286 1.24l-.035.023 1.537 2.28.035-.027a5.9 5.9 0 0 1 3.718-1.312 2.5 2.5 0 0 1 1.763.529 2.344 2.344 0 0 1 .551 1.734v.464h-2.983a8.374 8.374 0 0 0-2.366.29 4.251 4.251 0 0 0-1.56.8 2.9 2.9 0 0 0-.853 1.205 4.4 4.4 0 0 0-.254 1.517v.768a3.391 3.391 0 0 0 1.189 2.758 5.126 5.126 0 0 0 3.339.982 5.491 5.491 0 0 0 1.113-.121 5.905 5.905 0 0 0 1.113-.351 4.01 4.01 0 0 0 .959-.583 2.294 2.294 0 0 0 .549-.647l.043 1.51h2.794v-9.335a3.967 3.967 0 0 0-.4-1.809 3.9 3.9 0 0 0-1.119-1.334zm-1.566 6.786v.319a8.074 8.074 0 0 1-.072 1.207 1.555 1.555 0 0 1-.469.854 3.708 3.708 0 0 1-2.708.877 2.109 2.109 0 0 1-1.318-.352 1.177 1.177 0 0 1-.439-.977v-.288a1.6 1.6 0 0 1 .455-1.2 2.345 2.345 0 0 1 1.638-.445z" transform="translate(-52.327 -4.441) translate(54.327 6.441) translate(-1507.625 -707.465)"/>
            <path d="M1678.395 712.932a4.091 4.091 0 0 0-1.468-.946 4.942 4.942 0 0 0-1.751-.315 5.3 5.3 0 0 0-2.482.51 4.691 4.691 0 0 0-1.617 1.463 2.963 2.963 0 0 0-1.32-1.414 4.819 4.819 0 0 0-4.458-.024 3.6 3.6 0 0 0-1.392 1.4v-1.648h-2.938v13.315h3.108v-8.158a2.758 2.758 0 0 1 .66-2.014 2.348 2.348 0 0 1 1.724-.66 3.143 3.143 0 0 1 .922.131 1.729 1.729 0 0 1 .74.457 2.382 2.382 0 0 1 .506.875 4.245 4.245 0 0 1 .191 1.379v7.99h3.106v-8.038a3.776 3.776 0 0 1 .213-1.354 2.411 2.411 0 0 1 .543-.862 1.844 1.844 0 0 1 .763-.446 3.2 3.2 0 0 1 1.765-.012 1.735 1.735 0 0 1 .75.434 2.192 2.192 0 0 1 .519.885 4.738 4.738 0 0 1 .187 1.452v7.942h3.108v-8.567a5.986 5.986 0 0 0-.375-2.2 4.65 4.65 0 0 0-1.004-1.575z" transform="translate(-52.327 -4.441) translate(54.327 6.441) translate(-1606.697 -707.465)"/>
            <path d="M1841.153 712.795a5.213 5.213 0 0 0-1.706-.835 8.326 8.326 0 0 0-5.139.254 13.057 13.057 0 0 0-2.292 1.24l-.031.023 1.535 2.28.035-.027a5.9 5.9 0 0 1 3.721-1.312 2.5 2.5 0 0 1 1.761.529 2.344 2.344 0 0 1 .551 1.734v.464h-2.988a8.365 8.365 0 0 0-2.366.29 4.26 4.26 0 0 0-1.562.8 2.893 2.893 0 0 0-.851 1.205 4.4 4.4 0 0 0-.254 1.517v.768a3.387 3.387 0 0 0 1.191 2.758 5.122 5.122 0 0 0 3.339.982 5.454 5.454 0 0 0 1.109-.121 5.86 5.86 0 0 0 1.113-.351 3.985 3.985 0 0 0 .961-.583 2.254 2.254 0 0 0 .547-.647l.047 1.51h2.792v-9.335a3.967 3.967 0 0 0-.4-1.809 3.9 3.9 0 0 0-1.113-1.334zm-1.566 6.786v.319a7.782 7.782 0 0 1-.074 1.207 1.543 1.543 0 0 1-.469.854 3.7 3.7 0 0 1-2.706.877 2.115 2.115 0 0 1-1.32-.352 1.189 1.189 0 0 1-.441-.977v-.288a1.6 1.6 0 0 1 .457-1.2 2.354 2.354 0 0 1 1.64-.445z" transform="translate(-52.327 -4.441) translate(54.327 6.441) translate(-1756.247 -707.465)"/>
            <path d="M1956.512 682.1h-3.928l-4.885 5.529V677.61h-3.1v17.809h3.1v-3.965l1.464-1.629 3.573 5.573.012.021h3.967l-5.381-7.795z" transform="translate(-52.327 -4.441) translate(54.327 6.441) translate(-1855.324 -677.61)"/>
            <path d="M2111.29 688.536l-5.908-10.9-.008-.021h-3.593v17.808h2.96V683.11s.781 1.387 1.008 1.768l5.924 10.52.016.021h3.593V677.61h-2.968v12.835s-.848-1.587-1.024-1.909z" transform="translate(-52.327 -4.441) translate(54.327 6.441) translate(-1993.114 -677.61)"/>
            <path d="M2241.583 713.135a4.941 4.941 0 0 0-1.855-1.1 7.25 7.25 0 0 0-2.327-.362 7.6 7.6 0 0 0-2.378.362 5.218 5.218 0 0 0-1.921 1.125 5.34 5.34 0 0 0-1.3 1.938 7.5 7.5 0 0 0-.473 2.789v1.369a7.477 7.477 0 0 0 .523 2.981 5.048 5.048 0 0 0 1.378 1.913 5.187 5.187 0 0 0 1.948 1.016 8.377 8.377 0 0 0 2.245.3 11.389 11.389 0 0 0 3.179-.386 8.365 8.365 0 0 0 2.269-1.038l.031-.022-1.289-2.254-.035.021a8.488 8.488 0 0 1-1.909.824 7.852 7.852 0 0 1-2.081.251 3.338 3.338 0 0 1-2.394-.793 3.11 3.11 0 0 1-.828-2.319h8.856v-2.226a6.847 6.847 0 0 0-.437-2.549 5.031 5.031 0 0 0-1.202-1.84zm-4.229 1.115a3.7 3.7 0 0 1 1.332.214 2.58 2.58 0 0 1 .894.566 2.145 2.145 0 0 1 .511.824 3.362 3.362 0 0 1 .148 1v.536h-5.869v-.463a2.649 2.649 0 0 1 .746-1.894 2.969 2.969 0 0 1 2.238-.783z" transform="translate(-52.327 -4.441) translate(54.327 6.441) translate(-2106.678 -707.465)"/>
            <path d="M2344.314 692.553a4.988 4.988 0 0 1-.961.3 4.842 4.842 0 0 1-.9.084 1.511 1.511 0 0 1-.921-.256 1.324 1.324 0 0 1-.328-1.072v-6.924h3.335V682.1h-3.335v-4.49l-3.112 1.106v3.384h-2.109v2.58h2.109v6.947a6.643 6.643 0 0 0 .2 1.681 2.942 2.942 0 0 0 .66 1.253 2.892 2.892 0 0 0 1.242.78 5.949 5.949 0 0 0 1.906.267 6.556 6.556 0 0 0 1.609-.183 6.743 6.743 0 0 0 1.125-.374l.027-.014-.492-2.506z" transform="translate(-52.327 -4.441) translate(54.327 6.441) translate(-2198.42 -677.61)"/>
            <path d="M2424.3 724.259h-.027L2422 714.036V714h-2.921l-2.4 10.255h-.031l-1.937-10.222-.011-.033h-3.327l3.3 13.283.008.031h3.6l2.183-9.317h.031l2.159 9.317h3.6l3.272-13.264.012-.051h-3.112z" transform="translate(-52.327 -4.441) translate(54.327 6.441) translate(-2264.502 -709.51)"/>
            <path d="M2576.684 713.267a5.414 5.414 0 0 0-1.972-1.186 8.2 8.2 0 0 0-5.127 0 5.583 5.583 0 0 0-1.96 1.186 5.268 5.268 0 0 0-1.253 1.912 7.031 7.031 0 0 0-.449 2.608v1.562a7.049 7.049 0 0 0 .449 2.6 5.246 5.246 0 0 0 1.253 1.925 5.563 5.563 0 0 0 1.96 1.186 8.21 8.21 0 0 0 5.131 0 5.457 5.457 0 0 0 1.968-1.186 5.308 5.308 0 0 0 1.261-1.925 7.219 7.219 0 0 0 .445-2.6v-1.562a7.2 7.2 0 0 0-.445-2.608 5.332 5.332 0 0 0-1.261-1.912zm-3.288 9.284a4.118 4.118 0 0 1-2.476 0 2.527 2.527 0 0 1-.98-.59 2.805 2.805 0 0 1-.648-1.065 4.714 4.714 0 0 1-.238-1.6v-1.464a3.526 3.526 0 0 1 .84-2.66 3.674 3.674 0 0 1 4.53 0 3.558 3.558 0 0 1 .84 2.66v1.468a4.826 4.826 0 0 1-.238 1.6 2.811 2.811 0 0 1-.652 1.065 2.57 2.57 0 0 1-.974.586z" transform="translate(-52.327 -4.441) translate(54.327 6.441) translate(-2399.982 -707.465)"/>
            <path d="M2693.646 711.742a7.162 7.162 0 0 0-1.015-.072 4.054 4.054 0 0 0-2.315.607 4.43 4.43 0 0 0-1.386 1.569v-1.889h-2.987v13.315h3.108v-7.892a3.009 3.009 0 0 1 .227-1.174 2.882 2.882 0 0 1 .613-.924 2.729 2.729 0 0 1 .926-.6 3.052 3.052 0 0 1 1.144-.213 5.328 5.328 0 0 1 .953.071 3.512 3.512 0 0 1 .715.213l.043.02.886-2.82-.035-.014a5.167 5.167 0 0 0-.877-.197z" transform="translate(-52.327 -4.441) translate(54.327 6.441) translate(-2505.193 -707.465)"/>
            <path d="M2774.771 687.624l5.182-5.521h-3.932l-4.885 5.528V677.61h-3.108v17.808h3.108v-3.964l1.468-1.629 3.569 5.574.016.019h3.959z" transform="translate(-52.327 -4.441) translate(54.327 6.441) translate(-2577.148 -677.61)"/>
        </g>
    </g>
</svg>
