<svg xmlns="http://www.w3.org/2000/svg" width="15" height="15" viewBox="0 0 15 15">
    <g>
        <g fill="#fff" stroke="#c6d2d9" transform="translate(-368.405 -1083.272) translate(368.405 1083.272)">
            <circle cx="7.5" cy="7.5" r="7.5" stroke="none"/>
            <circle cx="7.5" cy="7.5" r="7" fill="none"/>
        </g>
        <path fill="#246fed" d="M380.292 1088.575l-4.5 4.5-1.247 1.247-1.244-1.244-1.78-1.78a.387.387 0 0 1 0-.547l.7-.7a.387.387 0 0 1 .547 0l1.506 1.507a.387.387 0 0 0 .547 0l4.229-4.23a.387.387 0 0 1 .547 0l.7.7a.386.386 0 0 1-.005.547z" transform="translate(-368.405 -1083.272)"/>
    </g>
</svg>
