<svg xmlns="http://www.w3.org/2000/svg" width="260" height="85" viewBox="0 0 260 85">
    <g>
        <g>
            <path d="M643.236 111.446l.011-.006-.013-.006v.014m.713 6.4l.083.08a5.978 5.978 0 0 0-4.091.45 1.848 1.848 0 0 0-.043-1.968 3.257 3.257 0 0 0-.772-.8 6.506 6.506 0 0 0 4.568-.557 1.9 1.9 0 0 0 .255 2.793m1.468 8.2c-.032.008-.032.008-.25-.054a5.089 5.089 0 0 0-1.748-.211 4.526 4.526 0 0 0-2.105.693 1.309 1.309 0 0 1-.357.153A2.256 2.256 0 0 0 641.2 124a3.862 3.862 0 0 0-.433-.632 5.79 5.79 0 0 0 4.065-.495 2.544 2.544 0 0 0 .648 3.147l-.062.022m-4.455.589l-.021.014.013-.016h.008M656.4 130.7a3.292 3.292 0 0 0 1.233-.97c.062-.085 1.506-2.106-1.2-3.961a4.493 4.493 0 0 0-2.244-.637 19.547 19.547 0 0 0-2.392.6c.949-1.719.419-2.413-.543-3.672 2.736 1.111 4.26.321 4.925-.247 1.924-1.645-.213-4.454-3.412-4.486-2.5-.026-4.575 1.925-2.3 4.283a5.224 5.224 0 0 0-4.361.08 2.3 2.3 0 0 0-.559-2.971 6.024 6.024 0 0 0 3.834-.2 4.449 4.449 0 0 0 1.022-.7c.526-.437 1.161-1.417-.473-3.075 1.285.316 3.228.795 4.645-.177 1.513-1.034.589-2.793-1.831-3.482-.447-.128-2.753-.7-4.224.574-.533.463-.533.463.532 2.625-1.709-.648-2.7-.413-4.506.013.72-1.342.127-1.813-.947-2.667v-.008a17.093 17.093 0 0 0-2.57-.437c-1.6.041-5.624 1.384-2.893 4.041-1.277-.057-4.67-.206-5.538 2.236-.6 1.671 1.763 4.173 6.051 2.2a2.335 2.335 0 0 0 .506 2.86 5 5 0 0 0-4.361 1.13c.686-1.218.876-2.181-.3-3.22a6.343 6.343 0 0 0-1-.471c-1.4-.592-4.858.284-5.422 2.655-.486 2.039 2.584 4.155 6.185 1.594-.732 1.6-.672 1.684.874 3.712-6.578-.646-5.479 3.776-5.428 3.964a2.524 2.524 0 0 0 1.132 1.337 4.321 4.321 0 0 0 5.03-.975 3.042 3.042 0 0 0 .793-2.2c-.041-.8-.8-1.226-1.008-1.939a4.975 4.975 0 0 0 4.664-.705c-1.736 3.495 2.175 4.42 2.215 4.43 2.513.565 6.677-1.435 3.982-5.143a4.893 4.893 0 0 0 4.815-.555l.147.034a4.561 4.561 0 0 0-.454.8c-1 2.556 2.522 5.008 5.387 3.747" transform="translate(-600.388 -104.335) translate(600.388 104.335) translate(-584.022 -100.461)"/>
            <path d="M632.439 116.384c1.014-.523 2.5-1.781 1.618-3.182-1.806-2.078-6.588-.356-6.892 1.878a1.491 1.491 0 0 0 .275 1.069c1.24 1.412 3.724.9 5 .239" transform="translate(-600.388 -104.335) translate(600.388 104.335) translate(-584.536 -99.612)"/>
            <path d="M638.377 112.636v-.008l-.016.008h.019m-.366-.176v-.006H638l.013.006m4.255.322a4.96 4.96 0 0 0 .5-.164c1.876-.74 1.812-2.255-.127-3.056-2.611-1.079-6.546-.061-5.653 1.944a2 2 0 0 0 .769.734c.158.081.217.118.255.214.272.022.334.075.365.174a.326.326 0 0 1 .3.038 6.567 6.567 0 0 0 3.588.116" transform="translate(-600.388 -104.335) translate(600.388 104.335) translate(-578.786 -101.481)"/>
            <path d="M635.381 113.471c2.2-.9 2.642-2.587.884-3.33-2.6-1.1-6.895.673-6.215 2.564a1.825 1.825 0 0 0 .212.365c1.185 1.245 3.707.983 5.119.4" transform="translate(-600.388 -104.335) translate(600.388 104.335) translate(-582.86 -101.078)"/>
            <path d="M649.57 117.5c2.139-.413 2.411-2.3.518-3.6-2.414-1.663-5.89-1.048-5.637 1a2.041 2.041 0 0 0 .263.734 5.061 5.061 0 0 0 4.857 1.875" transform="translate(-600.388 -104.335) translate(600.388 104.335) translate(-574.295 -99.209)"/>
            <path d="M650.532 122.626c2.177-.7 2.379-3.405-.331-4.725-2.9-1.412-5.406.251-4.791 2.362a3.019 3.019 0 0 0 .173.442 4.467 4.467 0 0 0 4.949 1.921" transform="translate(-600.388 -104.335) translate(600.388 104.335) translate(-573.775 -96.565)"/>
            <path d="M630.376 124.724c.912-.551 2.417-2.057 1.581-3.822-1.6-2.421-5.9-.8-6.489 1.779a2.127 2.127 0 0 0 .194 1.551c1.094 1.631 3.411 1.265 4.707.484" transform="translate(-600.388 -104.335) translate(600.388 104.335) translate(-585.573 -95.178)"/>
            <path d="M629.564 119.613c2.3-1.4 2.424-3.777.22-4.307-2.839-.685-6.245 2.164-4.994 4.173 1.119 1.395 3.457.9 4.761.113" transform="translate(-600.388 -104.335) translate(600.388 104.335) translate(-586.091 -97.861)"/>
            <path d="M644.732 128.53c2.7-1.19 2.513-4.522-.309-5.571-2.729-1.015-5.925 1.015-4.838 3.862a3.98 3.98 0 0 0 5.146 1.709" transform="translate(-600.388 -104.335) translate(600.388 104.335) translate(-577.299 -93.397)"/>
            <path d="M637.8 129.191a3.113 3.113 0 0 0 1.734-3.945c-1.586-2.941-6.118-1.864-6.817.879a2.637 2.637 0 0 0 .162 1.784c1.1 2.035 3.543 1.988 4.931 1.3" transform="translate(-600.388 -104.335) translate(600.388 104.335) translate(-581.293 -92.935)"/>
            <path d="M638.408 110.9c1.8-.559 2.612-1.786 1-2.588-2.341-1.17-6.914.072-6.271 1.7a1.532 1.532 0 0 0 .2.308c1.2 1.115 3.69 1.012 5.075.579" transform="translate(-600.388 -104.335) translate(600.388 104.335) translate(-581.025 -102.243)"/>
            <path d="M626.726 122.963c2.161-1.508 2.244-3.943.148-4.419-2.369-.536-5.775 2.217-4.6 4.417 1.127 1.474 3.326.784 4.447 0" transform="translate(-600.388 -104.335) translate(600.388 104.335) translate(-587.564 -95.91)"/>
            <path d="M653 120.092c.877-.182 2.2-.793 1.21-2.85-1.232-1.921-5.4-2.638-6.01-.557a1.863 1.863 0 0 0 .189 1.353 4.554 4.554 0 0 0 4.611 2.054" transform="translate(-600.388 -104.335) translate(600.388 104.335) translate(-572.108 -97.739)"/>
            <path d="M641.028 131.856a3.028 3.028 0 0 0 2.107-3.977 3.689 3.689 0 0 0-6.6.206 2.863 2.863 0 0 0 .03 2.138 3.588 3.588 0 0 0 4.465 1.644" transform="translate(-600.388 -104.335) translate(600.388 104.335) translate(-579.092 -91.471)"/>
            <path d="M628.593 114.941c1.951-1.16 2.258-2.844.608-3.335-2.492-.744-6.4 1.787-5.366 3.472a1.968 1.968 0 0 0 .118.158c1.161 1.1 3.462.4 4.64-.3" transform="translate(-600.388 -104.335) translate(600.388 104.335) translate(-586.601 -100.083)"/>
            <path d="M648.631 112.985c1.8-.2 2.239-1.342.914-2.394-2.065-1.637-6.178-1.5-5.866.2a1.6 1.6 0 0 0 .25.549 5.752 5.752 0 0 0 4.7 1.637" transform="translate(-600.388 -104.335) translate(600.388 104.335) translate(-574.754 -101.295)"/>
            <path d="M651.01 128.2c2.446-.825 2.342-3.937-.174-5.2-2.541-1.278-5.307.482-4.554 2.9.029.091.078.209.111.3a3.85 3.85 0 0 0 4.616 2.006" transform="translate(-600.388 -104.335) translate(600.388 104.335) translate(-573.277 -93.47)"/>
            <path d="M631.03 130.14c2.471-1.47 2.33-4.609-.234-5.167-2.42-.527-5.293 1.925-4.279 4.39 1.072 1.885 3.337 1.476 4.513.777" transform="translate(-600.388 -104.335) translate(600.388 104.335) translate(-585.034 -92.082)"/>
            <path d="M653.8 125.4c2.331-.732 1.8-3.6-.326-4.783-2.3-1.28-5.169-.085-4.314 2.432.033.1.091.227.131.324a4 4 0 0 0 4.51 2.027" transform="translate(-600.388 -104.335) translate(600.388 104.335) translate(-571.59 -94.945)"/>
            <path d="M644.9 110.746c.939-.132 2.32-.645 1.529-1.733-1.76-1.854-6.5-1.6-6.546-.137a.962.962 0 0 0 .253.626c1.107 1.165 3.454 1.431 4.766 1.248" transform="translate(-600.388 -104.335) translate(600.388 104.335) translate(-576.997 -102.335)"/>
            <path d="M631.41 112.041c.957-.455 2.357-1.487 1.535-2.48-1.772-1.494-6.568.357-6.554 2a.875.875 0 0 0 .266.611c1.175.989 3.54.442 4.755-.134" transform="translate(-600.388 -104.335) translate(600.388 104.335) translate(-584.989 -101.552)"/>
            <path d="M625.834 118.211c1.955-1.369 2.14-3.359.344-3.734-2.454-.511-5.809 2.231-4.852 3.966.03.053.078.118.113.169 1.051 1.1 3.2.426 4.39-.407" transform="translate(-600.388 -104.335) translate(600.388 104.335) translate(-588.084 -98.33)"/>
            <path d="M652.052 115.469c.868-.077 2.132-.571 1.371-1.952-1.61-2.295-5.78-2.611-6.091-.956a1.466 1.466 0 0 0 .237.962 5.4 5.4 0 0 0 4.481 1.945" transform="translate(-600.388 -104.335) translate(600.388 104.335) translate(-572.592 -100.059)"/>
            <path d="M627.486 128.141c2.248-1.51 2.237-4.3-.019-4.814-2.166-.495-5.476 1.888-4.318 4.416.9 1.656 3.119 1.218 4.338.4" transform="translate(-600.388 -104.335) translate(600.388 104.335) translate(-587.047 -93.059)"/>
            <path d="M634.7 132.394c2.666-1.5 2.14-4.649-.24-5.341-2.489-.723-5.408 1.557-4.417 4.219a3.279 3.279 0 0 0 4.658 1.122" transform="translate(-600.388 -104.335) translate(600.388 104.335) translate(-582.937 -90.881)"/>
            <path d="M648.168 131.269c2.721-1.138 2.247-4.363-.156-5.454-2.532-1.152-5.623.748-4.623 3.618a3.713 3.713 0 0 0 4.779 1.837" transform="translate(-600.388 -104.335) translate(600.388 104.335) translate(-575.03 -91.741)"/>
            <path d="M634.289 109.487c1.634-.568 2.552-1.534 1.266-2.167-1.951-.961-6.823.52-6.207 1.885a1.012 1.012 0 0 0 .182.238c1.154.846 3.479.49 4.76.045" transform="translate(-600.388 -104.335) translate(600.388 104.335) translate(-583.265 -102.74)"/>
            <path d="M641.179 108.864c1.642-.3 2.221-1.026 1.349-1.69-1.656-1.259-6.591-.857-6.361.519a.871.871 0 0 0 .24.405c1.151.985 3.538.993 4.772.766" transform="translate(-600.388 -104.335) translate(600.388 104.335) translate(-579.199 -103.095)"/>
            <path d="M656.268 122.9c1.986-.456 1.812-2.847-.3-4.125-2.221-1.345-4.61-.515-4.124 1.433a4.4 4.4 0 0 0 .2.541 4.164 4.164 0 0 0 4.223 2.151" transform="translate(-600.388 -104.335) translate(600.388 104.335) translate(-569.945 -96.123)"/>
            <path d="M623.081 121.681c1.943-1.551 1.992-3.718.086-3.93-2.2-.244-5.3 2.54-4.166 4.382.807 1.087 2.745.611 4.08-.452" transform="translate(-600.388 -104.335) translate(600.388 104.335) translate(-589.506 -96.351)"/>
            <path d="M623.944 126.5c2.279-1.725 1.914-4.186-.035-4.427-2.181-.27-5.021 2.44-4 4.46l.016.027c.881 1.269 2.726.914 4.016-.064" transform="translate(-600.388 -104.335) translate(600.388 104.335) translate(-588.952 -93.779)"/>
            <path d="M655.413 118.063c1.892-.206 1.568-1.932.361-2.908-2.127-1.719-5.177-1.586-4.869.212a2.3 2.3 0 0 0 .234.626 4.848 4.848 0 0 0 4.274 2.07" transform="translate(-600.388 -104.335) translate(600.388 104.335) translate(-570.477 -98.613)"/>
            <path d="M638.034 135.1c2.412-1.044 2.682-4.353.436-5.368-2.589-1.167-5.85.927-4.817 3.894.688 1.687 2.86 2.13 4.38 1.475" transform="translate(-600.388 -104.335) translate(600.388 104.335) translate(-580.8 -89.399)"/>
            <path d="M644.813 134.535a2.952 2.952 0 0 0 .213-5.549c-2.677-1.125-5.7.742-4.68 3.784a3.49 3.49 0 0 0 4.466 1.765" transform="translate(-600.388 -104.335) translate(600.388 104.335) translate(-576.839 -89.845)"/>
            <path d="M624.676 114.124c.841-.565 2.065-1.747 1.312-2.6-1.037-.788-2.884.034-3.425.3-1.527.763-2.381 1.92-2.3 2.553.027.206.033.212.374.541.833.622 2.745.072 4.04-.8" transform="translate(-600.388 -104.335) translate(600.388 104.335) translate(-588.619 -100.251)"/>
            <path d="M651.038 111.512c.027 0 2.632-.019 1.1-1.557-1.318-1.32-5.452-2.1-5.58-.76a.882.882 0 0 0 .223.589 6.66 6.66 0 0 0 4.261 1.728" transform="translate(-600.388 -104.335) translate(600.388 104.335) translate(-573.043 -101.855)"/>
            <path d="M627.482 111.146c1.452-.785 2.288-1.9 1.1-2.323-1.817-.654-6.218 1.481-5.605 2.721a1.022 1.022 0 0 0 .2.233c.712.535 2.683.246 4.3-.63" transform="translate(-600.388 -104.335) translate(600.388 104.335) translate(-587.039 -101.734)"/>
            <path d="M622.079 117.361c1.809-1.443 1.927-3.12.228-3.263-1.834-.155-5.422 2.534-4.172 4.093 1.006.9 2.911 0 3.944-.83" transform="translate(-600.388 -104.335) translate(600.388 104.335) translate(-590.028 -98.523)"/>
            <path d="M647.544 109.319c1.2-.024 2.029-.495 1.352-1.159-1.554-1.524-5.906-1.77-6-.694a.688.688 0 0 0 .224.493c.809.849 2.941 1.388 4.425 1.36" transform="translate(-600.388 -104.335) translate(600.388 104.335) translate(-575.21 -102.862)"/>
            <path d="M654.4 113.95c1.334.043 1.983-.686.818-1.84-1.618-1.6-5.137-2.156-5.159-.812a1.291 1.291 0 0 0 .256.688 5.926 5.926 0 0 0 4.084 1.964" transform="translate(-600.388 -104.335) translate(600.388 104.335) translate(-570.963 -100.638)"/>
            <path d="M627.968 133.472c2.188-1.256 2.268-4.136.132-4.816-2.03-.648-5.21 1.522-4.178 4.149.346.739 1.841 1.931 4.046.667" transform="translate(-600.388 -104.335) translate(600.388 104.335) translate(-586.567 -89.914)"/>
            <path d="M656.9 128.2c1.866-.6 1.9-3.477-.467-4.72s-4.285.405-3.69 2.384c.026.083.069.191.1.274a3.527 3.527 0 0 0 4.057 2.062" transform="translate(-600.388 -104.335) translate(600.388 104.335) translate(-569.438 -93.189)"/>
            <path d="M624.6 131.58c.815-.579 2.019-1.979 1.354-3.551-1.417-2.408-4.914-.482-5.4 1.778a2.283 2.283 0 0 0 .172 1.51c.917 1.556 2.869.993 3.884.273" transform="translate(-600.388 -104.335) translate(600.388 104.335) translate(-588.481 -90.889)"/>
            <path d="M654.315 131.065c2.051-.779 2.2-3.841-.323-5.075-2.462-1.2-4.745.6-3.877 3.058l.016.042a3.486 3.486 0 0 0 4.185 1.976" transform="translate(-600.388 -104.335) translate(600.388 104.335) translate(-571.044 -91.661)"/>
            <path d="M637.2 107.468c.946-.215 2.527-.862 1.384-1.482-1.538-.835-6.423-.067-6.151.967a.764.764 0 0 0 .266.326c.976.606 3.263.472 4.5.19" transform="translate(-600.388 -104.335) translate(600.388 104.335) translate(-581.411 -103.563)"/>
            <path d="M631.534 135.727c2.3-1.293 2.283-4.414-.03-5.06-2.185-.61-5.164 1.326-4.17 4.063.9 1.79 2.994 1.648 4.191.977" transform="translate(-600.388 -104.335) translate(600.388 104.335) translate(-584.543 -88.714)"/>
            <path d="M651.469 134.121a2.91 2.91 0 0 0-.462-5.435c-1.888-.712-4.868.487-3.861 3.562a3.4 3.4 0 0 0 4.323 1.873" transform="translate(-600.388 -104.335) translate(600.388 104.335) translate(-572.81 -89.946)"/>
            <path d="M658.484 120.811c1.691-.191 1.648-1.929-.08-3.263-2.092-1.617-4.258-1.114-4.038.424a2.359 2.359 0 0 0 .21.63 4.2 4.2 0 0 0 3.908 2.209" transform="translate(-600.388 -104.335) translate(600.388 104.335) translate(-568.423 -97.056)"/>
            <path d="M620.475 125.265c.752-.667 1.838-2.129 1.14-3.372-1.306-1.62-4.834.431-5.035 2.923a1.624 1.624 0 0 0 .215 1.015c.876 1.092 2.682.33 3.685-.559" transform="translate(-600.388 -104.335) translate(600.388 104.335) translate(-590.803 -94.223)"/>
            <path d="M641.679 137.787a2.943 2.943 0 0 0-.018-5.482c-2.15-.859-5.277.867-4.373 3.763a3.173 3.173 0 0 0 4.39 1.719" transform="translate(-600.388 -104.335) translate(600.388 104.335) translate(-578.625 -87.802)"/>
            <path d="M643.88 107.459c1.347-.083 2-.519 1.479-.991-1.132-1.032-6.092-1.257-6.1-.276 0 .15.108.255.226.367a8.232 8.232 0 0 0 4.395.9" transform="translate(-600.388 -104.335) translate(600.388 104.335) translate(-577.363 -103.603)"/>
            <path d="M630.294 108.652c1.562-.627 2.248-1.457 1.468-1.779-1.482-.611-6.245.981-5.994 2a.484.484 0 0 0 .209.251c1.357.7 4.288-.464 4.317-.476" transform="translate(-600.388 -104.335) translate(600.388 104.335) translate(-585.359 -102.904)"/>
            <path d="M619.512 120.928c1.976-1.741 1.756-3.456.142-3.517-1.8-.067-4.753 2.943-3.748 4.345.57.635 2.029.56 3.607-.828" transform="translate(-600.388 -104.335) translate(600.388 104.335) translate(-591.316 -96.546)"/>
            <path d="M657.471 116.53c1.834.152 1.546-1.076.984-1.767a6.473 6.473 0 0 0-2.87-1.715c-.634-.132-2.026-.142-2.04.689a1.345 1.345 0 0 0 .217.659 5.144 5.144 0 0 0 3.709 2.134" transform="translate(-600.388 -104.335) translate(600.388 104.335) translate(-568.9 -99.184)"/>
            <path d="M659.21 125.67c1.764-.369 1.565-2.823-.326-4.041-1.952-1.256-4.019-.477-3.626 1.366a3.939 3.939 0 0 0 .172.523 3.528 3.528 0 0 0 3.78 2.151" transform="translate(-600.388 -104.335) translate(600.388 104.335) translate(-567.914 -94.397)"/>
            <path d="M621.245 130.031c1.96-1.695 1.661-4.036-.008-4.226-1.845-.209-4.63 2.285-3.618 4.428.567.989 2.363.889 3.626-.2" transform="translate(-600.388 -104.335) translate(600.388 104.335) translate(-590.309 -91.55)"/>
            <path d="M634.9 138.267a3.3 3.3 0 0 0 1.776-2.614 2.681 2.681 0 0 0-1.683-2.561c-2.3-.851-5.1 1.179-4.251 3.817a3.033 3.033 0 0 0 4.159 1.358" transform="translate(-600.388 -104.335) translate(600.388 104.335) translate(-582.502 -87.319)"/>
            <path d="M648.354 137.42a2.95 2.95 0 0 0-.123-5.513c-2.352-.9-5.008.91-4.188 3.672a3.336 3.336 0 0 0 4.31 1.842" transform="translate(-600.388 -104.335) translate(600.388 104.335) translate(-574.619 -88.048)"/>
            <path d="M633.372 106.642c1.433-.4 2.027-.819 1.591-1.123-.032-.022-.08-.045-.113-.064-1.349-.456-6.245.677-5.955 1.377a.372.372 0 0 0 .167.145c.787.351 2.764.1 4.312-.335" transform="translate(-600.388 -104.335) translate(600.388 104.335) translate(-583.51 -103.731)"/>
            <path d="M653.493 110.677c1.205.185 1.672-.081 1.213-.7-.893-1.2-5.078-2.465-5.33-1.61-.049.168.1.386.228.541a7.476 7.476 0 0 0 3.889 1.765" transform="translate(-600.388 -104.335) translate(600.388 104.335) translate(-571.375 -102.098)"/>
            <path d="M640.115 106.057c1.414-.132 2.021-.431 1.583-.779-.033-.027-.084-.056-.119-.08-1.373-.627-6.048-.407-5.885.278.018.077.124.148.2.2a9.693 9.693 0 0 0 4.221.381" transform="translate(-600.388 -104.335) translate(600.388 104.335) translate(-579.478 -104.042)"/>
            <path d="M620.947 113.849c2.07-1.534 1.49-2.338 1.056-2.442-1.532-.369-5.382 2.344-4.846 3.417a.572.572 0 0 0 .142.155c.576.356 1.928.144 3.648-1.13" transform="translate(-600.388 -104.335) translate(600.388 104.335) translate(-590.485 -100.142)"/>
            <path d="M660.472 119.236c1.3.029 1.514-1.029.432-2.178-1.5-1.586-4.057-2.054-4.092-.747a1.632 1.632 0 0 0 .22.755 4.863 4.863 0 0 0 3.441 2.17" transform="translate(-600.388 -104.335) translate(600.388 104.335) translate(-566.966 -97.652)"/>
            <path d="M661.243 123.551c1.532-.212 1.467-2.055-.115-3.289-1.874-1.46-3.659-.978-3.5.463a2.63 2.63 0 0 0 .207.694 3.843 3.843 0 0 0 3.411 2.132" transform="translate(-600.388 -104.335) translate(600.388 104.335) translate(-566.489 -95.373)"/>
            <path d="M617.249 124.444c1.677-1.8 1.229-3.488.021-3.444-1.815.069-4.315 2.978-3.35 4.484.516.645 2.049.337 3.33-1.04" transform="translate(-600.388 -104.335) translate(600.388 104.335) translate(-592.499 -94.407)"/>
            <path d="M618.076 128.852c1.68-1.708 1.376-3.806-.113-3.766-1.834.048-4.108 2.758-3.232 4.443.5.779 2.037.654 3.345-.677" transform="translate(-600.388 -104.335) translate(600.388 104.335) translate(-592.007 -91.972)"/>
            <path d="M657.334 133.94a2.4 2.4 0 0 0 1.377-2.421 3.126 3.126 0 0 0-1.888-2.58c-1.807-.758-4.061.361-3.223 3.067a3.074 3.074 0 0 0 3.734 1.934" transform="translate(-600.388 -104.335) translate(600.388 104.335) translate(-568.975 -89.815)"/>
            <path d="M638.289 140.981c2.167-1.039 2.5-4.325-.056-5.2a2.92 2.92 0 1 0 .056 5.2" transform="translate(-600.388 -104.335) translate(600.388 104.335) translate(-580.432 -85.713)"/>
            <path d="M645.1 140.64a2.889 2.889 0 0 0-.078-5.344 3.012 3.012 0 0 0-4.121 3.6 3.134 3.134 0 0 0 4.2 1.749" transform="translate(-600.388 -104.335) translate(600.388 104.335) translate(-576.464 -86.029)"/>
            <path d="M625.08 136.767a3.32 3.32 0 0 0 1.473-2.5 1.911 1.911 0 0 0-1.506-1.964c-2.2-.46-4.4 1.873-3.669 3.9.543 1.213 2.341 1.484 3.7.559" transform="translate(-600.388 -104.335) translate(600.388 104.335) translate(-588.039 -87.705)"/>
            <path d="M623.708 110.851c.2-.129 1.957-1.28 1.18-1.79-.9-.721-5.449 1.663-5.239 2.742a.367.367 0 0 0 .186.227c.538.26 2.35-.2 3.879-1.174" transform="translate(-600.388 -104.335) translate(600.388 104.335) translate(-588.987 -101.601)"/>
            <path d="M656.7 113.052c.857.134 1.607-.04.9-.972-1.048-1.385-4.812-2.582-4.852-1.545a.921.921 0 0 0 .213.519 6.971 6.971 0 0 0 3.737 2" transform="translate(-600.388 -104.335) translate(600.388 104.335) translate(-569.37 -100.874)"/>
            <path d="M650.2 108.526c1.134.116 1.626-.094 1.253-.535-.027-.032-.067-.069-.1-.1-.844-1-5.3-1.953-5.422-1.163-.019.131.089.246.205.369a8.983 8.983 0 0 0 4.064 1.433" transform="translate(-600.388 -104.335) translate(600.388 104.335) translate(-573.415 -103.086)"/>
            <path d="M618.65 116.942c1.662-1.583 1.2-2.639.411-2.663-1.833-.056-4.863 2.885-4.054 3.935a.912.912 0 0 0 .1.1c.537.416 2.2-.091 3.548-1.369" transform="translate(-600.388 -104.335) translate(600.388 104.335) translate(-591.808 -98.411)"/>
            <path d="M654.643 137.035c2.228-.929 1.959-4.38-.409-5.274-1.672-.63-4.341.4-3.462 3.4a2.979 2.979 0 0 0 3.871 1.878" transform="translate(-600.388 -104.335) translate(600.388 104.335) translate(-570.645 -88.101)"/>
            <path d="M621.881 134.965c1.032-.78 1.739-2.37 1.142-3.329-1.244-2.212-4.361.059-4.768 1.8a2.121 2.121 0 0 0 .146 1.42c.645 1.326 2.443.93 3.492.137" transform="translate(-600.388 -104.335) translate(600.388 104.335) translate(-589.849 -88.629)"/>
            <path d="M659.764 131.085c1.932-.651 1.556-3.643-.583-4.642-1.516-.709-3.852-.046-2.943 2.679a3.023 3.023 0 0 0 3.525 1.963" transform="translate(-600.388 -104.335) translate(600.388 104.335) translate(-567.426 -91.321)"/>
            <path d="M628.29 138.977c2.049-1.128 2.142-4.031.15-4.7-1.693-.573-4.79 1.1-3.877 3.785.841 1.784 2.876 1.39 3.728.919" transform="translate(-600.388 -104.335) translate(600.388 104.335) translate(-586.166 -86.565)"/>
            <path d="M646.568 106.668c1.328.1 1.635-.11 1.5-.318-.486-.715-5.611-1.54-5.713-.919-.014.085.078.156.175.233a10.279 10.279 0 0 0 4.043 1" transform="translate(-600.388 -104.335) translate(600.388 104.335) translate(-575.533 -103.812)"/>
            <path d="M659.6 115.589c1.269.252 1.349-.375 1-.9-1-1.5-4.366-2.885-4.562-1.867a1.078 1.078 0 0 0 .207.665 6.184 6.184 0 0 0 3.355 2.1" transform="translate(-600.388 -104.335) translate(600.388 104.335) translate(-567.428 -99.489)"/>
            <path d="M626.517 108.427c1.276-.614 1.873-1.192 1.419-1.372-1-.4-5.758 1.532-5.538 2.245.022.069.1.105.159.132.737.238 2.551-.326 3.96-1.005" transform="translate(-600.388 -104.335) translate(600.388 104.335) translate(-587.355 -102.746)"/>
            <path d="M616.266 120.581c1.459-1.53 1.428-3.006.342-2.991-1.683.026-4.565 3.085-3.543 4.275 1.127.852 3.11-1.2 3.193-1.293" transform="translate(-600.388 -104.335) translate(600.388 104.335) translate(-593.005 -96.438)"/>
            <path d="M661.9 128.476c1.7-.424 1.412-2.909-.462-4.029-1.675-1-3.3-.15-2.955 1.542a3.909 3.909 0 0 0 .134.442 3.028 3.028 0 0 0 3.283 2.046" transform="translate(-600.388 -104.335) translate(600.388 104.335) translate(-566.004 -92.608)"/>
            <path d="M618.62 133.561c1.712-1.514 1.685-3.868-.043-3.935-1.868-.072-3.925 2.659-3.145 4.175.651 1.039 2.134.694 3.188-.239" transform="translate(-600.388 -104.335) translate(600.388 104.335) translate(-591.577 -89.268)"/>
            <path d="M631.611 141.419c2.194-1.012 2.33-3.982.22-4.816-1.863-.736-4.852 1.066-3.954 3.57a2.67 2.67 0 0 0 3.734 1.246" transform="translate(-600.388 -104.335) translate(600.388 104.335) translate(-584.202 -85.209)"/>
            <path d="M651.6 140.347a2.91 2.91 0 0 0-.022-5.319 2.845 2.845 0 0 0-3.852 3.445 2.907 2.907 0 0 0 3.871 1.865" transform="translate(-600.388 -104.335) translate(600.388 104.335) translate(-572.426 -86.163)"/>
            <path d="M636.347 105.258c.82-.126 1.928-.377 1.619-.554-.693-.4-5.693.107-5.817.586.032.054.054.065.175.112a14.262 14.262 0 0 0 4.022-.144" transform="translate(-600.388 -104.335) translate(600.388 104.335) translate(-581.574 -104.2)"/>
            <path d="M663.156 121.932c1.186.022 1.3-1.122.221-2.312-1.312-1.452-3.543-1.822-3.511-.581a2.168 2.168 0 0 0 .242.822 4.022 4.022 0 0 0 3.048 2.071" transform="translate(-600.388 -104.335) translate(600.388 104.335) translate(-565.156 -96.022)"/>
            <path d="M615 128.235c.825-.967 1.334-2.414.782-3.027-1.25-1.451-3.861 1.73-3.931 3.225a1.425 1.425 0 0 0 .237.887c.573.788 2.088-.093 2.922-1.072" transform="translate(-600.388 -104.335) translate(600.388 104.335) translate(-593.604 -92.127)"/>
            <path d="M641.711 143.838a2.788 2.788 0 0 0 .011-5.138c-1.752-.688-4.744.52-3.946 3.49a2.8 2.8 0 0 0 3.935 1.648" transform="translate(-600.388 -104.335) translate(600.388 104.335) translate(-578.32 -83.973)"/>
            <path d="M662.351 118.195c1.043.217 1.218-.405.726-1.123-1.029-1.5-3.815-2.7-3.976-1.7a1.167 1.167 0 0 0 .183.657 5.178 5.178 0 0 0 3.067 2.17" transform="translate(-600.388 -104.335) translate(600.388 104.335) translate(-565.613 -97.979)"/>
            <path d="M642.958 105.324c1.059.032 1.7-.048 1.6-.2-.3-.437-5.516-.836-5.642-.431.025.048.045.059.146.109a16.08 16.08 0 0 0 3.895.52" transform="translate(-600.388 -104.335) translate(600.388 104.335) translate(-577.565 -104.221)"/>
            <path d="M629.535 106.516c1.341-.448 1.855-.8 1.67-.913-.575-.356-5.747 1.128-5.7 1.637 0 .049.075.067.137.085a13.539 13.539 0 0 0 3.9-.809" transform="translate(-600.388 -104.335) translate(600.388 104.335) translate(-585.512 -103.612)"/>
            <path d="M663.885 126.3c1.422-.206 1.224-2.213-.33-3.356-1.328-.977-3.037-.758-2.812.732a3.1 3.1 0 0 0 .183.624 3.007 3.007 0 0 0 2.955 1.993" transform="translate(-600.388 -104.335) translate(600.388 104.335) translate(-564.648 -93.601)"/>
            <path d="M614.055 124.307c1.384-1.676 1.236-3.168.116-3.059-1.361.131-3.946 3.144-2.979 4.395 1.021.874 2.788-1.245 2.863-1.336" transform="translate(-600.388 -104.335) translate(600.388 104.335) translate(-594.114 -94.262)"/>
            <path d="M615.642 132.542c1.536-1.605 1.352-3.527.072-3.57-1.535-.051-3.728 2.659-2.954 4.211.758 1.071 2.213.043 2.877-.65" transform="translate(-600.388 -104.335) translate(600.388 104.335) translate(-593.155 -89.657)"/>
            <path d="M648.226 143.659a2.809 2.809 0 0 0 .2-5.194 2.854 2.854 0 0 0-3.93 3.448 2.748 2.748 0 0 0 3.731 1.746" transform="translate(-600.388 -104.335) translate(600.388 104.335) translate(-574.347 -84.15)"/>
            <path d="M634.946 144.083c2.21-.967 2.14-3.894.377-4.677-1.742-.774-4.881.412-4.108 3.209a2.627 2.627 0 0 0 3.728 1.462" transform="translate(-600.388 -104.335) translate(600.388 104.335) translate(-582.199 -83.579)"/>
            <path d="M617.684 114c1.24-1.077 1.353-1.789.745-1.856-1.161-.126-4.557 2.668-4.131 3.4a.413.413 0 0 0 .142.113c.694.249 2.32-.854 3.244-1.655" transform="translate(-600.388 -104.335) translate(600.388 104.335) translate(-592.17 -99.684)"/>
            <path d="M655.772 110.428c.567.164 1.358.292 1.218-.027-.381-.867-4.736-2.724-4.854-2.071-.017.1.084.217.194.34a10.4 10.4 0 0 0 3.441 1.759" transform="translate(-600.388 -104.335) translate(600.388 104.335) translate(-569.736 -102.036)"/>
            <path d="M660.143 136.769c1.723-.822 1.573-4.06-.728-4.779-1.462-.456-3.213.632-2.543 3.016a2.551 2.551 0 0 0 3.271 1.763" transform="translate(-600.388 -104.335) translate(600.388 104.335) translate(-567.017 -87.919)"/>
            <path d="M622.118 139.943c1.774-1.163 1.831-3.637.094-4.009-1.756-.377-3.958 1.586-3.307 3.5.5 1.17 2.107 1.232 3.213.506" transform="translate(-600.388 -104.335) translate(600.388 104.335) translate(-589.489 -85.536)"/>
            <path d="M620.084 111.267c.973-.689 1.693-1.473 1.213-1.54-1.347-.188-4.954 2.488-4.627 2.946a.264.264 0 0 0 .126.07c.545.1 2.185-.694 3.288-1.476" transform="translate(-600.388 -104.335) translate(600.388 104.335) translate(-590.756 -101.128)"/>
            <path d="M652.535 108.323c.755.2 1.492.284 1.376.059-.338-.648-4.876-2.207-5.059-1.738-.026.067.065.148.162.233a12.9 12.9 0 0 0 3.521 1.446" transform="translate(-600.388 -104.335) translate(600.388 104.335) translate(-571.683 -103.011)"/>
            <path d="M658.8 112.781c.667.223 1.269.265 1.131-.086-.39-.994-4.182-2.951-4.508-2.327-.067.126.08.326.166.444a8.759 8.759 0 0 0 3.212 1.969" transform="translate(-600.388 -104.335) translate(600.388 104.335) translate(-567.8 -100.812)"/>
            <path d="M615.212 117.325c.774-.809 1.637-2.263.608-2.272-1.406-.014-4.354 3.113-3.626 3.846a.782.782 0 0 0 .081.062c.594.306 2.113-.772 2.936-1.636" transform="translate(-600.388 -104.335) translate(600.388 104.335) translate(-593.462 -97.949)"/>
            <path d="M662.5 133.835c1.588-.678 1.384-3.614-.74-4.424-1.223-.464-3.081.215-2.33 2.676a2.521 2.521 0 0 0 3.07 1.747" transform="translate(-600.388 -104.335) translate(600.388 104.335) translate(-565.52 -89.476)"/>
            <path d="M619.07 138.277c1.646-1.289 1.643-3.634 0-3.8-1.529-.156-3.747 1.822-3.027 3.7.492 1.072 1.992.914 3.029.1" transform="translate(-600.388 -104.335) translate(600.388 104.335) translate(-591.199 -86.382)"/>
            <path d="M625.241 142.045a2.854 2.854 0 0 0 1.471-2.277 1.992 1.992 0 0 0-1.3-1.9c-1.68-.53-4.218 1.111-3.513 3.334.5 1.315 2.166 1.5 3.339.844" transform="translate(-600.388 -104.335) translate(600.388 104.335) translate(-587.716 -84.417)"/>
            <path d="M657.553 139.991a2.767 2.767 0 0 0-.314-4.936c-1.645-.656-3.76.56-3.067 3.182a2.523 2.523 0 0 0 3.38 1.754" transform="translate(-600.388 -104.335) translate(600.388 104.335) translate(-568.609 -86.137)"/>
            <path d="M649.165 106.582c.417.086 1.4.274 1.473.145-.15-.359-4.876-1.578-5.161-1.331 0 .032 0 .061.154.144a19.813 19.813 0 0 0 3.533 1.042" transform="translate(-600.388 -104.335) translate(600.388 104.335) translate(-573.68 -103.722)"/>
            <path d="M622.852 108.9c1.105-.6 1.632-1.026 1.409-1.133-.513-.246-5.094 2.007-4.951 2.435.014.041.08.049.134.056a11.762 11.762 0 0 0 3.408-1.358" transform="translate(-600.388 -104.335) translate(600.388 104.335) translate(-589.181 -102.303)"/>
            <path d="M661.56 115.247c.779.3 1.137.236.981-.172-.409-1.079-3.691-3.043-4.083-2.445-.092.142.061.383.151.525a6.937 6.937 0 0 0 2.951 2.092" transform="translate(-600.388 -104.335) translate(600.388 104.335) translate(-566.007 -99.459)"/>
            <path d="M613.059 120.841c.935-1.168 1.346-2.55.452-2.518-1.215.045-4.065 3.335-3.127 4.157l.014.011c.62.314 1.944-.756 2.661-1.65" transform="translate(-600.388 -104.335) translate(600.388 104.335) translate(-594.577 -96.001)"/>
            <path d="M616.23 136.921c1.47-1.406 1.253-3.385-.014-3.458-1.481-.088-3.484 2.232-2.839 3.779.874 1.538 2.831-.306 2.85-.326" transform="translate(-600.388 -104.335) translate(600.388 104.335) translate(-592.768 -86.982)"/>
            <path d="M664.4 131.175c1.5-.383 1.287-2.8-.336-3.8-1.378-.852-2.978-.065-2.484 1.717.019.067.049.155.07.22a2.453 2.453 0 0 0 2.75 1.865" transform="translate(-600.388 -104.335) translate(600.388 104.335) translate(-564.197 -90.815)"/>
            <path d="M639.287 104.531a8.97 8.97 0 0 0 1.624-.093l-.01-.03a13.954 13.954 0 0 0-1.64-.073l-1.847.006a14.84 14.84 0 0 0-1.916.105.211.211 0 0 0 .105.043c.8.083 2.443.069 3.683.042" transform="translate(-600.388 -104.335) translate(600.388 104.335) translate(-579.59 -104.335)"/>
            <path d="M632.618 105.162a7.236 7.236 0 0 0 1.678-.415l-.016-.026a31.868 31.868 0 0 0-5.483 1.021.282.282 0 0 0 .1.019 33.808 33.808 0 0 0 3.718-.6" transform="translate(-600.388 -104.335) translate(600.388 104.335) translate(-583.559 -104.107)"/>
            <path d="M628.446 144.354c1.9-.871 2.067-3.463.271-4.2-1.833-.755-4.368 1-3.662 3.1a2.377 2.377 0 0 0 3.392 1.1" transform="translate(-600.388 -104.335) translate(600.388 104.335) translate(-585.849 -83.103)"/>
            <path d="M654.734 143.2a2.751 2.751 0 0 0-.236-4.945 2.584 2.584 0 0 0-3.279 3.27 2.494 2.494 0 0 0 3.514 1.676" transform="translate(-600.388 -104.335) translate(600.388 104.335) translate(-570.348 -84.217)"/>
            <path d="M612.076 128c1.242-1.7.8-3 .062-2.909-1.339.158-3.4 3.158-2.623 4.334.543.627 1.7-.243 2.561-1.425" transform="translate(-600.388 -104.335) translate(600.388 104.335) translate(-595.082 -91.97)"/>
            <path d="M664.9 120.832c1.07.231.846-.665.452-1.286-.793-1.249-3.07-2.434-3.3-1.474a1.132 1.132 0 0 0 .151.681 4.43 4.43 0 0 0 2.7 2.079" transform="translate(-600.388 -104.335) translate(600.388 104.335) translate(-563.868 -96.359)"/>
            <path d="M665.6 124.534c1.2.013.858-1.5-.022-2.389-1.322-1.329-2.771-1.3-2.8-.276a1.71 1.71 0 0 0 .164.691 3.262 3.262 0 0 0 2.654 1.974" transform="translate(-600.388 -104.335) translate(600.388 104.335) translate(-563.428 -94.334)"/>
            <path d="M612.8 131.976c1.3-1.647.965-3.209.035-3.148-1.361.089-3.3 2.863-2.57 4.2.492.723 1.677.032 2.535-1.052" transform="translate(-600.388 -104.335) translate(600.388 104.335) translate(-594.631 -89.744)"/>
            <path d="M644.867 146.876c2.008-.868 2.428-4 .134-4.913a2.693 2.693 0 1 0-.134 4.913" transform="translate(-600.388 -104.335) translate(600.388 104.335) translate(-576.227 -82.041)"/>
            <path d="M638.2 146.944a2.839 2.839 0 0 0 1.675-2.453 4.744 4.744 0 0 0-.416-1.4 2.243 2.243 0 0 0-1.148-.868 2.616 2.616 0 1 0-.111 4.724" transform="translate(-600.388 -104.335) translate(600.388 104.335) translate(-580.147 -81.873)"/>
            <path d="M625.792 107.029a9.564 9.564 0 0 0 1.556-.72 23.663 23.663 0 0 0-5.088 1.929.581.581 0 0 0 .091 0 33.788 33.788 0 0 0 3.441-1.2" transform="translate(-600.388 -104.335) translate(600.388 104.335) translate(-587.432 -103.164)"/>
            <path d="M664.077 117.765c.847.343.957.03.791-.34-.522-1.178-3.395-2.981-3.573-2.244a.8.8 0 0 0 .145.48 6.289 6.289 0 0 0 2.637 2.1" transform="translate(-600.388 -104.335) translate(600.388 104.335) translate(-564.313 -97.975)"/>
            <path d="M645.8 105.322c.363.056 1.236.19 1.473.193-.075-.045-.083-.049-.616-.158l-3.621-.621a6.333 6.333 0 0 0-.841-.091.322.322 0 0 0 .1.046c.667.168 2.517.474 3.508.63" transform="translate(-600.388 -104.335) translate(600.388 104.335) translate(-575.624 -104.15)"/>
            <path d="M611.161 124.534c.959-1.423 1.051-2.778.177-2.587-1.28.278-3.4 3.385-2.592 4.267.549.319 1.689-.613 2.411-1.685" transform="translate(-600.388 -104.335) translate(600.388 104.335) translate(-595.543 -93.853)"/>
            <path d="M666.2 128.917c1.268-.257.992-2.3-.439-3.267-1.175-.79-2.489-.353-2.159 1.1.027.116.078.268.118.381a2.443 2.443 0 0 0 2.473 1.763" transform="translate(-600.388 -104.335) translate(600.388 104.335) translate(-562.976 -91.867)"/>
            <path d="M613.346 136.166c.549-.608 1.223-1.848.828-2.767-.912-1.392-3.051.9-3.363 2.375a1.514 1.514 0 0 0 .1 1.052c.64.972 2.01-.168 2.439-.645" transform="translate(-600.388 -104.335) translate(600.388 104.335) translate(-594.245 -87.285)"/>
            <path d="M631.576 146.984a2.385 2.385 0 0 0 1.439-2.944c-.949-2.534-4.118-1.431-4.776.184a2 2 0 0 0-.037 1.344 2.407 2.407 0 0 0 3.374 1.423" transform="translate(-600.388 -104.335) translate(600.388 104.335) translate(-583.971 -81.577)"/>
            <path d="M651.455 146.575c2-.855 2.393-3.977.094-4.9a2.69 2.69 0 0 0-3.525 3.233 2.58 2.58 0 0 0 3.432 1.666" transform="translate(-600.388 -104.335) translate(600.388 104.335) translate(-572.224 -82.182)"/>
            <path d="M658.01 110.832c.349.161 1.148.514 1.065.313-.127-.3-3.814-2.529-4.228-2.272 0 .056.011.078.148.211a16.174 16.174 0 0 0 3.014 1.749" transform="translate(-600.388 -104.335) translate(600.388 104.335) translate(-568.129 -101.644)"/>
            <path d="M614.4 114.979c.871-.874 1.237-1.537.852-1.538h-.032c-.911.059-3.981 2.922-3.611 3.366a.228.228 0 0 0 .113.049c.46.022 1.756-.953 2.678-1.877" transform="translate(-600.388 -104.335) translate(600.388 104.335) translate(-593.758 -98.91)"/>
            <path d="M662.706 139.518c1.5-.764 1.463-3.774-.467-4.376-1.466-.455-2.8.709-2.264 2.839.564 1.625 1.949 1.937 2.731 1.537" transform="translate(-600.388 -104.335) translate(600.388 104.335) translate(-565.164 -86.039)"/>
            <path d="M633.5 104.571c.463-.046.8-.078 1.048-.1l-1.048.1" transform="translate(-600.388 -104.335) translate(600.388 104.335) translate(-580.773 -104.253)"/>
            <path d="M660.8 113.086c.521.27 1.035.468 1.008.3-.083-.514-3.656-2.8-3.9-2.494-.051.064.065.2.135.289a12.834 12.834 0 0 0 2.758 1.9" transform="translate(-600.388 -104.335) translate(600.388 104.335) translate(-566.324 -100.444)"/>
            <path d="M619.287 142.943c1.667-1.082 1.538-3.176.17-3.477-1.392-.3-3.5 1.28-2.93 3.081.357.892 1.7 1.084 2.759.4" transform="translate(-600.388 -104.335) translate(600.388 104.335) translate(-590.885 -83.427)"/>
            <path d="M616.769 112.279c.712-.574 1.355-1.214 1.146-1.27-.537-.145-4.177 2.529-4.057 2.981.011.043.067.043.115.043a11.741 11.741 0 0 0 2.8-1.754" transform="translate(-600.388 -104.335) translate(600.388 104.335) translate(-592.411 -100.362)"/>
            <path d="M654.979 108.8a7.611 7.611 0 0 0 1.229.418v-.027a20.317 20.317 0 0 0-4.435-1.955c.019.053.019.053.126.126a29.082 29.082 0 0 0 3.076 1.438" transform="translate(-600.388 -104.335) translate(600.388 104.335) translate(-569.948 -102.606)"/>
            <path d="M612.221 118.143c.626-.768 1.266-1.883.65-1.843-1.084.072-3.81 3.27-3.17 3.72a.412.412 0 0 0 .061.027c.578.048 1.809-1.107 2.46-1.9" transform="translate(-600.388 -104.335) translate(600.388 104.335) translate(-594.928 -97.207)"/>
            <path d="M667.044 123.37c.8.161.882-.551.417-1.272-.841-1.31-2.581-2.156-2.779-1.353a1.217 1.217 0 0 0 .134.713 3.654 3.654 0 0 0 2.228 1.912" transform="translate(-600.388 -104.335) translate(600.388 104.335) translate(-562.313 -94.745)"/>
            <path d="M664.849 136.5c1.4-.642 1.224-3.472-.642-4.074-.822-.265-2.506.276-1.908 2.48.471 1.49 1.691 1.987 2.549 1.594" transform="translate(-600.388 -104.335) translate(600.388 104.335) translate(-563.789 -87.634)"/>
            <path d="M616.409 141.374c1.3-1.034 1.6-3.018.158-3.251-1.371-.22-3.255 1.688-2.72 3.2.5.954 1.807.637 2.559.04" transform="translate(-600.388 -104.335) translate(600.388 104.335) translate(-592.471 -84.215)"/>
            <path d="M610.135 131.975c.857-1.337 1.064-3.022.094-2.85-1.166.207-2.879 3.059-2.194 4.167.492.511 1.536-.437 2.1-1.317" transform="translate(-600.388 -104.335) translate(600.388 104.335) translate(-595.951 -89.573)"/>
            <path d="M660.285 142.763a2.5 2.5 0 0 0 1.116-2.887v-.012c-.812-2.5-3.245-1.9-3.9-.49a2.816 2.816 0 0 0-.089 1.883 2.088 2.088 0 0 0 2.876 1.508" transform="translate(-600.388 -104.335) translate(600.388 104.335) translate(-566.683 -84.188)"/>
            <path d="M622.19 144.845a2.25 2.25 0 0 0 1.232-2.571c-.861-2-3.524-.822-4.086.568a1.859 1.859 0 0 0-.022 1.32 2 2 0 0 0 2.879.694" transform="translate(-600.388 -104.335) translate(600.388 104.335) translate(-589.244 -82.374)"/>
            <path d="M641.371 149.9a2.448 2.448 0 0 0 .113-4.559c-1.5-.554-4.1.509-3.465 3a2.523 2.523 0 0 0 3.352 1.561" transform="translate(-600.388 -104.335) translate(600.388 104.335) translate(-578.156 -79.989)"/>
            <path d="M628.5 105.635l.374-.1-2.532.707-.091.029c.917-.278 1.729-.5 2.248-.638" transform="translate(-600.388 -104.335) translate(600.388 104.335) translate(-585.07 -103.618)"/>
            <path d="M609.334 128.446c1.065-1.752.806-2.837.072-2.619-1.224.365-2.8 3.509-2.1 4.2.537.4 1.506-.726 2.029-1.585" transform="translate(-600.388 -104.335) translate(600.388 104.335) translate(-596.391 -91.547)"/>
            <path d="M667.7 127.111c1.022-.018.9-1.449-.2-2.509-1.022-.977-2.135-.758-2.091.121a2.252 2.252 0 0 0 .169.67 2.5 2.5 0 0 0 2.126 1.717" transform="translate(-600.388 -104.335) translate(600.388 104.335) translate(-561.879 -92.642)"/>
            <path d="M666.394 120.285c.615.257.83.121.62-.391-.481-1.179-2.733-2.636-3.026-2.172-.083.134.035.369.113.523a5.121 5.121 0 0 0 2.293 2.039" transform="translate(-600.388 -104.335) translate(600.388 104.335) translate(-562.732 -96.412)"/>
            <path d="M619.457 109.949a6.417 6.417 0 0 0 1.33-.919l-.014-.027a23.934 23.934 0 0 0-4.312 2.576.221.221 0 0 0 .1-.008 25.963 25.963 0 0 0 2.9-1.621" transform="translate(-600.388 -104.335) translate(600.388 104.335) translate(-590.868 -101.554)"/>
            <path d="M651.859 107.16c1.2.418 1.267.437 1.336.458l-.035-.018-4.35-1.534a1.315 1.315 0 0 0-.153-.043.487.487 0 0 0 .116.053c.342.131.342.131 3.086 1.084" transform="translate(-600.388 -104.335) translate(600.388 104.335) translate(-571.796 -103.329)"/>
            <path d="M610.69 135.777c1.352-1.8.924-3.077.135-2.97-1.209.166-2.7 2.812-2.186 3.881.221.335.935.578 2.051-.911" transform="translate(-600.388 -104.335) translate(600.388 104.335) translate(-595.562 -87.375)"/>
            <path d="M663.3 115.433c.454.263.927.453.9.249-.089-.592-3.166-2.848-3.465-2.542-.061.062.011.161.207.429a11.422 11.422 0 0 0 2.361 1.864" transform="translate(-600.388 -104.335) translate(600.388 104.335) translate(-564.656 -99.106)"/>
            <path d="M647.974 149.864a2.921 2.921 0 0 0 1.669-2.363 2.455 2.455 0 0 0-1.334-2.245 2.6 2.6 0 0 0-3.557 3.018v.006a2.522 2.522 0 0 0 3.217 1.569" transform="translate(-600.388 -104.335) translate(600.388 104.335) translate(-574.15 -80.079)"/>
            <path d="M610.2 121.648a5.207 5.207 0 0 0 .788-1.637c.1-.512-.288-.472-.368-.458-1.025.172-3.193 3.377-2.635 3.9a.557.557 0 0 0 .06.04c.465.1 1.6-1.044 2.151-1.843" transform="translate(-600.388 -104.335) translate(600.388 104.335) translate(-595.941 -95.273)"/>
            <path d="M634.6 149.791a2.583 2.583 0 0 0 1.592-1.932 2.294 2.294 0 0 0-1.3-2.272 2.459 2.459 0 0 0-3.433 2.748 2.537 2.537 0 0 0 3.145 1.457" transform="translate(-600.388 -104.335) translate(600.388 104.335) translate(-582.03 -79.87)"/>
            <path d="M666.749 133.757c.178-.085 1.046-.586.584-2.156v-.006c-.32-1.356-2.132-2.183-2.847-.967a2.124 2.124 0 0 0-.069 1.645c.349 1.036 1.444 1.912 2.336 1.49" transform="translate(-600.388 -104.335) translate(600.388 104.335) translate(-562.544 -89.027)"/>
            <path d="M613.786 140.176a2.525 2.525 0 0 0 .78-2.461c-.342-1.068-2.116-.351-2.919 1.178a1.839 1.839 0 0 0-.2 1.663c.29.6 1.428.552 2.346-.367" transform="translate(-600.388 -104.335) translate(600.388 104.335) translate(-593.907 -84.758)"/>
            <path d="M657.34 146.162c1.716-.717 2.049-3.884.03-4.626-1.441-.53-3.376.688-2.866 3.073a2.186 2.186 0 0 0 2.836 1.553" transform="translate(-600.388 -104.335) translate(600.388 104.335) translate(-568.382 -82.244)"/>
            <path d="M625.149 147.081c1.681-.795 1.838-3.04.252-3.64-1.473-.559-3.724.678-3.194 2.66a2.186 2.186 0 0 0 2.943.98" transform="translate(-600.388 -104.335) translate(600.388 104.335) translate(-587.511 -81.116)"/>
            <path d="M622.046 108.029c.2-.094.4-.188.607-.279l-2.11 1-.779.4c.65-.337 1.524-.764 2.282-1.119" transform="translate(-600.388 -104.335) translate(600.388 104.335) translate(-588.911 -102.3)"/>
            <path d="M608.467 125.382c.936-1.6.785-2.413.275-2.247-1.092.356-2.831 3.611-2.162 4.049.465.179 1.4-.97 1.887-1.8" transform="translate(-600.388 -104.335) translate(600.388 104.335) translate(-596.808 -93.147)"/>
            <path d="M665.659 117.925c.258.166.847.517.76.2-.194-.7-2.874-2.906-3.019-2.485-.029.086.084.276.134.353a8.978 8.978 0 0 0 2.126 1.931" transform="translate(-600.388 -104.335) translate(600.388 104.335) translate(-563.066 -97.63)"/>
            <path d="M668.2 131.385c1.111-.255.9-2.2-.323-3.022-.78-.52-2.064-.349-1.7 1.242a3.209 3.209 0 0 0 .089.313c.5 1.28 1.451 1.58 1.933 1.468" transform="translate(-600.388 -104.335) translate(600.388 104.335) translate(-561.456 -90.177)"/>
            <path d="M611.228 139.479c1.191-1.457.836-2.789-.032-2.679-.963.124-2.51 2.162-2.01 3.369.277.514 1.207.329 2.041-.689" transform="translate(-600.388 -104.335) translate(600.388 104.335) translate(-595.234 -84.997)"/>
            <path d="M628.194 149.559a1.954 1.954 0 0 0 .263-3.622c-1.39-.651-3.654.442-3.2 2.414a2.2 2.2 0 0 0 2.939 1.208" transform="translate(-600.388 -104.335) translate(600.388 104.335) translate(-585.693 -79.662)"/>
            <path d="M654.428 149.479c2-.981 1.656-3.94-.08-4.492a2.45 2.45 0 0 0-2.942 3.013 2.142 2.142 0 0 0 3.022 1.481" transform="translate(-600.388 -104.335) translate(600.388 104.335) translate(-570.202 -80.164)"/>
            <path d="M668.347 122.717c.393.171.71.1.522-.375-.479-1.2-2.3-2.509-2.49-1.982-.059.16.061.42.139.59a4.533 4.533 0 0 0 1.83 1.767" transform="translate(-600.388 -104.335) translate(600.388 104.335) translate(-561.308 -94.859)"/>
            <path d="M668.986 125.782c.7.1.74-.689.088-1.569-.744-1-1.895-1.451-2.021-.788a1.473 1.473 0 0 0 .15.747 2.885 2.885 0 0 0 1.783 1.61" transform="translate(-600.388 -104.335) translate(600.388 104.335) translate(-560.905 -93.148)"/>
            <path d="M608.411 135.737c.865-1.51.742-2.758.022-2.552-.919.262-2.285 2.9-1.756 3.841.33.45 1.178-.318 1.734-1.289" transform="translate(-600.388 -104.335) translate(600.388 104.335) translate(-596.732 -87.16)"/>
            <path d="M607.736 132.367c.772-1.514.662-2.63.033-2.448-.909.265-2.35 3.2-1.75 4.031.338.361 1.185-.538 1.717-1.583" transform="translate(-600.388 -104.335) translate(600.388 104.335) translate(-597.136 -89.104)"/>
            <path d="M637.767 152.716a2.159 2.159 0 0 0 .322-3.981 2.293 2.293 0 0 0-3.36 2.456 2.362 2.362 0 0 0 3.038 1.526" transform="translate(-600.388 -104.335) translate(600.388 104.335) translate(-580.073 -78.051)"/>
            <path d="M644.386 152.932a2.317 2.317 0 0 0 .164-4.277 2.4 2.4 0 0 0-3.231 2.719 2.332 2.332 0 0 0 3.067 1.557" transform="translate(-600.388 -104.335) translate(600.388 104.335) translate(-576.167 -78.043)"/>
            <path d="M660.109 111.808c.811.519.974.619 1.032.642a33.478 33.478 0 0 0-3.578-2.368c.008.03.008.03.088.093.467.354 1.39.946 2.459 1.634" transform="translate(-600.388 -104.335) translate(600.388 104.335) translate(-566.52 -100.912)"/>
            <path d="M611.435 116.526c.358-.4 1.159-1.339.879-1.348-.47-.018-3.358 3.042-3.059 3.239.006 0 .027.018.092 0a9.745 9.745 0 0 0 2.088-1.894" transform="translate(-600.388 -104.335) translate(600.388 104.335) translate(-595.148 -97.875)"/>
            <path d="M657.123 109.753c.358.2.589.332.688.389l-3.059-1.663c.533.273 1.519.8 2.371 1.273" transform="translate(-600.388 -104.335) translate(600.388 104.335) translate(-568.185 -101.865)"/>
            <path d="M609.474 119.511c.462-.651.963-1.542.629-1.486-.9.15-2.932 3.153-2.64 3.426a.134.134 0 0 0 .1.032 6.81 6.81 0 0 0 1.916-1.972" transform="translate(-600.388 -104.335) translate(600.388 104.335) translate(-596.214 -96.18)"/>
            <path d="M616.519 145.566a1.787 1.787 0 0 0 .865-2.1c-.627-1.395-2.74-.428-3.178.823a1.609 1.609 0 0 0 .008 1.074c.344.9 1.559.669 2.31.215" transform="translate(-600.388 -104.335) translate(600.388 104.335) translate(-592.259 -81.438)"/>
            <path d="M662.591 113.919c.844.613.908.626.946.634a17.758 17.758 0 0 0-3.2-2.493c0 .038.006.057.135.188.361.348 1.341 1.1 2.121 1.671" transform="translate(-600.388 -104.335) translate(600.388 104.335) translate(-564.878 -99.733)"/>
            <path d="M613.745 113.789a10.016 10.016 0 0 0 1-1l-.024-.014a19.248 19.248 0 0 0-3.326 2.872l.021.021a.332.332 0 0 0 .089-.035 24.635 24.635 0 0 0 2.244-1.843" transform="translate(-600.388 -104.335) translate(600.388 104.335) translate(-593.87 -99.307)"/>
            <path d="M665.054 142.088c1.448-.919.887-3.547-.471-3.857-1.054-.241-2.253.812-1.745 2.759.35 1.114 1.387 1.626 2.216 1.1" transform="translate(-600.388 -104.335) translate(600.388 104.335) translate(-563.467 -84.161)"/>
            <path d="M667.645 120.313c.26.187.688.463.645.207-.111-.656-2.32-2.761-2.487-2.37-.021.048-.011.166.15.448a7.62 7.62 0 0 0 1.693 1.714" transform="translate(-600.388 -104.335) translate(600.388 104.335) translate(-561.644 -96.132)"/>
            <path d="M606.94 129.188c.29-.613.721-1.7.331-2.079-.42-.522-1.941 1.893-2.084 3.311-.043.42.057.523.131.6.271.187 1.024-.555 1.629-1.827" transform="translate(-600.388 -104.335) translate(600.388 104.335) translate(-597.555 -90.813)"/>
            <path d="M613.9 144.21c1.2-.9 1.178-2.473.228-2.623-1.13-.18-2.751 1.374-2.353 2.608.287.688 1.22.7 2.126.016" transform="translate(-600.388 -104.335) translate(600.388 104.335) translate(-593.679 -82.15)"/>
            <path d="M619.191 147.356c1.457-.691 1.5-2.426.382-2.871-1.282-.514-3.207.745-2.814 2.217.3.87 1.369 1.159 2.432.654" transform="translate(-600.388 -104.335) translate(600.388 104.335) translate(-590.721 -80.484)"/>
            <path d="M669.62 129.439c.855-.124.567-1.707-.446-2.454-.943-.7-1.454-.12-1.379.568a2.272 2.272 0 0 0 .111.448c.336.9 1.088 1.527 1.713 1.438" transform="translate(-600.388 -104.335) translate(600.388 104.335) translate(-560.463 -91.028)"/>
            <path d="M667.007 138.954c1.159-.64 1.01-3.188-.564-3.587-.959-.244-1.857.795-1.5 2.311.336 1.168 1.24 1.73 2.061 1.277" transform="translate(-600.388 -104.335) translate(600.388 104.335) translate(-562.195 -85.868)"/>
            <path d="M662.7 145.407c1.379-.752 1.435-3.578-.287-4.034-1.207-.321-2.435.937-2.086 2.71.323 1.294 1.365 1.877 2.373 1.325" transform="translate(-600.388 -104.335) translate(600.388 104.335) translate(-564.918 -82.298)"/>
            <path d="M608.908 139.244c.932-1.376.729-2.585.091-2.454-.909.187-2.236 2.421-1.791 3.405.322.536 1.116-.091 1.7-.951" transform="translate(-600.388 -104.335) translate(600.388 104.335) translate(-596.401 -85.005)"/>
            <path d="M650.978 152.782c1.812-.742 2.057-3.391.385-4.171a2.394 2.394 0 0 0-3.3 2.694 2.069 2.069 0 0 0 2.911 1.478" transform="translate(-600.388 -104.335) translate(600.388 104.335) translate(-572.171 -78.074)"/>
            <path d="M631.081 152.376a1.92 1.92 0 0 0 .519-3.528c-1.382-.747-3.675.169-3.261 2.159a2.192 2.192 0 0 0 2.742 1.369" transform="translate(-600.388 -104.335) translate(600.388 104.335) translate(-583.86 -77.969)"/>
            <path d="M616.069 111.546c.446-.318.693-.487.81-.568l-1.579 1.112-1.315.985c.514-.4 1.333-1 2.083-1.529" transform="translate(-600.388 -104.335) translate(600.388 104.335) translate(-592.333 -100.377)"/>
            <path d="M664.973 116.264c.686.563.774.578.8.582a12.209 12.209 0 0 0-2.876-2.58c0 .048 0 .056.1.191a19.857 19.857 0 0 0 1.971 1.806" transform="translate(-600.388 -104.335) translate(600.388 104.335) translate(-563.36 -98.418)"/>
            <path d="M607.675 122.974c.682-1.171.739-1.778.4-1.685-.764.206-2.64 3.353-2.182 3.658a.2.2 0 0 0 .043.016c.295.024 1.107-.9 1.737-1.988" transform="translate(-600.388 -104.335) translate(600.388 104.335) translate(-597.168 -94.24)"/>
            <path d="M660.055 148.824c1.494-.755 1.723-3.538-.072-4.095a2.125 2.125 0 0 0-2.385 2.721c.373 1.61 1.535 1.842 2.457 1.374" transform="translate(-600.388 -104.335) translate(600.388 104.335) translate(-566.53 -80.304)"/>
            <path d="M611.418 143.291c1.057-.989 1.14-2.485.134-2.459-.968.024-2.369 1.711-2 2.724.379.819 1.353.219 1.869-.265" transform="translate(-600.388 -104.335) translate(600.388 104.335) translate(-594.997 -82.591)"/>
            <path d="M668.741 136.109c1.029-.53.745-2.73-.4-3.141-.745-.265-1.895.142-1.438 1.87.4 1.318 1.234 1.583 1.842 1.27" transform="translate(-600.388 -104.335) translate(600.388 104.335) translate(-561.052 -87.32)"/>
            <path d="M621.94 149.543c1.322-.523 1.791-2.279.447-2.938-1.436-.7-3.338.629-2.908 2.038a1.91 1.91 0 0 0 2.46.9" transform="translate(-600.388 -104.335) translate(600.388 104.335) translate(-589.115 -79.266)"/>
            <path d="M670.12 125.056c.376.164.5-.014.325-.463l-.043-.1c-.377-.908-1.712-1.988-1.855-1.5a1.026 1.026 0 0 0 .127.555 3.384 3.384 0 0 0 1.452 1.524" transform="translate(-600.388 -104.335) translate(600.388 104.335) translate(-560.025 -93.3)"/>
            <path d="M606.3 136.212c.637-1.443.449-2.344-.011-2.17-.634.243-1.869 2.909-1.358 3.7.312.365 1-.694 1.369-1.526" transform="translate(-600.388 -104.335) translate(600.388 104.335) translate(-597.766 -86.649)"/>
            <path d="M640.7 155.767a2.012 2.012 0 0 0 .276-3.764 2.134 2.134 0 0 0-3 2.315v.006a2.11 2.11 0 0 0 2.724 1.435" transform="translate(-600.388 -104.335) translate(600.388 104.335) translate(-578.146 -76.058)"/>
            <path d="M667.153 118.719a2.506 2.506 0 0 0 .562.458l.021-.011a10.436 10.436 0 0 0-2.422-2.481c-.013.034.006.077.1.209a16.968 16.968 0 0 0 1.744 1.826" transform="translate(-600.388 -104.335) translate(600.388 104.335) translate(-561.932 -96.978)"/>
            <path d="M606.155 126.591c.576-1.218.578-1.878.218-1.733-.664.27-2.3 3.359-1.7 3.7.436.022 1.236-1.452 1.481-1.971" transform="translate(-600.388 -104.335) translate(600.388 104.335) translate(-597.926 -92.119)"/>
            <path d="M657.073 152.3c1.709-.851 1.74-3.511.046-4.01a2.22 2.22 0 0 0-2.508 2.716 1.707 1.707 0 0 0 2.462 1.294" transform="translate(-600.388 -104.335) translate(600.388 104.335) translate(-568.29 -78.183)"/>
            <path d="M624.8 151.918c1.344-.437 1.839-2.161.484-2.909-1.3-.718-3.279.243-2.947 1.806a1.945 1.945 0 0 0 2.463 1.1" transform="translate(-600.388 -104.335) translate(600.388 104.335) translate(-587.408 -77.864)"/>
            <path d="M669.473 122.685c.145.11.478.342.455.128a.772.772 0 0 0-.089-.235c-.338-.728-1.823-2.261-1.919-1.862a.625.625 0 0 0 .091.311 6.245 6.245 0 0 0 1.467 1.666" transform="translate(-600.388 -104.335) translate(600.388 104.335) translate(-560.39 -94.619)"/>
            <path d="M670.093 133.614c.959-.436.53-2.4-.6-2.772-.624-.2-1.306.318-.951 1.6.248.776.965 1.444 1.554 1.176" transform="translate(-600.388 -104.335) translate(600.388 104.335) translate(-560.076 -88.568)"/>
            <path d="M609.181 142.71c.833-1.045.92-2.314.153-2.226a2.82 2.82 0 0 0-1.744 2.845c.3.48 1.048.062 1.591-.619" transform="translate(-600.388 -104.335) translate(600.388 104.335) translate(-596.156 -82.801)"/>
            <path d="M670.671 128c.559.032.575-.823-.153-1.663-.532-.614-1.266-.868-1.334-.278a1.406 1.406 0 0 0 .1.6 2.187 2.187 0 0 0 1.387 1.341" transform="translate(-600.388 -104.335) translate(600.388 104.335) translate(-559.64 -91.594)"/>
            <path d="M605.6 133.186c.468-1.194.511-2.234.086-2.1-.777.243-1.881 3.235-1.4 3.811.253.2.893-.63 1.318-1.711" transform="translate(-600.388 -104.335) translate(600.388 104.335) translate(-598.152 -88.404)"/>
            <path d="M647.308 155.9c1.519-.536 2.286-3.022.345-3.868a2.217 2.217 0 0 0-3.022 2.379 1.98 1.98 0 0 0 2.677 1.489" transform="translate(-600.388 -104.335) translate(600.388 104.335) translate(-574.197 -76.011)"/>
            <path d="M606.8 139.49c.613-1.179.661-2.387.084-2.193-.777.265-1.8 2.654-1.436 3.362.276.4.9-.3 1.352-1.17" transform="translate(-600.388 -104.335) translate(600.388 104.335) translate(-597.432 -84.709)"/>
            <path d="M634.079 155.254a1.812 1.812 0 0 0 .489-3.373c-1.424-.779-3.471.254-3.08 1.977a2.162 2.162 0 0 0 2.591 1.4" transform="translate(-600.388 -104.335) translate(600.388 104.335) translate(-581.995 -76.165)"/>
            <path d="M668.92 121.028a2.469 2.469 0 0 0 .471.431 8.656 8.656 0 0 0-1.967-2.336c-.013.038-.016.049.078.207a15.123 15.123 0 0 0 1.417 1.7" transform="translate(-600.388 -104.335) translate(600.388 104.335) translate(-560.683 -95.525)"/>
            <path d="M604.844 130.484c.433-1.117.492-1.909.135-1.8-.6.179-1.76 3.306-1.35 3.638.326.115.86-.918 1.215-1.837" transform="translate(-600.388 -104.335) translate(600.388 104.335) translate(-598.519 -89.835)"/>
            <path d="M608.83 118.492a6.218 6.218 0 0 0 .74-1.084 16.158 16.158 0 0 0-2.457 2.991l.016.018a.381.381 0 0 0 .056-.032 18.36 18.36 0 0 0 1.642-1.889" transform="translate(-600.388 -104.335) translate(600.388 104.335) translate(-596.404 -96.546)"/>
            <path d="M671.226 131.57c.648-.156.465-1.693-.462-2.231-.411-.238-1.166-.121-.868.964l.035.118c.339.991.959 1.23 1.295 1.149" transform="translate(-600.388 -104.335) translate(600.388 104.335) translate(-559.255 -89.499)"/>
            <path d="M607.191 142.6c.768-1.229.57-2.1.146-2.027-.639.11-1.775 2.145-1.46 2.893.256.444.844-.115 1.314-.867" transform="translate(-600.388 -104.335) translate(600.388 104.335) translate(-597.168 -82.745)"/>
            <path d="M667.089 144.474c1.166-.8.963-3.18-.285-3.35-.588-.08-1.812.664-1.422 2.4.306 1.117 1.108 1.358 1.707.946" transform="translate(-600.388 -104.335) translate(600.388 104.335) translate(-561.933 -82.42)"/>
            <path d="M653.66 155.63c1.615-.616 1.893-3.03.427-3.691a2.141 2.141 0 0 0-2.809 2.37 1.628 1.628 0 0 0 2.382 1.321" transform="translate(-600.388 -104.335) translate(600.388 104.335) translate(-570.259 -76.05)"/>
            <path d="M627.569 154.533a1.513 1.513 0 0 0 .627-2.767c-1.1-.739-3.268-.131-2.962 1.489a1.824 1.824 0 0 0 2.334 1.278" transform="translate(-600.388 -104.335) translate(600.388 104.335) translate(-585.687 -76.262)"/>
            <path d="M610.964 115.848c.371-.377.682-.688.831-.831l-1.224 1.211-1.411 1.482.032-.035c.164-.172 1.076-1.123 1.772-1.827" transform="translate(-600.388 -104.335) translate(600.388 104.335) translate(-595.192 -97.971)"/>
            <path d="M662.829 113.949c.635.563 1.051.948 1.207 1.092l-1.207-1.092" transform="translate(-600.388 -104.335) translate(600.388 104.335) translate(-563.401 -98.607)"/>
            <path d="M606.905 121.6c.591-.938.8-1.406.631-1.39-.384.037-2.3 2.97-2.072 3.171.011.01.035 0 .049 0a8.311 8.311 0 0 0 1.392-1.781" transform="translate(-600.388 -104.335) translate(600.388 104.335) translate(-597.392 -94.877)"/>
            <path d="M668.952 141.148c.877-.611.753-2.826-.42-3.014-.666-.105-1.449.713-1.167 2.067.26 1.01.927 1.409 1.588.948" transform="translate(-600.388 -104.335) translate(600.388 104.335) translate(-560.75 -84.204)"/>
            <path d="M664.976 147.8a2.5 2.5 0 0 0 .736-2.226c-.361-1.393-1.67-1.593-2.416-.37a2.074 2.074 0 0 0-.282 1.5c.463 2.134 1.949 1.109 1.963 1.1" transform="translate(-600.388 -104.335) translate(600.388 104.335) translate(-563.314 -80.472)"/>
            <path d="M666.663 117.8c.113.124.226.249.336.373l-1.916-2.075-.084-.086a.6.6 0 0 0 .088.1c.519.568 1.057 1.119 1.576 1.685" transform="translate(-600.388 -104.335) translate(600.388 104.335) translate(-562.116 -97.377)"/>
            <path d="M605.431 124.8c.43-.871.589-1.425.406-1.411-.425.035-1.989 2.994-1.724 3.265.006.008.021.022.059.016a5.965 5.965 0 0 0 1.26-1.87" transform="translate(-600.388 -104.335) translate(600.388 104.335) translate(-598.2 -92.985)"/>
            <path d="M604.465 137.183c.376-1.151.392-2.044.035-1.913-.5.185-1.447 2.914-1.022 3.48.266.177.747-.831.987-1.567" transform="translate(-600.388 -104.335) translate(600.388 104.335) translate(-598.621 -85.912)"/>
            <path d="M671.525 127.133c.315.126.355-.156.21-.5-.366-.876-1.242-1.58-1.361-1.218a.953.953 0 0 0 .089.491 2.55 2.55 0 0 0 1.062 1.227" transform="translate(-600.388 -104.335) translate(600.388 104.335) translate(-558.939 -91.834)"/>
            <path d="M605 140.114c.425-1.112.467-2.1.08-1.955-.525.195-1.43 2.633-1.068 3.267.244.238.724-.624.989-1.312" transform="translate(-600.388 -104.335) translate(600.388 104.335) translate(-598.293 -84.191)"/>
            <path d="M670.975 124.887c.207.171.32.2.306.072-.059-.493-1.309-2.025-1.487-1.821-.049.057.043.26.081.348a5.232 5.232 0 0 0 1.1 1.4" transform="translate(-600.388 -104.335) translate(600.388 104.335) translate(-559.284 -93.144)"/>
            <path d="M670.449 138.247c.766-.557.607-2.611-.446-2.711-.479-.046-1.239.442-.912 1.826.218.806.879 1.237 1.358.886" transform="translate(-600.388 -104.335) translate(600.388 104.335) translate(-559.739 -85.748)"/>
            <path d="M643.6 158.706a1.776 1.776 0 0 0 .471-3.247 1.963 1.963 0 0 0-2.89 1.861 1.784 1.784 0 0 0 2.419 1.387" transform="translate(-600.388 -104.335) translate(600.388 104.335) translate(-576.233 -74.013)"/>
            <path d="M662.374 151.388c1.186-.694 1.412-3.042.01-3.436-.9-.252-2.174.807-1.951 2.379.253 1.291 1.169 1.508 1.941 1.056" transform="translate(-600.388 -104.335) translate(600.388 104.335) translate(-564.836 -78.371)"/>
            <path d="M636.918 158.185a1.64 1.64 0 0 0 .513-3.051c-1.24-.723-3.073.093-2.868 1.644a1.843 1.843 0 0 0 2.355 1.408" transform="translate(-600.388 -104.335) translate(600.388 104.335) translate(-580.154 -74.229)"/>
            <path d="M672.1 130c.1-.01.4-.1.154-.843-.252-.812-1.026-1.259-1.221-.849a1.03 1.03 0 0 0 .059.685c.24.673.7 1.047 1.013 1.018" transform="translate(-600.388 -104.335) translate(600.388 104.335) translate(-558.57 -90.148)"/>
            <path d="M603.781 134.435c.4-1.323.255-1.8.027-1.7-.43.184-1.363 3-.944 3.4.25.132.685-.946.917-1.7" transform="translate(-600.388 -104.335) translate(600.388 104.335) translate(-598.984 -87.42)"/>
            <path d="M670.473 123.323a1.715 1.715 0 0 0 .3.33h.013a8.108 8.108 0 0 0-1.482-2.039c-.011.026 0 .064.075.195a13.212 13.212 0 0 0 1.1 1.519" transform="translate(-600.388 -104.335) translate(600.388 104.335) translate(-559.57 -94.043)"/>
            <path d="M668.481 120.1c.142.18.266.341.371.48l-.817-1.066-.549-.693c-.116-.144-.323-.394-.4-.476a.458.458 0 0 0 .073.105c.43.559.887 1.1 1.323 1.648" transform="translate(-600.388 -104.335) translate(600.388 104.335) translate(-560.88 -95.986)"/>
            <path d="M605.426 142.93c.567-1.253.318-1.829.065-1.727-.465.19-1.376 2.185-1.057 2.844.2.311.7-.466.992-1.117" transform="translate(-600.388 -104.335) translate(600.388 104.335) translate(-598.03 -82.376)"/>
            <path d="M604.136 128.349c.35-.9.444-1.514.216-1.419-.51.217-1.626 3.034-1.285 3.239a.171.171 0 0 0 .03.01c.3-.093.847-1.353 1.034-1.83" transform="translate(-600.388 -104.335) translate(600.388 104.335) translate(-598.838 -90.879)"/>
            <path d="M671.657 135.648c.64-.426.441-2.121-.462-2.317-.395-.086-.959.334-.67 1.476.221.766.78 1.076 1.132.841" transform="translate(-600.388 -104.335) translate(600.388 104.335) translate(-558.89 -87.066)"/>
            <path d="M630.366 157.334a1.434 1.434 0 0 0 .5-2.668c-1.088-.656-2.927-.121-2.686 1.423a1.85 1.85 0 0 0 2.183 1.245" transform="translate(-600.388 -104.335) translate(600.388 104.335) translate(-583.936 -74.513)"/>
            <path d="M650.031 158.825a2.227 2.227 0 0 0 1.326-1.564 1.627 1.627 0 0 0-.807-1.746 1.979 1.979 0 0 0-2.734 2.1 1.606 1.606 0 0 0 2.217 1.21" transform="translate(-600.388 -104.335) translate(600.388 104.335) translate(-572.303 -73.94)"/>
            <path d="M659.515 154.867c1.239-.717 1.526-3.048.091-3.351a1.963 1.963 0 0 0-2.062 2.357 1.3 1.3 0 0 0 1.971.994" transform="translate(-600.388 -104.335) translate(600.388 104.335) translate(-566.544 -76.241)"/>
            <path d="M669.982 122.317l.148.225-1.041-1.554c-.135-.191-.17-.236-.183-.254a.624.624 0 0 0 .057.094c.333.5.686.988 1.019 1.489" transform="translate(-600.388 -104.335) translate(600.388 104.335) translate(-559.802 -94.565)"/>
            <path d="M603.063 132.29c.358-1.23.244-1.553.134-1.516-.425.142-1.272 3.061-.927 3.188.194-.022.562-.886.79-1.672" transform="translate(-600.388 -104.335) translate(600.388 104.335) translate(-599.321 -88.585)"/>
            <path d="M672.554 133.415c.522-.313.177-1.733-.449-1.853-.3-.057-.683.19-.433 1.1.213.627.635.9.881.752" transform="translate(-600.388 -104.335) translate(600.388 104.335) translate(-558.211 -88.118)"/>
            <path d="M656.247 158.208c1.317-.6 1.554-2.692.349-3.066a1.9 1.9 0 0 0-2.236 2.076v.012a1.249 1.249 0 0 0 1.884.973" transform="translate(-600.388 -104.335) translate(600.388 104.335) translate(-568.426 -74.089)"/>
            <path d="M672.15 126.845c.068.067.183.164.189.075.021-.3-.858-1.591-1.011-1.486-.049.032.029.217.06.3a3.849 3.849 0 0 0 .758 1.107" transform="translate(-600.388 -104.335) translate(600.388 104.335) translate(-558.376 -91.768)"/>
            <path d="M603.5 141.136c.256-.967.272-1.789.035-1.661a4.658 4.658 0 0 0-.7 3c.2.144.54-.859.667-1.337" transform="translate(-600.388 -104.335) translate(600.388 104.335) translate(-598.981 -83.407)"/>
            <path d="M606.557 120.8c.352-.511.482-.7.527-.771-.014.014-.032.037-.045.053l-.043.059-.565.79-.879 1.28c-.178.268-.208.319-.226.349a.277.277 0 0 0 .04-.046c.139-.188.139-.188 1.193-1.715" transform="translate(-600.388 -104.335) translate(600.388 104.335) translate(-597.463 -94.986)"/>
            <path d="M671.663 125.368a2.078 2.078 0 0 0 .2.273c0-.019 0-.022-.056-.144a8.233 8.233 0 0 0-.963-1.537c0 .024-.006.03.064.176a12.944 12.944 0 0 0 .761 1.235" transform="translate(-600.388 -104.335) translate(600.388 104.335) translate(-558.658 -92.645)"/>
            <path d="M672.678 128.973c.283.1.161-.361-.016-.715-.295-.59-.718-.833-.777-.627a.942.942 0 0 0 .083.432 1.549 1.549 0 0 0 .71.91" transform="translate(-600.388 -104.335) translate(600.388 104.335) translate(-558.041 -90.499)"/>
            <path d="M603.928 143.744c.328-1.02.295-1.618.06-1.516a3.857 3.857 0 0 0-.715 2.649c.213.227.637-1.077.654-1.133" transform="translate(-600.388 -104.335) translate(600.388 104.335) translate(-598.713 -81.766)"/>
            <path d="M602.918 138.567c.231-1 .228-1.677-.006-1.542-.346.2-.935 2.63-.608 3 .248.115.6-1.4.613-1.462" transform="translate(-600.388 -104.335) translate(600.388 104.335) translate(-599.31 -84.869)"/>
            <path d="M668.919 146.475c.822-.729.677-2.523-.212-2.628-.556-.065-1.261.774-1.059 2.025.161.812.731 1.082 1.271.6" transform="translate(-600.388 -104.335) translate(600.388 104.335) translate(-560.567 -80.797)"/>
            <path d="M604.909 123.662c.425-.793.414-.871.409-.9a10.84 10.84 0 0 0-1.506 2.651.1.1 0 0 0 .049-.022 13.619 13.619 0 0 0 1.048-1.731" transform="translate(-600.388 -104.335) translate(600.388 104.335) translate(-598.36 -93.355)"/>
            <path d="M666.853 149.989c.742-.6 1.035-2.555-.013-2.724-.723-.117-1.5.857-1.344 2.049.2.871.876 1.052 1.355.669" transform="translate(-600.388 -104.335) translate(600.388 104.335) translate(-561.834 -78.764)"/>
            <path d="M670.567 143.177c.658-.549.643-2.336-.2-2.419-.358-.035-1.119.538-.9 1.759.2.919.766.94 1.1.661" transform="translate(-600.388 -104.335) translate(600.388 104.335) translate(-559.493 -82.636)"/>
            <path d="M603.459 127.125c.447-1.084.385-1.168.365-1.2-.172-.018-.669 1.095-.674 1.106a4.544 4.544 0 0 0-.533 1.605.04.04 0 0 0 .049 0 7.107 7.107 0 0 0 .793-1.516" transform="translate(-600.388 -104.335) translate(600.388 104.335) translate(-599.077 -91.469)"/>
            <path d="M671.93 140a1.4 1.4 0 0 0 .256-1.376c-.293-1.1-.922-.656-1.111-.3a1.835 1.835 0 0 0-.072 1.19c.285 1.055.86.549.925.487" transform="translate(-600.388 -104.335) translate(600.388 104.335) translate(-558.6 -84.324)"/>
            <path d="M664.467 153.558c.97-.681.992-2.556.032-2.676-.795-.1-1.573.769-1.423 2.076a.815.815 0 0 0 1.392.6" transform="translate(-600.388 -104.335) translate(600.388 104.335) translate(-563.266 -76.608)"/>
            <path d="M673.21 131.707c.307-.131.064-1.213-.436-1.4-.264-.1-.354.227-.2.734.134.415.451.742.639.662" transform="translate(-600.388 -104.335) translate(600.388 104.335) translate(-557.674 -88.869)"/>
            <path d="M602.3 136.172c.166-.811.175-1.38.021-1.325-.217.078-.933 2.6-.578 2.864.186-.021.46-1.066.557-1.54" transform="translate(-600.388 -104.335) translate(600.388 104.335) translate(-599.645 -86.158)"/>
            <path d="M602.444 130.52c.1-.335.317-1.114.145-1.112a5.8 5.8 0 0 0-.826 2.66.031.031 0 0 0 .024 0 5.143 5.143 0 0 0 .659-1.546" transform="translate(-600.388 -104.335) translate(600.388 104.335) translate(-599.597 -89.397)"/>
            <path d="M672.951 137.251c.4-.388.194-1.664-.277-1.707-.156-.014-.67.239-.462 1.159.247.962.659.627.739.549" transform="translate(-600.388 -104.335) translate(600.388 104.335) translate(-557.872 -85.742)"/>
            <path d="M661.614 157.071c1.049-.627 1.061-2.336.239-2.517a1.6 1.6 0 0 0-1.611 1.87c.1.8.67 1.066 1.373.646" transform="translate(-600.388 -104.335) translate(600.388 104.335) translate(-564.941 -74.419)"/>
            <path d="M672.566 127.19l.1.2-.234-.512a5.4 5.4 0 0 0-.376-.736c0 .013 0 .019.057.153.051.11.051.11.449.89" transform="translate(-600.388 -104.335) translate(600.388 104.335) translate(-557.934 -91.34)"/>
            <path d="M673.062 128.586c.033.037.075.072.076.024.006-.2-.5-1.117-.575-1.033-.026.03.035.19.054.243a3.4 3.4 0 0 0 .443.763" transform="translate(-600.388 -104.335) translate(600.388 104.335) translate(-557.639 -90.491)"/>
            <path d="M602.319 142.554c.11-.723.105-1.249-.01-1.309a4.9 4.9 0 0 0-.358 2.553c.115.049.287-.713.368-1.245" transform="translate(-600.388 -104.335) translate(600.388 104.335) translate(-599.499 -82.345)"/>
            <path d="M602.767 144.88c.161-.827.113-1.044.052-1.141-.229-.187-.529 1.64-.467 2.108a.3.3 0 0 0 .046.148c.088.067.21-.306.368-1.114" transform="translate(-600.388 -104.335) translate(600.388 104.335) translate(-599.23 -80.868)"/>
            <path d="M601.653 134.294c.078-.37.18-1.018.073-1.093-.143.048-.345.831-.389 1.021-.275 1.245-.186 1.4-.151 1.419h.018a4.224 4.224 0 0 0 .449-1.35" transform="translate(-600.388 -104.335) translate(600.388 104.335) translate(-599.94 -87.137)"/>
            <path d="M673.646 134.9c.252-.287.089-1.318-.3-1.3-.26.014-.36.38-.24.868.14.453.395.589.537.426" transform="translate(-600.388 -104.335) translate(600.388 104.335) translate(-557.342 -86.9)"/>
            <path d="M601.756 140.263c.115-.86.054-1.286-.038-1.2a5.293 5.293 0 0 0-.282 2.44c.115.008.268-.847.32-1.24" transform="translate(-600.388 -104.335) translate(600.388 104.335) translate(-599.81 -83.651)"/>
            <path d="M673.557 130.523c.033 0 .129-.022 0-.432-.159-.44-.393-.6-.444-.495-.04.078.024.284.052.369.127.349.315.554.4.56" transform="translate(-600.388 -104.335) translate(600.388 104.335) translate(-557.32 -89.304)"/>
            <path d="M603.057 126.348c.158-.346.247-.555.266-.622a.068.068 0 0 0-.027.029 19.817 19.817 0 0 0-.866 1.88.057.057 0 0 0 .024-.024c.121-.212.467-.956.607-1.264" transform="translate(-600.388 -104.335) translate(600.388 104.335) translate(-599.18 -91.591)"/>
            <path d="M670.384 148.171a1.758 1.758 0 0 0 .376-1.38c-.108-.514-.564-.608-.939.016a1.6 1.6 0 0 0-.172 1.034c.105.522.473.6.737.338" transform="translate(-600.388 -104.335) translate(600.388 104.335) translate(-559.375 -79.295)"/>
            <path d="M671.971 144.645c.439-.512.272-1.653-.12-1.612a1.12 1.12 0 0 0-.535 1.293c.1.531.361.659.655.319" transform="translate(-600.388 -104.335) translate(600.388 104.335) translate(-558.387 -81.28)"/>
            <path d="M668.516 151.718c.626-.586.47-1.76.029-1.8a1.277 1.277 0 0 0-.868 1.443c.107.745.518.659.839.361" transform="translate(-600.388 -104.335) translate(600.388 104.335) translate(-560.535 -77.18)"/>
            <path d="M601.919 129.47a2.941 2.941 0 0 0 .177-.7 7.016 7.016 0 0 0-.674 1.9h.014l.011-.013a7.989 7.989 0 0 0 .471-1.187" transform="translate(-600.388 -104.335) translate(600.388 104.335) translate(-599.776 -89.776)"/>
            <path d="M601.177 138.156c.027-.238.081-.865 0-.911a4.328 4.328 0 0 0-.277 2.067h.013a3.607 3.607 0 0 0 .266-1.16" transform="translate(-600.388 -104.335) translate(600.388 104.335) translate(-600.114 -84.728)"/>
            <path d="M673.129 141.416a1.384 1.384 0 0 0 .151-1.039c-.161-.678-.568-.057-.573-.049a1.277 1.277 0 0 0-.1.851c.1.428.35.471.518.243" transform="translate(-600.388 -104.335) translate(600.388 104.335) translate(-557.625 -83.053)"/>
            <path d="M666.212 155.3c.554-.469.685-1.636.191-1.707a1.209 1.209 0 0 0-1.048 1.407c.088.536.513.587.855.3" transform="translate(-600.388 -104.335) translate(600.388 104.335) translate(-561.908 -74.991)"/>
            <path d="M674.029 133.044c.013-.011.12-.128 0-.559-.137-.442-.309-.3-.336-.249a.7.7 0 0 0 .021.468c.092.292.24.415.315.345" transform="translate(-600.388 -104.335) translate(600.388 104.335) translate(-556.984 -87.751)"/>
            <path d="M601.105 132.866a1.955 1.955 0 0 0 .076-.673 4.554 4.554 0 0 0-.411 1.725h.01a5.071 5.071 0 0 0 .325-1.047" transform="translate(-600.388 -104.335) translate(600.388 104.335) translate(-600.172 -87.738)"/>
            <path d="M601.5 144.18c.038-.74-.027-.752-.052-.755a4.284 4.284 0 0 0-.075 1.669h.01a3.186 3.186 0 0 0 .118-.916" transform="translate(-600.388 -104.335) translate(600.388 104.335) translate(-599.836 -81.046)"/>
            <path d="M673.657 129.956l.013.021a3.352 3.352 0 0 0-.237-.586c0 .006-.01.014.046.172a2.861 2.861 0 0 0 .172.389" transform="translate(-600.388 -104.335) translate(600.388 104.335) translate(-557.12 -89.409)"/>
            <path d="M673.941 138.5a1.06 1.06 0 0 0 .062-.769c-.024-.174-.1-.271-.2-.251 0 0-.352.142-.221.792.076.338.223.432.357.228" transform="translate(-600.388 -104.335) translate(600.388 104.335) translate(-557.048 -84.586)"/>
            <path d="M600.97 142.151a2.026 2.026 0 0 0-.045-.646 3.367 3.367 0 0 0-.057 1.441 2.681 2.681 0 0 0 .1-.795" transform="translate(-600.388 -104.335) translate(600.388 104.335) translate(-600.135 -82.19)"/>
            <path d="M600.592 136.53c.021-.161.062-.539.011-.576-.059.013-.116.335-.153.6s-.1.737-.033.753h.008a3.09 3.09 0 0 0 .167-.782" transform="translate(-600.388 -104.335) translate(600.388 104.335) translate(-600.388 -85.497)"/>
            <path d="M674.434 136.046c.1-.2.016-.723-.108-.689 0 0-.2.094-.108.525.068.255.159.247.2.179l.011-.019" transform="translate(-600.388 -104.335) translate(600.388 104.335) translate(-556.67 -85.854)"/>
            <path d="M674.147 131.72c.03-.034-.067-.453-.156-.46-.01 0-.053 0 .008.206s.126.276.148.254" transform="translate(-600.388 -104.335) translate(600.388 104.335) translate(-556.803 -88.294)"/>
            <path d="M601.538 129.18c.03-.078.059-.156.091-.235v.006l-.105.274c-.04.105-.081.212-.119.319.045-.123.091-.244.137-.365" transform="translate(-600.388 -104.335) translate(600.388 104.335) translate(-599.788 -89.673)"/>
            <path d="M632.394 117c0-.062.01-.075.075-.1-.46-.215-.715-.335-1.078-.5 0 .041.049.065.045.109 0 .027-.029.043-.062.064.341.144.68.29 1.021.437V117" transform="translate(-600.388 -104.335) translate(600.388 104.335) translate(-582.034 -97.143)"/>
            <path d="M641.9 115.738l.7-.543c-.051 0-.1.019-.151.013a.116.116 0 0 1-.084-.043q-.322.268-.642.538l.153.053.022-.018" transform="translate(-600.388 -104.335) translate(600.388 104.335) translate(-575.903 -97.883)"/>
        </g>
        <g>
            <path d="M698.411 134.624h-8.521l-1.37 4.32h-5.646l8.286-22.3h6.014l8.285 22.3h-5.646zm-7.116-4.352h5.713l-2.841-9.41z" transform="translate(-600.388 -104.335) translate(731.333 122.069) translate(-682.473 -114.735)"/>
            <path d="M703.246 134.421a1.6 1.6 0 0 0 .267.988 1.242 1.242 0 0 0 1.035.353 7.872 7.872 0 0 0 1.137-.1l.167 3.685a10.526 10.526 0 0 1-1.521.318 12.863 12.863 0 0 1-1.755.116 5.491 5.491 0 0 1-2.237-.4 3.746 3.746 0 0 1-1.438-1.071 4.185 4.185 0 0 1-.769-1.524 6.664 6.664 0 0 1-.232-1.757v-19.22h5.345z" transform="translate(-600.388 -104.335) translate(731.333 122.069) translate(-673.572 -115.235)"/>
            <path d="M704.037 120.462h5.111v1.938a5.6 5.6 0 0 1 4.912-2.277 5.788 5.788 0 0 1 2.572.586 6.174 6.174 0 0 1 2.089 1.674 8.073 8.073 0 0 1 1.385 2.63 11.1 11.1 0 0 1 .5 3.448 9.726 9.726 0 0 1-.685 3.8 8.071 8.071 0 0 1-1.838 2.729 7.524 7.524 0 0 1-2.689 1.656 9.6 9.6 0 0 1-3.274.552 8.952 8.952 0 0 1-1.536-.117 9.576 9.576 0 0 1-1.2-.286v6.966h-5.346zm8.086 3.784a4 4 0 0 0-1.57.284 3.251 3.251 0 0 0-1.17.854v7.6a4.284 4.284 0 0 0 .836.2 7.844 7.844 0 0 0 1.068.065 3.5 3.5 0 0 0 3.041-1.289 5.787 5.787 0 0 0 .935-3.466 5.679 5.679 0 0 0-.752-3.029 2.6 2.6 0 0 0-2.388-1.219z" transform="translate(-600.388 -104.335) translate(731.333 122.069) translate(-669.937 -112.66)"/>
            <path d="M715.941 139.443v-23.638h5.345v9.174a4.5 4.5 0 0 1 1.9-1.725 5.707 5.707 0 0 1 2.471-.552 5.28 5.28 0 0 1 2.774.686 5.591 5.591 0 0 1 1.855 1.824 8.019 8.019 0 0 1 1.035 2.63 14.983 14.983 0 0 1 .318 3.131v8.47H726.3v-8.573a5.531 5.531 0 0 0-.635-3 2.165 2.165 0 0 0-1.936-.953 2.8 2.8 0 0 0-1.454.367 3.114 3.114 0 0 0-.986.906v11.249z" transform="translate(-600.388 -104.335) translate(731.333 122.069) translate(-662.886 -115.235)"/>
            <path d="M736.86 135.263a6.84 6.84 0 0 1-2.088 1.355 7.068 7.068 0 0 1-2.89.586 5.025 5.025 0 0 1-1.971-.367 4.132 4.132 0 0 1-1.454-1.005 4.454 4.454 0 0 1-.9-1.49 5.186 5.186 0 0 1-.318-1.824 4.164 4.164 0 0 1 1.42-3.433 7.128 7.128 0 0 1 4.025-1.356c.646-.043 1.331-.078 2.056-.1s1.365-.045 1.92-.067v-.536q0-2.679-2.973-2.678a9.363 9.363 0 0 0-2.255.268 8.862 8.862 0 0 0-1.989.737l-.968-3.717a11.334 11.334 0 0 1 2.756-1.09 13.518 13.518 0 0 1 3.459-.418 7.629 7.629 0 0 1 5.379 1.79 6.972 6.972 0 0 1 1.938 5.375v9.576h-5.147zm-2.906-1.575a5.146 5.146 0 0 0 1.454-.2 5.494 5.494 0 0 0 1.252-.536v-2.443c-.533.043-1.013.1-1.436.15s-.834.105-1.236.152q-1.639.2-1.637 1.538a1.23 1.23 0 0 0 .417.972 1.735 1.735 0 0 0 1.186.367z" transform="translate(-600.388 -104.335) translate(731.333 122.069) translate(-656.195 -112.66)"/>
            <path d="M738.255 118.461a2.981 2.981 0 0 1 .836-2.143 3.145 3.145 0 0 1 4.342 0 3.165 3.165 0 0 1 0 4.286 3.141 3.141 0 0 1-4.342 0 2.973 2.973 0 0 1-.836-2.143zm.334 21.2V123.25h5.345v16.406z" transform="translate(-600.388 -104.335) translate(731.333 122.069) translate(-649.668 -115.448)"/>
            <path d="M743.929 136.868v-16.406h5.145v2.143a4.476 4.476 0 0 1 1.989-1.909 6.037 6.037 0 0 1 2.589-.57 5.277 5.277 0 0 1 2.772.686 5.588 5.588 0 0 1 1.855 1.824 7.984 7.984 0 0 1 1.035 2.63 14.983 14.983 0 0 1 .318 3.131v8.47h-5.345V128.3a5.545 5.545 0 0 0-.635-3 2.17 2.17 0 0 0-1.938-.953 2.8 2.8 0 0 0-1.454.367 3.111 3.111 0 0 0-.986.906v11.249z" transform="translate(-600.388 -104.335) translate(731.333 122.069) translate(-646.307 -112.66)"/>
            <path d="M696.287 157.807h-6.147l-7.517-22.3h5.747l4.845 16.978 4.844-16.978h5.741z" transform="translate(-600.388 -104.335) translate(731.333 122.069) translate(-682.622 -103.498)"/>
            <path d="M703.383 138.99a6.825 6.825 0 0 1 5.08 1.891 7.128 7.128 0 0 1 1.871 5.239 13.272 13.272 0 0 1-.3 2.713h-9.489a3.452 3.452 0 0 0 1.019 2.429 4.063 4.063 0 0 0 2.923.919 15.51 15.51 0 0 0 2.522-.217 9.25 9.25 0 0 0 2.29-.653l.667 3.448a11.793 11.793 0 0 1-2.857.972 16.013 16.013 0 0 1-3.291.335 10.619 10.619 0 0 1-3.776-.621 7.608 7.608 0 0 1-2.74-1.723 7.267 7.267 0 0 1-1.67-2.646 9.8 9.8 0 0 1-.567-3.415 10.524 10.524 0 0 1 .584-3.618 7.575 7.575 0 0 1 1.67-2.727 7.286 7.286 0 0 1 2.622-1.725 9.388 9.388 0 0 1 3.442-.601zm-.166 3.413a2.4 2.4 0 0 0-1.955.822 3.417 3.417 0 0 0-.685 2.26h4.744a2.339 2.339 0 0 0 .067-.57 2.808 2.808 0 0 0-.568-1.792 1.929 1.929 0 0 0-1.602-.723z" transform="translate(-600.388 -104.335) translate(731.333 122.069) translate(-675.251 -101.422)"/>
            <path d="M706.288 155.731v-16.407h5.146v2.143a4.473 4.473 0 0 1 1.987-1.909 6.06 6.06 0 0 1 2.589-.568 5.283 5.283 0 0 1 2.774.685 5.573 5.573 0 0 1 1.853 1.826 8 8 0 0 1 1.037 2.628 15 15 0 0 1 .317 3.131v8.472h-5.346v-8.573a5.523 5.523 0 0 0-.635-3 2.164 2.164 0 0 0-1.938-.954 2.779 2.779 0 0 0-1.452.369 3.056 3.056 0 0 0-.986.9v11.25z" transform="translate(-600.388 -104.335) translate(731.333 122.069) translate(-668.604 -101.422)"/>
            <path d="M716.973 140.8h2.5v-4.286h5.346v4.286h4.712v4.085h-4.712v6.4a2.458 2.458 0 0 0 .419 1.518 1.8 1.8 0 0 0 1.521.551 9.051 9.051 0 0 0 1.218-.085 7.77 7.77 0 0 0 1.186-.251l.368 3.744a7.912 7.912 0 0 1-1.971.574 13.622 13.622 0 0 1-2.339.2 6.486 6.486 0 0 1-2.656-.487 4.806 4.806 0 0 1-1.771-1.305 5.175 5.175 0 0 1-1-1.942 8.693 8.693 0 0 1-.318-2.394v-6.53h-2.5z" transform="translate(-600.388 -104.335) translate(731.333 122.069) translate(-662.274 -102.898)"/>
            <path d="M741.727 139.2v16.408h-5.146v-2.143a5.208 5.208 0 0 1-2.105 1.942 5.881 5.881 0 0 1-2.471.536 5.173 5.173 0 0 1-2.756-.688 5.307 5.307 0 0 1-1.806-1.826 8.177 8.177 0 0 1-.986-2.627 15.773 15.773 0 0 1-.3-3.131V139.2h5.343v8.573a6.044 6.044 0 0 0 .568 3 2.006 2.006 0 0 0 1.87.954 2.8 2.8 0 0 0 1.455-.369 3.1 3.1 0 0 0 .984-.9V139.2z" transform="translate(-600.388 -104.335) translate(731.333 122.069) translate(-656.834 -101.297)"/>
            <path d="M748.491 143.87h-.635q-3.174 0-4.476 1.607v10.18h-5.347v-16.409h5.18v2.746a4.525 4.525 0 0 1 1.436-2.11 3.967 3.967 0 0 1 2.54-.769 4.952 4.952 0 0 1 .785.049 4.7 4.7 0 0 1 .651.15z" transform="translate(-600.388 -104.335) translate(731.333 122.069) translate(-649.8 -101.347)"/>
            <path d="M753.417 138.99a6.819 6.819 0 0 1 5.078 1.891 7.122 7.122 0 0 1 1.873 5.239 13.264 13.264 0 0 1-.3 2.713h-9.489a3.451 3.451 0 0 0 1.018 2.429 4.068 4.068 0 0 0 2.925.919 15.508 15.508 0 0 0 2.522-.217 9.215 9.215 0 0 0 2.288-.653l.668 3.449a11.8 11.8 0 0 1-2.857.972 16.015 16.015 0 0 1-3.292.335 10.613 10.613 0 0 1-3.775-.621 7.608 7.608 0 0 1-2.74-1.723 7.265 7.265 0 0 1-1.67-2.646 9.8 9.8 0 0 1-.568-3.415 10.562 10.562 0 0 1 .584-3.618 7.6 7.6 0 0 1 1.672-2.727 7.274 7.274 0 0 1 2.623-1.725 9.382 9.382 0 0 1 3.44-.602zm-.167 3.413a2.4 2.4 0 0 0-1.954.822 3.418 3.418 0 0 0-.685 2.26h4.744a2.339 2.339 0 0 0 .067-.57 2.809 2.809 0 0 0-.568-1.792 1.934 1.934 0 0 0-1.604-.723z" transform="translate(-600.388 -104.335) translate(731.333 122.069) translate(-645.615 -101.422)"/>
            <path d="M768.355 150.373a5.554 5.554 0 0 1-.518 2.446 4.884 4.884 0 0 1-1.471 1.79 6.743 6.743 0 0 1-2.255 1.088 10.529 10.529 0 0 1-2.873.369 16.669 16.669 0 0 1-2.807-.252 12.293 12.293 0 0 1-2.673-.753l.736-3.717a10.547 10.547 0 0 0 2.288.653 12.856 12.856 0 0 0 2.189.219 4.557 4.557 0 0 0 1.686-.286.982.982 0 0 0 .72-.954.877.877 0 0 0-.635-.854q-.635-.249-1.9-.72a16.719 16.719 0 0 1-1.938-.82 6.388 6.388 0 0 1-1.554-1.072 4.57 4.57 0 0 1-1.019-1.422 5.151 5.151 0 0 1 1.436-5.828 8.012 8.012 0 0 1 4.712-1.27 12.929 12.929 0 0 1 2.806.282 8.727 8.727 0 0 1 2.44.956l-.734 3.515a11.5 11.5 0 0 0-1.9-.653 8.548 8.548 0 0 0-2.105-.251 4.648 4.648 0 0 0-1.487.184.728.728 0 0 0-.518.753.853.853 0 0 0 .618.82q.619.251 1.588.619.733.268 1.637.653a7.8 7.8 0 0 1 1.686.988 5.52 5.52 0 0 1 1.32 1.457 3.8 3.8 0 0 1 .525 2.06z" transform="translate(-600.388 -104.335) translate(731.333 122.069) translate(-639.3 -101.422)"/>
        </g>
    </g>
</svg>
