<svg xmlns="http://www.w3.org/2000/svg" width="320" height="140" viewBox="0 0 320 140">
    <defs>
        <linearGradient id="linear-gradient" x1=".773" x2=".013" y1=".068" y2=".988" gradientUnits="objectBoundingBox">
            <stop offset="0" stop-color="#00c7ff"/>
            <stop offset=".126" stop-color="#0fa2f6"/>
            <stop offset=".405" stop-color="#3445e0"/>
            <stop offset=".603" stop-color="#5100d1"/>
            <stop offset=".672" stop-color="#4802be"/>
            <stop offset=".813" stop-color="#310a8d"/>
            <stop offset="1" stop-color="#0f1644"/>
        </linearGradient>
        <style>
            .cls-2{fill:#0f1644}
        </style>
    </defs>
    <g id="bifrost" transform="translate(-360 -3189)">
        <path id="Base" fill="none" d="M0 0H320V140H0z" transform="translate(360 3189)"/>
        <g id="bifrost-2" transform="translate(199.631 2952.377)">
            <g id="그룹_6297" transform="translate(261.759 294.069)">
                <path id="패스_8447" d="M660.484 328.34a14.919 14.919 0 0 0-13.521.051 12.014 12.014 0 0 0-4.7 4.478 12.823 12.823 0 0 0 .049 12.78 12 12 0 0 0 4.736 4.443 14.926 14.926 0 0 0 13.521-.051 12.3 12.3 0 0 0-.082-21.7zm-.133 14.847a7.05 7.05 0 0 1-2.695 2.749 8.074 8.074 0 0 1-7.716.03 7.053 7.053 0 0 1-2.715-2.729 8.62 8.62 0 0 1-.031-7.992 7.042 7.042 0 0 1 2.695-2.749 8.07 8.07 0 0 1 7.716-.029 7.043 7.043 0 0 1 2.715 2.729 8.628 8.628 0 0 1 .031 7.992z" class="cls-2" transform="translate(-544.527 -326.635)"/>
                <g id="그룹_6296" transform="translate(0 .895)">
                    <path id="패스_8448" d="M387.349 342.711a6.371 6.371 0 0 0-3.247-2.176 5.795 5.795 0 0 0 3.184-5.317 5.343 5.343 0 0 0-2.378-4.572q-2.366-1.679-6.775-1.662l-10.3.039h-.007a1.475 1.475 0 0 0-1.466 1.411v.146l.079 21.026v.106a1.475 1.475 0 0 0 1.446 1.424h.055l10.975-.041q4.719-.018 7.176-1.732a5.571 5.571 0 0 0 2.444-4.883 6.036 6.036 0 0 0-1.186-3.769zm-15.434-9.5l5.546-.022a5.716 5.716 0 0 1 3.137.694 2.372 2.372 0 0 1 1.075 2.117 2.413 2.413 0 0 1-1.06 2.14 5.593 5.593 0 0 1-3.132.735l-5.546.021zm9.891 14.947a6.176 6.176 0 0 1-3.321.736l-6.51.025-.022-5.959 6.511-.025q4.443-.016 4.454 2.98a2.476 2.476 0 0 1-1.113 2.243z" class="cls-2" transform="translate(-366.357 -328.985)"/>
                </g>
                <path id="패스_8449" d="M579.618 344.589a7.856 7.856 0 0 0 4.933-7.631 8.362 8.362 0 0 0-1.292-4.645 8.262 8.262 0 0 0-3.647-3.017 13.388 13.388 0 0 0-5.567-1.047l-8.934.034h-.041a1.478 1.478 0 0 0-1.457 1.452c0 .009-.005.018-.005.027s.005.018.006.028l.08 21.111v.034a1.479 1.479 0 0 0 1.453 1.461c.01 0 .018.006.028.006s.018-.006.028-.006l2.583-.01h.013a1.482 1.482 0 0 0 1.475-1.475v-.007-.007l-.02-5.234 4.858-.018h.276l4.232 6.065a1.439 1.439 0 0 0 .557.481 1.905 1.905 0 0 0 .685.15l2.291-.009c.026 0 .048.015.075.015s.05-.014.077-.015l2.752-.011zm-5.834-3.388l-4.547.017-.032-8.405 4.547-.017a5.86 5.86 0 0 1 3.828 1.071 4.344 4.344 0 0 1 .023 6.217 5.79 5.79 0 0 1-3.82 1.116z" class="cls-2" transform="translate(-494.516 -327.611)"/>
                <path id="패스_8450" d="M752.014 340.04a7.481 7.481 0 0 0-3.022-2.055 39.446 39.446 0 0 0-4.518-1.293 20.226 20.226 0 0 1-3.949-1.173 1.955 1.955 0 0 1-1.3-1.838 2.313 2.313 0 0 1 1.112-2 6.269 6.269 0 0 1 3.459-.771 12.853 12.853 0 0 1 5.285 1.179c.036.016.071.036.107.053a1.433 1.433 0 0 0 1.834-.7l.027-.068.05-.125.019-.047.564-1.4.016-.04a1.471 1.471 0 0 0 .112-.554 1.456 1.456 0 0 0-.642-1.189c-.139-.068-.268-.144-.412-.208a14.45 14.45 0 0 0-2.428-.845 18.546 18.546 0 0 0-4.515-.534 13.993 13.993 0 0 0-5.594 1.02 7.652 7.652 0 0 0-3.417 2.717 6.711 6.711 0 0 0-1.123 3.811 5.672 5.672 0 0 0 1.272 3.853 7.334 7.334 0 0 0 3.022 2.09 39.046 39.046 0 0 0 4.518 1.292q1.792.407 2.845.747a5.1 5.1 0 0 1 1.725.906 1.792 1.792 0 0 1 .678 1.427 2.13 2.13 0 0 1-1.13 1.881 6.814 6.814 0 0 1-3.51.72 13.832 13.832 0 0 1-6.672-1.71c-.023-.012-.044-.027-.067-.04a1.452 1.452 0 0 0-1.863.687l-.044.1-.015.033c-.01.024-.023.046-.031.071l-.624 1.4-.048.108a1.422 1.422 0 0 0 .671 1.805l.091.053.076.04h.008a15.207 15.207 0 0 0 2.969 1.175 19.746 19.746 0 0 0 5.532.754 14.13 14.13 0 0 0 5.611-1.021 7.752 7.752 0 0 0 3.451-2.717 6.588 6.588 0 0 0 1.14-3.777 5.548 5.548 0 0 0-1.27-3.817z" class="cls-2" transform="translate(-604.984 -326.43)"/>
                <path id="패스_8451" d="M823 330.293v-1.627a1.474 1.474 0 0 0-1.445-1.42h-.055l-18.029.069h-.011a1.479 1.479 0 0 0-1.472 1.455c0 .009-.006.018-.006.027s.006.018.006.028l.006 1.536v.041a1.479 1.479 0 0 0 1.463 1.459h.033l6.225-.023.069 18.083a1.48 1.48 0 0 0 1.456 1.477c.01 0 .018.006.027.006s.019-.005.029-.006l2.509-.01h.156a1.475 1.475 0 0 0 1.4-1.464v-.007l-.069-18.1 6.172-.023h.125a1.473 1.473 0 0 0 1.411-1.446z" class="cls-2" transform="translate(-649.392 -326.959)"/>
                <path id="패스_8452" d="M510.817 331.423l-.006-1.437v-.112a1.474 1.474 0 0 0-1.445-1.421h-.055l-15.213.058h-.064a1.477 1.477 0 0 0-1.446 1.45v.055l.082 21.129v.02a1.478 1.478 0 0 0 1.452 1.458h.056l2.514-.009h.156a1.471 1.471 0 0 0 1.4-1.433v-.07l-.009-2.463-.018-4.823 5.026-.019h.977l3.642-.014c.01 0 .018.006.028.006s.019-.006.029-.006a1.48 1.48 0 0 0 1.454-1.473v-.019l-.006-1.477c0-.011.006-.021.006-.032s-.006-.022-.007-.034a1.48 1.48 0 0 0-1.477-1.45l-9.69.034-.024-6.372 11.141-.042h.036a1.479 1.479 0 0 0 1.46-1.453c0-.009.006-.018.006-.027s-.005-.014-.005-.024z" class="cls-2" transform="translate(-448.373 -327.744)"/>
                <path id="패스_8453" d="M456.868 351.363l-.08-21.134v-.011a1.48 1.48 0 0 0-1.455-1.473h-2.648v.012a1.48 1.48 0 0 0-1.478 1.456c0 .009-.006.018-.006.027s.006.018.006.028l.08 21.083c0 .014-.008.025-.008.039s.008.026.008.04a1.475 1.475 0 0 0 1.448 1.438h.056l2.522-.01h.156a1.472 1.472 0 0 0 1.4-1.44c0-.009.005-.018.005-.027s-.006-.018-.006-.028z" class="cls-2" transform="translate(-421.483 -327.935)"/>
            </g>
            <path id="패스_8454" fill="url(#linear-gradient)" d="M246.3 310.657a.845.845 0 0 0-.792.311 17.391 17.391 0 0 1-1.912 1.814l-.349.281-.111.089a.645.645 0 0 0-.25.622c.009.067.024.127.038.19s.032.126.049.19c.061.219.121.438.169.653l.009.037c.068.308.126.622.174.932l.021.123c.039.272.072.564.1.866l.008.074c0 .038.008.076.01.115.027.373.04.714.04 1.043a14.58 14.58 0 0 1-14.563 14.563h-17.868a.916.916 0 0 1-.9-.9v-15.422a.916.916 0 0 1 .907-.9h17.86c.451 0 .929-.02 1.461-.06l.171-.012c.438-.036.886-.091 1.37-.167l.207-.033c.45-.075.9-.167 1.337-.273l.163-.041c.473-.119.929-.25 1.353-.391l.039-.013a19.258 19.258 0 0 0 2.727-1.149q.647-.333 1.285-.725l.035-.022c.419-.26.828-.534 1.212-.814l1.114-.877a16.513 16.513 0 0 0 3.475-3.83l.034-.04c.105-.156.215-.335.325-.513l.113-.182a19.331 19.331 0 0 0-16.42-29.57H207.7a2.382 2.382 0 0 0-2.33 2.356v22.106a2.384 2.384 0 0 0 2.375 2.345h21.195a14.347 14.347 0 0 1 6.434 1.517l.029.015a.911.911 0 0 0 .347.07.9.9 0 0 0 .554-.2l.125-.109a16.941 16.941 0 0 0 2.4-2.627.573.573 0 0 0 .1-.447.494.494 0 0 0-.215-.34c-.057-.034-.117-.062-.175-.1-.251-.144-.505-.283-.763-.415-.154-.079-.309-.155-.464-.229-.172-.082-.344-.162-.518-.239q-.423-.189-.855-.356l-.118-.045q-.55-.211-1.113-.387h-.005a19.3 19.3 0 0 0-5.768-.893h-17.888a.914.914 0 0 1-.882-.9v-15.434a.916.916 0 0 1 .913-.9h17.862c.352 0 .7.026 1.038.051h.05a14.612 14.612 0 0 1 13.472 14.513 14.462 14.462 0 0 1-1.134 5.626 14.748 14.748 0 0 1-.724 1.482l-.024.037a19.946 19.946 0 0 1-3.3 3.959c-.048.044-.1.087-.146.129l-.1.085a14.7 14.7 0 0 1-1.628 1.148 14.52 14.52 0 0 1-7.509 2.1h-21.19a2.385 2.385 0 0 0-2.368 2.345V334.988a2.388 2.388 0 0 0 2.386 2.367h21.177A19.377 19.377 0 0 0 248.295 318a19.1 19.1 0 0 0-1.208-6.694.931.931 0 0 0-.787-.649z"/>
        </g>
    </g>
</svg>
