<svg xmlns="http://www.w3.org/2000/svg" width="320" height="140" viewBox="0 0 320 140">
    <defs>
        <style>
            .cls-2{fill:#1c1c1e}
        </style>
    </defs>
    <g id="DOOROPEN" transform="translate(-360 -3189)">
        <path id="Base" transform="translate(360 3189)" style="fill:none" d="M0 0h320v140H0z"/>
        <g id="DOOROPEN-2" data-name="DOOROPEN" transform="translate(266.365 3004.662)">
            <path id="패스_8562" data-name="패스 8562" class="cls-2" d="M244.592 238.182h11.765c8.23 0 13.683 4.241 13.683 10.7a9.971 9.971 0 0 1-6.008 9.291l6.817 12.37H261.2l-5.554-10.8h-2.727v10.8h-8.332zm8.332 7.32v6.917h4.09c2.524 0 4.191-1.413 4.191-3.535 0-2.02-1.667-3.383-4.191-3.383z" transform="translate(-12.392 -.086)"/>
            <path id="패스_8563" data-name="패스 8563" class="cls-2" d="M318.967 238.182h11.765c8.23 0 13.683 4.443 13.683 11.209 0 6.867-5.454 11.361-13.733 11.361H327.3v9.795h-8.332zm8.332 7.32v7.927h4.09a3.884 3.884 0 0 0 4.191-4.039c0-2.323-1.667-3.888-4.191-3.888z" transform="translate(-20.011 -.086)"/>
            <path id="패스_8564" data-name="패스 8564" class="cls-2" d="M351.823 238.182h21.51v7.826h-13.179v4.241h11.159v7.827h-11.159v4.645h13.179v7.827h-21.51z" transform="translate(-23.378 -.086)"/>
            <path id="패스_8565" data-name="패스 8565" class="cls-2" d="M389.184 252.117v18.429h-8.332v-32.364h8.938l11.866 18.732v-18.732h8.331v32.365h-8.937z" transform="translate(-26.352 -.086)"/>
            <path id="패스_8566" data-name="패스 8566" d="M293.063 237.338a16.939 16.939 0 1 0 16.965 16.962 16.958 16.958 0 0 0-16.965-16.962z" transform="translate(-15.62)" style="fill:#ff7c32"/>
            <path id="패스_8567" data-name="패스 8567" d="M135.4 238.182h-11.765v32.365H135.4c10.553 0 18.328-6.817 18.328-16.107 0-9.392-7.775-16.258-18.328-16.258z" transform="translate(0 -.086)" style="fill:#124f9c"/>
            <path id="패스_8568" data-name="패스 8568" d="M177.507 237.338a16.939 16.939 0 1 0 16.964 16.962 16.959 16.959 0 0 0-16.964-16.962z" transform="translate(-3.781)" style="fill:#f6f973"/>
            <path id="패스_8569" data-name="패스 8569" d="M218.689 237.338a16.939 16.939 0 1 0 16.965 16.962 16.959 16.959 0 0 0-16.965-16.962z" transform="translate(-8)" style="fill:#7bff8f"/>
        </g>
    </g>
</svg>
