<svg xmlns="http://www.w3.org/2000/svg" width="300" height="250.5" viewBox="0 0 300 250.5">
    <path transform="rotate(-90 125 125)" style="fill:none" d="M0 0h250v300H0z"/>
    <g data-name="그룹 6217">
        <g data-name="그룹 6204">
            <g data-name="그룹 6203" style="opacity:.25">
                <path data-name="선 175" transform="rotate(-90 66.26 59.101)" style="stroke:#246fed;stroke-miterlimit:10;fill:none" d="M0 0v31.928"/>
                <path data-name="패스 8340" d="m1821.78 1124.174-27.544-16.125-28.081 16.123" transform="rotate(-90 425.318 1494.28)" style="stroke:#246fed;stroke-miterlimit:10;fill:none"/>
            </g>
            <path data-name="패스 8341" d="m1821.78 1069.608-27.544-16.123-28.081 16.125v31.929l28.081 16.123 27.544-16.123v-31.929z" transform="rotate(-90 436.557 1483.042)" style="stroke:#246fed;stroke-miterlimit:10;fill:none"/>
            <path data-name="선 176" transform="rotate(-90 82.305 43.057)" style="stroke:#246fed;stroke-miterlimit:10;fill:none" d="M0 31.928V0"/>
            <path data-name="패스 8342" d="m1821.78 1080.9-27.544 16.124-28.081-16.123" transform="rotate(-90 430.909 1488.689)" style="stroke:#246fed;stroke-miterlimit:10;fill:none"/>
        </g>
        <g data-name="그룹 6206">
            <g data-name="그룹 6205" style="opacity:.25">
                <path data-name="선 177" transform="rotate(-90 177.302 -51.94)" style="stroke:#246fed;stroke-miterlimit:10;fill:none" d="M0 0v31.928"/>
                <path data-name="패스 8343" d="m1821.78 1501.828-27.544-16.125-28.081 16.123" transform="rotate(-90 347.533 1572.066)" style="stroke:#246fed;stroke-miterlimit:10;fill:none"/>
            </g>
            <path data-name="패스 8344" d="m1821.78 1447.262-27.544-16.123-28.081 16.125v31.929l28.081 16.123 27.544-16.123v-31.929z" transform="rotate(-90 358.771 1560.827)" style="stroke:#246fed;stroke-miterlimit:10;fill:none"/>
            <path data-name="선 178" transform="rotate(-90 193.346 -67.985)" style="stroke:#246fed;stroke-miterlimit:10;fill:none" d="M0 31.928V0"/>
            <path data-name="패스 8345" d="m1821.78 1458.556-27.544 16.125-28.081-16.123" transform="rotate(-90 353.124 1566.474)" style="stroke:#246fed;stroke-miterlimit:10;fill:none"/>
        </g>
        <g data-name="그룹 6208">
            <g data-name="그룹 6207" style="opacity:.25">
                <path data-name="선 179" transform="rotate(-90 142.226 79.694)" style="stroke:#246fed;stroke-miterlimit:10;fill:none" d="M0 0v31.928"/>
                <path data-name="패스 8346" d="m1657.583 1218.336-27.544-16.125-28.081 16.123" transform="rotate(-90 372.104 1479.855)" style="stroke:#246fed;stroke-miterlimit:10;fill:none"/>
            </g>
            <path data-name="패스 8347" d="m1657.583 1163.77-27.544-16.123-28.081 16.124v31.929l28.081 16.123 27.544-16.123v-31.93z" transform="rotate(-90 383.342 1468.616)" style="stroke:#246fed;stroke-miterlimit:10;fill:none"/>
            <path data-name="선 180" transform="rotate(-90 158.27 63.649)" style="stroke:#246fed;stroke-miterlimit:10;fill:none" d="M0 31.928V0"/>
            <path data-name="패스 8348" d="m1657.583 1175.064-27.544 16.125-28.081-16.123" transform="rotate(-90 377.695 1474.263)" style="stroke:#246fed;stroke-miterlimit:10;fill:none"/>
        </g>
        <g data-name="그룹 6210">
            <g data-name="그룹 6209" style="opacity:.25">
                <path data-name="선 181" transform="rotate(-90 45.513 -17.019)" style="stroke:#246fed;stroke-miterlimit:10;fill:none" d="M0 0v31.928"/>
                <path data-name="패스 8349" d="m1986.5 1218.336-27.544-16.125-28.081 16.123" transform="rotate(-90 439.852 1547.603)" style="stroke:#246fed;stroke-miterlimit:10;fill:none"/>
            </g>
            <path data-name="패스 8350" d="m1986.5 1163.77-27.544-16.123-28.081 16.124v31.929l28.081 16.123 27.544-16.123v-31.93z" transform="rotate(-90 451.09 1536.364)" style="stroke:#246fed;stroke-miterlimit:10;fill:none"/>
            <path data-name="선 182" transform="rotate(-90 61.558 -33.063)" style="stroke:#246fed;stroke-miterlimit:10;fill:none" d="M0 31.928V0"/>
            <path data-name="패스 8351" d="m1986.5 1175.064-27.544 16.125-28.081-16.123" transform="rotate(-90 445.443 1542.011)" style="stroke:#246fed;stroke-miterlimit:10;fill:none"/>
        </g>
        <g data-name="그룹 6212">
            <g data-name="그룹 6211" style="opacity:.25">
                <path data-name="선 183" transform="rotate(-90 198.545 23.375)" style="stroke:#246fed;stroke-miterlimit:10;fill:none" d="M0 0v31.928"/>
                <path data-name="패스 8352" d="m1657.583 1409.879-27.544-16.125-28.081 16.123" transform="rotate(-90 332.652 1519.307)" style="stroke:#246fed;stroke-miterlimit:10;fill:none"/>
            </g>
            <path data-name="패스 8353" d="m1657.583 1355.312-27.544-16.123-28.081 16.124v31.929l28.081 16.123 27.544-16.123v-31.931z" transform="rotate(-90 343.89 1508.068)" style="stroke:#246fed;stroke-miterlimit:10;fill:none"/>
            <path data-name="선 184" transform="rotate(-90 214.589 7.33)" style="stroke:#246fed;stroke-miterlimit:10;fill:none" d="M0 31.928V0"/>
            <path data-name="패스 8354" d="m1657.583 1366.606-27.544 16.125-28.081-16.123" transform="rotate(-90 338.243 1513.716)" style="stroke:#246fed;stroke-miterlimit:10;fill:none"/>
        </g>
        <g data-name="그룹 6214">
            <g data-name="그룹 6213" style="opacity:.25">
                <path data-name="선 185" transform="rotate(-90 101.832 -73.338)" style="stroke:#246fed;stroke-miterlimit:10;fill:none" d="M0 0v31.928"/>
                <path data-name="패스 8355" d="m1986.5 1409.879-27.544-16.125-28.081 16.123" transform="rotate(-90 400.4 1587.055)" style="stroke:#246fed;stroke-miterlimit:10;fill:none"/>
            </g>
            <path data-name="패스 8356" d="m1986.5 1355.312-27.544-16.123-28.081 16.124v31.929l28.081 16.123 27.544-16.123v-31.931z" transform="rotate(-90 411.638 1575.816)" style="stroke:#246fed;stroke-miterlimit:10;fill:none"/>
            <path data-name="선 186" transform="rotate(-90 117.877 -89.382)" style="stroke:#246fed;stroke-miterlimit:10;fill:none" d="M0 31.928V0"/>
            <path data-name="패스 8357" d="m1986.5 1366.606-27.544 16.125-28.081-16.123" transform="rotate(-90 405.99 1581.464)" style="stroke:#246fed;stroke-miterlimit:10;fill:none"/>
        </g>
        <g data-name="그룹 6216">
            <g data-name="그룹 6215" style="opacity:.25">
                <path data-name="선 187" transform="rotate(-90 106.015 19.142)" style="stroke:#246fed;stroke-miterlimit:10;fill:none" d="M.33 0 0 40.108"/>
                <path data-name="선 188" transform="rotate(-90 133.075 -28.76)" style="stroke:#246fed;stroke-miterlimit:10;fill:none" d="M34.164 20.427 0 0"/>
                <path data-name="선 189" transform="rotate(-90 171.202 9.368)" style="stroke:#246fed;stroke-miterlimit:10;fill:none" d="M34.164 0 0 20.424"/>
            </g>
            <path data-name="패스 8358" d="m1830.443 1220.779-54.676-32.005-55.743 32.008v63.38l55.743 32.005 54.676-32.005v-63.383z" transform="rotate(-90 399.189 1501.405)" style="stroke:#246fed;stroke-miterlimit:10;fill:none"/>
            <path data-name="선 190" transform="rotate(-90 137.699 -12.872)" style="stroke:#246fed;stroke-miterlimit:10;fill:none" d="M0 63.38V0"/>
            <path data-name="패스 8359" d="m1830.443 1243.2-54.676 32.008-55.743-32.005" transform="rotate(-90 387.979 1512.615)" style="stroke:#246fed;stroke-miterlimit:10;fill:none"/>
            <path data-name="패스 8360" d="m1820.211 1269.208-20.843-11.694-21.249 11.7v23.158l21.249 11.694 20.842-11.694v-23.158z" transform="rotate(-90 396.996 1527.529)" style="stroke:#246fed;stroke-miterlimit:10;opacity:.25;fill:none"/>
        </g>
    </g>
</svg>
