<svg xmlns="http://www.w3.org/2000/svg" width="260.054" height="251.157" viewBox="0 0 260.054 251.157">
    <path style="fill:none" d="M0 0h259v250H0z" transform="translate(.5 .579)"/>
    <g data-name="그룹 6230">
        <g data-name="그룹 6219">
            <g data-name="그룹 6218" style="opacity:.25">
                <path data-name="선 191" transform="translate(87.448 .827)" style="stroke:#246fed;stroke-miterlimit:10;fill:none" d="M0 0v49.702"/>
                <path data-name="패스 8361" d="m1839.3 740.906-42.7-25.1-43.533 25.1" transform="translate(-1709.15 -665.277)" style="stroke:#246fed;stroke-miterlimit:10;fill:none"/>
            </g>
            <path data-name="패스 8362" d="m1839.3 686.339-42.7-25.1-43.533 25.1v49.7l43.533 25.1 42.7-25.1v-49.7z" transform="translate(-1709.15 -660.661)" style="stroke:#246fed;stroke-miterlimit:10;fill:none"/>
            <path data-name="선 192" transform="translate(87.448 50.778)" style="stroke:#246fed;stroke-miterlimit:10;fill:none" d="M0 49.702V0"/>
            <path data-name="패스 8363" d="m1839.3 688.658-42.7 25.1-43.533-25.1" transform="translate(-1709.15 -662.98)" style="stroke:#246fed;stroke-miterlimit:10;fill:none"/>
        </g>
        <g data-name="그룹 6221">
            <g data-name="그룹 6220" style="opacity:.25">
                <path data-name="선 193" transform="translate(173.681 .826)" style="stroke:#246fed;stroke-miterlimit:10;fill:none" d="M0 0v49.702"/>
                <path data-name="패스 8364" d="m1933.889 740.9-42.7-25.1-43.533 25.1" transform="translate(-1717.507 -665.276)" style="stroke:#246fed;stroke-miterlimit:10;fill:none"/>
            </g>
            <path data-name="패스 8365" d="m1933.889 686.337-42.7-25.1-43.533 25.1v49.7l43.533 25.1 42.7-25.1v-49.7z" transform="translate(-1717.507 -660.661)" style="stroke:#246fed;stroke-miterlimit:10;fill:none"/>
            <path data-name="선 194" transform="translate(173.681 50.777)" style="stroke:#246fed;stroke-miterlimit:10;fill:none" d="M0 49.702V0"/>
            <path data-name="패스 8366" d="m1933.889 688.657-42.7 25.1-43.533-25.1" transform="translate(-1717.507 -662.98)" style="stroke:#246fed;stroke-miterlimit:10;fill:none"/>
        </g>
        <g data-name="그룹 6223">
            <g data-name="그룹 6222" style="opacity:.25">
                <path data-name="선 195" transform="translate(87.448 150.926)" style="stroke:#246fed;stroke-miterlimit:10;fill:none" d="M0 0v49.702"/>
                <path data-name="패스 8367" d="m1839.3 904.875-42.7-25.1-43.533 25.1" transform="translate(-1709.15 -679.146)" style="stroke:#246fed;stroke-miterlimit:10;fill:none"/>
            </g>
            <path data-name="패스 8368" d="m1839.3 850.308-42.7-25.1-43.533 25.1v49.7l43.533 25.1 42.7-25.1v-49.7z" transform="translate(-1709.15 -674.531)" style="stroke:#246fed;stroke-miterlimit:10;fill:none"/>
            <path data-name="선 196" transform="translate(87.448 200.877)" style="stroke:#246fed;stroke-miterlimit:10;fill:none" d="M0 49.702V0"/>
            <path data-name="패스 8369" d="m1839.3 852.627-42.7 25.1-43.533-25.1" transform="translate(-1709.15 -676.85)" style="stroke:#246fed;stroke-miterlimit:10;fill:none"/>
        </g>
        <g data-name="그룹 6225">
            <g data-name="그룹 6224" style="opacity:.25">
                <path data-name="선 197" transform="translate(173.681 150.925)" style="stroke:#246fed;stroke-miterlimit:10;fill:none" d="M0 0v49.702"/>
                <path data-name="패스 8370" d="m1933.889 904.874-42.7-25.1-43.533 25.1" transform="translate(-1717.507 -679.146)" style="stroke:#246fed;stroke-miterlimit:10;fill:none"/>
            </g>
            <path data-name="패스 8371" d="m1933.889 850.307-42.7-25.1-43.533 25.1v49.7l43.533 25.1 42.7-25.1v-49.7z" transform="translate(-1717.507 -674.531)" style="stroke:#246fed;stroke-miterlimit:10;fill:none"/>
            <path data-name="선 198" transform="translate(173.681 200.876)" style="stroke:#246fed;stroke-miterlimit:10;fill:none" d="M0 49.702V0"/>
            <path data-name="패스 8372" d="m1933.889 852.626-42.7 25.1-43.533-25.1" transform="translate(-1717.507 -676.85)" style="stroke:#246fed;stroke-miterlimit:10;fill:none"/>
        </g>
        <g data-name="그룹 6227">
            <g data-name="그룹 6226" style="opacity:.25">
                <path data-name="선 199" transform="translate(216.799 75.875)" style="stroke:#246fed;stroke-miterlimit:10;fill:none" d="M0 0v49.702"/>
                <path data-name="패스 8373" d="m1981.185 822.889-42.7-25.1-43.533 25.1" transform="translate(-1721.685 -672.212)" style="stroke:#246fed;stroke-miterlimit:10;fill:none"/>
            </g>
            <path data-name="패스 8374" d="m1981.185 768.322-42.7-25.1-43.533 25.1v49.7l43.533 25.1 42.7-25.1v-49.7z" transform="translate(-1721.685 -667.596)" style="stroke:#246fed;stroke-miterlimit:10;fill:none"/>
            <path data-name="선 200" transform="translate(216.799 125.826)" style="stroke:#246fed;stroke-miterlimit:10;fill:none" d="M0 49.702V0"/>
            <path data-name="패스 8375" d="m1981.185 770.641-42.7 25.1-43.533-25.1" transform="translate(-1721.685 -669.915)" style="stroke:#246fed;stroke-miterlimit:10;fill:none"/>
        </g>
        <g data-name="그룹 6229">
            <g data-name="그룹 6228" style="opacity:.25">
                <path data-name="선 201" transform="translate(44.033 75.874)" style="stroke:#246fed;stroke-miterlimit:10;fill:none" d="M0 0v49.702"/>
                <path data-name="패스 8376" d="m1791.676 822.888-42.7-25.1-43.533 25.1" transform="translate(-1704.943 -672.211)" style="stroke:#246fed;stroke-miterlimit:10;fill:none"/>
            </g>
            <path data-name="패스 8377" d="m1791.676 768.321-42.7-25.1-43.533 25.1v49.7l43.533 25.1 42.7-25.1v-49.7z" transform="translate(-1704.943 -667.596)" style="stroke:#246fed;stroke-miterlimit:10;fill:none"/>
            <path data-name="선 202" transform="translate(44.033 125.825)" style="stroke:#246fed;stroke-miterlimit:10;fill:none" d="M0 49.702V0"/>
            <path data-name="패스 8378" d="m1791.676 770.64-42.7 25.1-43.533-25.1" transform="translate(-1704.943 -669.915)" style="stroke:#246fed;stroke-miterlimit:10;fill:none"/>
        </g>
    </g>
</svg>
