<svg xmlns="http://www.w3.org/2000/svg" width="217" height="134" viewBox="0 0 217 134">
    <g>
        <g>
            <g>
                <path fill="#a57c33" d="M350.951 409.037h-21.982l-17.782-12.925-6.793-20.912 6.793-20.912 17.782-12.925h21.982l17.78 12.925 6.793 20.912-6.793 20.911zm-21.009-3h20.035l16.2-11.779 6.19-19.058-6.19-19.06-16.2-11.779h-20.035l-16.2 11.779-6.2 19.06 6.2 19.058z" transform="translate(-229.894 -333.493) translate(296.06 333.493) translate(-295.959 -333.48)"/>
                <path fill="#d8b85a" d="M348.313 400.94h-16.728l-13.536-9.84-5.169-15.916 5.169-15.917 13.536-9.836h16.728l13.536 9.836 5.168 15.917-5.168 15.916zm-15.756-3h14.785l11.956-8.687 4.564-14.064-4.562-14.064-11.956-8.689h-14.787l-11.957 8.689-4.567 14.064 4.567 14.064z" transform="translate(-229.894 -333.493) translate(296.06 333.493) translate(-295.948 -333.467)"/>
                <path d="M353.374 416.933h-27.1L304.346 401l-8.376-25.784 8.376-25.785 21.924-15.936h26.617v3h-25.643L306.9 351.284l-7.775 23.931 7.775 23.929 20.346 14.79H352.4l20.743-15.074 1.761 2.426z" transform="translate(-229.894 -333.493) translate(296.06 333.493) translate(-295.971 -333.493)"/>
            </g>
        </g>
        <g>
            <path d="M241.768 442.221a3.633 3.633 0 0 0-1.033-.995 4.9 4.9 0 0 0-1.242-.529 5.163 5.163 0 0 0-1.353-.185 6.654 6.654 0 0 0-1.957.258 4.217 4.217 0 0 0-1.39.7 2.924 2.924 0 0 0-.83 1.029 2.869 2.869 0 0 0-.278 1.235 3.08 3.08 0 0 0 .346 1.565 2.836 2.836 0 0 0 .876.955 4.586 4.586 0 0 0 1.167.568c.427.134.832.277 1.228.413l2.969.967a14.077 14.077 0 0 1 2.357.974 6.512 6.512 0 0 1 1.717 1.289 5.064 5.064 0 0 1 1.048 1.71 6.542 6.542 0 0 1 .361 2.251 5.841 5.841 0 0 1-.568 2.558 6.3 6.3 0 0 1-1.58 2.044 7.656 7.656 0 0 1-2.417 1.361 9.322 9.322 0 0 1-3.08.49 9.625 9.625 0 0 1-2.94-.392 6.394 6.394 0 0 1-2.051-1.047 5.411 5.411 0 0 1-1.331-1.487 8.06 8.06 0 0 1-.775-1.721h-1.12V453.7h3.7a5.524 5.524 0 0 0 .343 2.306 3.107 3.107 0 0 0 .966 1.122 4.317 4.317 0 0 0 1.466.682 7.482 7.482 0 0 0 1.884.225 6.378 6.378 0 0 0 1.8-.234 4 4 0 0 0 1.366-.685 2.982 2.982 0 0 0 .867-1.087 3.364 3.364 0 0 0 .3-1.445 2.914 2.914 0 0 0-.376-1.524 3.66 3.66 0 0 0-.962-1.064 5.6 5.6 0 0 0-1.288-.724q-.7-.279-1.344-.483l-3.217-.913a9.1 9.1 0 0 1-1.934-.825 5.625 5.625 0 0 1-1.5-1.219 4.951 4.951 0 0 1-.962-1.685 6.666 6.666 0 0 1-.341-2.229 5.838 5.838 0 0 1 .5-2.394 5.56 5.56 0 0 1 1.468-1.952 6.981 6.981 0 0 1 2.377-1.319 9.815 9.815 0 0 1 3.212-.479 8.272 8.272 0 0 1 2.2.281 7 7 0 0 1 1.82.785 6.345 6.345 0 0 1 1.441 1.217 7.267 7.267 0 0 1 1.051 1.568h1.1v2.53h-3.6a3.279 3.279 0 0 0-.461-1.934z" transform="translate(-229.894 -333.493) translate(229.894 437.689) translate(-229.894 -437.515)"/>
            <path d="M247.829 437.515h5.371v2.53h-.033v11.382h2.65l3.614-3.737h-.912v-2.53h5.776v2.53h-1.924l-4.63 4.776 5.056 5.4h1.837v2.53h-3.215l-6.235-6.807h-2.016v4.277h1.264v2.53h-6.509v-2.53h2.5v-17.821h-2.587z" transform="translate(-229.894 -333.493) translate(229.894 437.689) translate(-229.87 -437.515)"/>
            <path d="M265.812 445.147h5.774v2.53h-1.806l3.573 9.717 3.733-9.717h-1.793v-2.53h5.778v2.53H279.5l-6.776 17.1h2.088v2.528h-6.144v-2.528h1.852l1.617-4.193-5.089-12.908h-1.231z" transform="translate(-229.894 -333.493) translate(229.894 437.689) translate(-229.845 -437.502)"/>
            <path d="M288.494 445.155h3.574v2.222h-3.6l-.045 8.79a4.2 4.2 0 0 0 .209 1.458 1.3 1.3 0 0 0 .661.772 2.435 2.435 0 0 0 1.028.211 4.851 4.851 0 0 0 1.087-.109 4.906 4.906 0 0 0 1.026-.376l.636 1.839a7.53 7.53 0 0 1-1.488.583 7.2 7.2 0 0 1-1.833.209 5.65 5.65 0 0 1-1.744-.241 2.791 2.791 0 0 1-1.246-.818 3.7 3.7 0 0 1-.763-1.536 9.857 9.857 0 0 1-.244-2.4l.043-8.379h-2.423v-2.222h2.45v-3.646l2.676-1.265z" transform="translate(-229.894 -333.493) translate(229.894 437.689) translate(-229.822 -437.51)"/>
            <path d="M304.223 458.968a7.9 7.9 0 0 1-1.923 1.327 5.362 5.362 0 0 1-2.383.51 5.785 5.785 0 0 1-2.054-.349 5.093 5.093 0 0 1-1.607-.965 4.314 4.314 0 0 1-1.048-1.42 4.024 4.024 0 0 1-.379-1.718 4.914 4.914 0 0 1 .286-1.724 4.362 4.362 0 0 1 .765-1.3 4.459 4.459 0 0 1 1.12-.929 6.994 6.994 0 0 1 1.34-.6 8.16 8.16 0 0 1 1.425-.324 10.957 10.957 0 0 1 1.389-.1c.707 0 1.3.024 1.779.069a12.258 12.258 0 0 1 1.308.18l.016-1.248a3.919 3.919 0 0 0-.237-1.405 2.569 2.569 0 0 0-.661-.983 2.735 2.735 0 0 0-1.021-.582 4.3 4.3 0 0 0-1.33-.19 9.484 9.484 0 0 0-1.324.091 10.956 10.956 0 0 0-1.184.251 8.772 8.772 0 0 0-1.016.357 4.364 4.364 0 0 0-.783.42l-.9-1.9a10.514 10.514 0 0 1 1.186-.65 10.135 10.135 0 0 1 1.366-.514 11.782 11.782 0 0 1 1.45-.34 9 9 0 0 1 1.466-.124 8.189 8.189 0 0 1 2.382.318 4.574 4.574 0 0 1 1.794.977 4.388 4.388 0 0 1 1.132 1.685 6.784 6.784 0 0 1 .4 2.446l-.015 7.615h1.692v2.53h-4.426zm-3.7-.451a4.7 4.7 0 0 0 1.087-.135 5.444 5.444 0 0 0 1.926-.889 4.158 4.158 0 0 0 .69-.628l.015-3.438h-3.176a5.448 5.448 0 0 0-1.449.18 3.61 3.61 0 0 0-1.131.508 2.524 2.524 0 0 0-.743.837 2.452 2.452 0 0 0-.263 1.152 2.346 2.346 0 0 0 .221 1.05 1.979 1.979 0 0 0 .626.747 2.778 2.778 0 0 0 .961.456 4.487 4.487 0 0 0 1.233.16z" transform="translate(-229.894 -333.493) translate(229.894 437.689) translate(-229.806 -437.503)"/>
            <path d="M311.592 437.515h4.938v20.348h2.293v2.53h-7.231v-2.53h2.2v-17.818h-2.2z" transform="translate(-229.894 -333.493) translate(229.894 437.689) translate(-229.784 -437.515)"/>
            <path d="M324.073 453.117a6.893 6.893 0 0 0 .1 1.182 6.345 6.345 0 0 0 .267 1.025 4.255 4.255 0 0 0 1.746 2.212 5.016 5.016 0 0 0 2.709.741 8.089 8.089 0 0 0 2.317-.331 10.97 10.97 0 0 0 2.357-1.034l1.1 1.866a11.744 11.744 0 0 1-3.012 1.526 9.888 9.888 0 0 1-3.145.5 7.821 7.821 0 0 1-2.859-.51 6.114 6.114 0 0 1-2.262-1.532 7.15 7.15 0 0 1-1.485-2.529 10.519 10.519 0 0 1-.536-3.531 10.21 10.21 0 0 1 .454-3.076 7.367 7.367 0 0 1 1.36-2.529 6.509 6.509 0 0 1 2.241-1.712 7.208 7.208 0 0 1 3.117-.634 6.942 6.942 0 0 1 2.873.523 5.345 5.345 0 0 1 1.882 1.378 6.011 6.011 0 0 1 1.1 1.964 11.245 11.245 0 0 1 .525 2.252 11.117 11.117 0 0 1 .093 1.131c.015.382.027.753.027 1.117zm4.276-6.069a4.75 4.75 0 0 0-1.664.266 3.4 3.4 0 0 0-1.216.783 3.751 3.751 0 0 0-.8 1.24 7.541 7.541 0 0 0-.453 1.651h7.891a7.263 7.263 0 0 0-.266-1.576 3.421 3.421 0 0 0-.657-1.246 2.905 2.905 0 0 0-1.133-.824 4.28 4.28 0 0 0-1.703-.294z" transform="translate(-229.894 -333.493) translate(229.894 437.689) translate(-229.77 -437.503)"/>
            <path d="M361.751 443.984a7.259 7.259 0 0 0-2.6-2.632 7.049 7.049 0 0 0-3.626-.952 6.716 6.716 0 0 0-3.115.719 7.683 7.683 0 0 0-2.422 1.933 9.051 9.051 0 0 0-1.56 2.807 10.084 10.084 0 0 0-.56 3.36 10.3 10.3 0 0 0 .618 3.7 8.2 8.2 0 0 0 1.609 2.677 8.58 8.58 0 0 0 2.362 1.776 6.522 6.522 0 0 0 3.068.714 7.176 7.176 0 0 0 4.042-1.125 8.766 8.766 0 0 0 2.94-3.7l2.583 1.222a9.067 9.067 0 0 1-1.894 3.064 10.1 10.1 0 0 1-3.3 2.383 10.274 10.274 0 0 1-4.342.9 10.1 10.1 0 0 1-4.192-.854 10.716 10.716 0 0 1-5.68-6.218 13.2 13.2 0 0 1-.79-4.541 12.773 12.773 0 0 1 .79-4.5 11.147 11.147 0 0 1 2.2-3.681 10.345 10.345 0 0 1 3.382-2.475 10.056 10.056 0 0 1 4.254-.9 9.6 9.6 0 0 1 3.532.581 10.1 10.1 0 0 1 2.518 1.381 10.316 10.316 0 0 1 1.784 1.743h1.557v2.614z" transform="translate(-229.894 -333.493) translate(229.894 437.689) translate(-229.739 -437.515)"/>
            <path d="M376.409 458.968a7.934 7.934 0 0 1-1.922 1.327 5.375 5.375 0 0 1-2.384.51 5.773 5.773 0 0 1-2.054-.349 5.1 5.1 0 0 1-1.607-.965 4.41 4.41 0 0 1-1.051-1.42 4.022 4.022 0 0 1-.377-1.718 4.867 4.867 0 0 1 .288-1.724 4.341 4.341 0 0 1 .765-1.3 4.411 4.411 0 0 1 1.117-.928 6.866 6.866 0 0 1 1.338-.6 8.158 8.158 0 0 1 1.425-.324 10.938 10.938 0 0 1 1.391-.1c.7 0 1.3.024 1.776.069a12.207 12.207 0 0 1 1.309.18l.012-1.248a3.878 3.878 0 0 0-.234-1.405 2.567 2.567 0 0 0-.66-.983 2.678 2.678 0 0 0-1.022-.582 4.3 4.3 0 0 0-1.33-.19 9.516 9.516 0 0 0-1.324.091 11.144 11.144 0 0 0-1.183.251 8.792 8.792 0 0 0-1.017.357 4.423 4.423 0 0 0-.782.42l-.9-1.9a9.953 9.953 0 0 1 2.549-1.164 11.739 11.739 0 0 1 1.45-.34 8.986 8.986 0 0 1 1.465-.124 8.184 8.184 0 0 1 2.382.318 4.538 4.538 0 0 1 1.792.977 4.3 4.3 0 0 1 1.132 1.685 6.781 6.781 0 0 1 .4 2.446l-.018 7.615h1.692v2.53h-4.423zm-3.706-.451a4.674 4.674 0 0 0 1.089-.135 5.538 5.538 0 0 0 1.029-.362 5.325 5.325 0 0 0 .9-.528 4.086 4.086 0 0 0 .691-.628l.015-3.438h-3.179a5.463 5.463 0 0 0-1.446.18 3.616 3.616 0 0 0-1.132.508 2.5 2.5 0 0 0-.74.837 2.394 2.394 0 0 0-.266 1.152 2.359 2.359 0 0 0 .221 1.05 2.026 2.026 0 0 0 .623.747 2.846 2.846 0 0 0 .964.456 4.492 4.492 0 0 0 1.228.161z" transform="translate(-229.894 -333.493) translate(229.894 437.689) translate(-229.709 -437.503)"/>
            <path d="M383.291 445.148h4.853v1.267a8.474 8.474 0 0 1 2.118-1.191 6.766 6.766 0 0 1 5.113.117 6.241 6.241 0 0 1 2.157 1.575 7.258 7.258 0 0 1 1.4 2.43 9.449 9.449 0 0 1 .5 3.142 9.613 9.613 0 0 1-.559 3.351 7.69 7.69 0 0 1-1.549 2.59 7.121 7.121 0 0 1-2.359 1.691 7.437 7.437 0 0 1-3 .6 7.847 7.847 0 0 1-2.065-.242 10.57 10.57 0 0 1-1.725-.623v4.926h2.38v2.528h-7.232v-2.528h2.089v-17.1h-2.122zm8.618 2.041a5.055 5.055 0 0 0-2.039.432 5.128 5.128 0 0 0-1.694 1.175v8.25a4.349 4.349 0 0 0 1.388.9 5.682 5.682 0 0 0 2.256.4 4.588 4.588 0 0 0 1.806-.368 4.316 4.316 0 0 0 1.527-1.1 5.42 5.42 0 0 0 1.059-1.8 7.108 7.108 0 0 0 .4-2.486 6.434 6.434 0 0 0-.376-2.293 4.973 4.973 0 0 0-1.014-1.693 4.337 4.337 0 0 0-1.493-1.053 4.651 4.651 0 0 0-1.82-.364z" transform="translate(-229.894 -333.493) translate(229.894 437.689) translate(-229.687 -437.503)"/>
            <path d="M402.11 445.159h4.97v12.7h2.292v2.53h-7.229v-2.53h2.17v-10.17h-2.2zm1.692-5.394a1.85 1.85 0 0 1 .149-.728 2.066 2.066 0 0 1 .417-.6 1.939 1.939 0 0 1 .611-.413 1.818 1.818 0 0 1 .747-.151 1.711 1.711 0 0 1 .725.151 1.962 1.962 0 0 1 .606.413 2.058 2.058 0 0 1 .414.6 1.768 1.768 0 0 1 .152.728 1.84 1.84 0 0 1-.152.747 2.218 2.218 0 0 1-.414.626 1.862 1.862 0 0 1-.606.429 1.792 1.792 0 0 1-.725.152 1.9 1.9 0 0 1-.747-.152 1.841 1.841 0 0 1-.611-.429 2.226 2.226 0 0 1-.417-.626 1.925 1.925 0 0 1-.151-.747z" transform="translate(-229.894 -333.493) translate(229.894 437.689) translate(-229.661 -437.514)"/>
            <path d="M416.284 445.155h3.569v2.222h-3.6l-.043 8.79a4.153 4.153 0 0 0 .209 1.458 1.293 1.293 0 0 0 .658.772 2.449 2.449 0 0 0 1.029.211 4.879 4.879 0 0 0 1.085-.109 4.947 4.947 0 0 0 1.029-.376l.636 1.839a7.671 7.671 0 0 1-1.49.583 7.219 7.219 0 0 1-1.836.209 5.626 5.626 0 0 1-1.739-.241 2.786 2.786 0 0 1-1.248-.818 3.577 3.577 0 0 1-.758-1.536 9.528 9.528 0 0 1-.252-2.4l.042-8.379h-2.422v-2.222h2.455v-3.646l2.676-1.265z" transform="translate(-229.894 -333.493) translate(229.894 437.689) translate(-229.649 -437.51)"/>
            <path d="M432.011 458.968a8.012 8.012 0 0 1-1.922 1.327 5.379 5.379 0 0 1-2.385.51 5.768 5.768 0 0 1-2.053-.349 5.088 5.088 0 0 1-1.608-.965 4.33 4.33 0 0 1-1.048-1.42 3.95 3.95 0 0 1-.376-1.718 4.869 4.869 0 0 1 .284-1.724 4.36 4.36 0 0 1 .764-1.3 4.409 4.409 0 0 1 1.121-.928 6.894 6.894 0 0 1 1.338-.6 8.126 8.126 0 0 1 1.422-.324 10.97 10.97 0 0 1 1.389-.1c.707 0 1.3.024 1.779.069a12.081 12.081 0 0 1 1.308.18l.012-1.248a3.946 3.946 0 0 0-.231-1.405 2.535 2.535 0 0 0-.666-.983 2.636 2.636 0 0 0-1.019-.582 4.282 4.282 0 0 0-1.33-.19 9.581 9.581 0 0 0-1.324.091 11 11 0 0 0-1.181.251 8.841 8.841 0 0 0-1.016.357 4.331 4.331 0 0 0-.783.42l-.9-1.9a10.357 10.357 0 0 1 1.192-.65 10.019 10.019 0 0 1 1.357-.514 11.917 11.917 0 0 1 1.456-.34 8.961 8.961 0 0 1 1.466-.124 8.172 8.172 0 0 1 2.379.318 4.535 4.535 0 0 1 1.793.977 4.368 4.368 0 0 1 1.133 1.685 6.785 6.785 0 0 1 .4 2.446l-.012 7.615h1.686v2.53h-4.42zm-3.706-.451a4.687 4.687 0 0 0 1.089-.135 5.617 5.617 0 0 0 1.029-.362 5.485 5.485 0 0 0 .891-.528 4.056 4.056 0 0 0 .7-.628l.012-3.438h-3.174a5.419 5.419 0 0 0-1.448.18 3.6 3.6 0 0 0-1.135.508 2.482 2.482 0 0 0-.74.837 2.428 2.428 0 0 0-.263 1.152 2.387 2.387 0 0 0 .216 1.05 2.019 2.019 0 0 0 .631.747 2.752 2.752 0 0 0 .961.456 4.482 4.482 0 0 0 1.226.161z" transform="translate(-229.894 -333.493) translate(229.894 437.689) translate(-229.634 -437.503)"/>
            <path d="M439.381 437.515h4.936v20.348h2.294v2.53h-7.23v-2.53h2.2v-17.818h-2.2z" transform="translate(-229.894 -333.493) translate(229.894 437.689) translate(-229.611 -437.515)"/>
        </g>
    </g>
</svg>
