<svg xmlns="http://www.w3.org/2000/svg" width="330" height="188.156" viewBox="0 0 330 188.156">
    <defs>
        <style>
            .cls-2,.cls-4,.cls-5{fill:none}.cls-2{stroke:#c7dafa}.cls-2,.cls-4,.cls-5{stroke-miterlimit:10}.cls-3,.cls-5{opacity:.25}.cls-4,.cls-5{stroke:#246fed}
        </style>
    </defs>
    <g id="solution_img03" transform="translate(-1185 -1405.422)">
        <path id="Base" fill="none" d="M0 0H330V187H0z" transform="translate(1185 1406)"/>
        <g id="그룹_6202" transform="translate(-356.226 1338.537)">
            <path id="선_136" d="M0.161 0L0 20.818" class="cls-2" transform="translate(1724.117 78.079)"/>
            <path id="선_137" d="M18.051 0L0 10.555" class="cls-2" transform="translate(1705.969 98.853)"/>
            <path id="선_138" d="M0 0L0 20.922" class="cls-2" transform="translate(1706.479 212.62)"/>
            <g id="그룹_6179" transform="translate(1750.668 123.851)">
                <g id="그룹_6178" class="cls-3" transform="translate(0 .103)">
                    <path id="선_139" d="M0 0L0 20.817" class="cls-4" transform="translate(18.309)"/>
                    <path id="패스_8292" d="M1988.667 279.611l-17.958-10.511-18.309 10.51" class="cls-4" transform="translate(-1952.4 -248.28)"/>
                </g>
                <path id="패스_8293" d="M1988.667 225.045l-17.958-10.512-18.309 10.513v20.817l18.309 10.512 17.958-10.512v-20.817z" class="cls-4" transform="translate(-1952.4 -214.533)"/>
                <path id="선_140" d="M0 20.817L0 0" class="cls-4" transform="translate(18.309 21.025)"/>
                <path id="패스_8294" d="M1988.667 241.95l-17.958 10.513-18.309-10.512" class="cls-5" transform="translate(-1952.4 -231.438)"/>
            </g>
            <g id="그룹_6181" transform="translate(1625.61 104.207)">
                <g id="그룹_6180" class="cls-3" transform="translate(0 .103)">
                    <path id="선_141" d="M0 0L0 20.817" class="cls-4" transform="translate(18.309)"/>
                    <path id="패스_8295" d="M1662.494 228.374l-17.958-10.513-18.309 10.512" class="cls-4" transform="translate(-1626.227 -197.043)"/>
                </g>
                <path id="패스_8296" d="M1662.494 173.808l-17.958-10.508-18.309 10.513v20.817l18.309 10.512 17.958-10.512v-20.821z" class="cls-4" transform="translate(-1626.227 -163.296)"/>
                <path id="선_142" d="M0 20.817L0 0" class="cls-4" transform="translate(18.309 21.025)"/>
                <path id="패스_8297" d="M1662.494 190.713l-17.958 10.513-18.309-10.512" class="cls-4" transform="translate(-1626.227 -180.201)"/>
            </g>
            <g id="그룹_6183" transform="translate(1643.535 93.537)">
                <g id="그룹_6182" class="cls-3" transform="translate(0 .103)">
                    <path id="선_143" d="M0 0L0 20.817" class="cls-4" transform="translate(18.309)"/>
                    <path id="패스_8298" d="M1709.246 200.546l-17.958-10.513-18.309 10.512" class="cls-4" transform="translate(-1672.979 -169.216)"/>
                </g>
                <path id="패스_8299" d="M1691.287 177.311l17.958-10.512v-20.817l-17.958-10.512-18.309 10.513" class="cls-4" transform="translate(-1672.978 -135.468)"/>
                <path id="선_144" d="M0 20.817L0 0" class="cls-4" transform="translate(18.309 21.025)"/>
                <path id="패스_8301" d="M1709.246 162.886l-17.959 10.514-18.309-10.512" class="cls-4" transform="translate(-1672.978 -152.374)"/>
            </g>
            <g id="그룹_6185" transform="translate(1732.36 186.236)">
                <g id="그룹_6184" class="cls-3" transform="translate(0 .103)">
                    <path id="선_145" d="M0 0L0 20.817" class="cls-4" transform="translate(18.309)"/>
                    <path id="패스_8302" d="M1940.915 442.319l-17.958-10.513-18.309 10.512" class="cls-4" transform="translate(-1904.648 -410.989)"/>
                </g>
                <path id="패스_8303" d="M1940.915 387.754l-17.958-10.512-18.309 10.513v20.817l18.309 10.512 17.958-10.512v-20.817z" class="cls-4" transform="translate(-1904.648 -377.242)"/>
                <path id="선_146" d="M0 20.817L0 0" class="cls-4" transform="translate(18.309 21.025)"/>
                <path id="패스_8304" d="M1940.915 404.659l-17.958 10.513-18.309-10.512" class="cls-4" transform="translate(-1904.648 -394.147)"/>
            </g>
            <g id="그룹_6187" transform="translate(1750.493 175.827)">
                <g id="그룹_6186" class="cls-3" transform="translate(0 .103)">
                    <path id="선_147" d="M0 0L0 20.817" class="cls-4" transform="translate(18.309)"/>
                    <path id="패스_8305" d="M1988.211 415.171l-17.958-10.513-18.309 10.512" class="cls-4" transform="translate(-1951.943 -383.84)"/>
                </g>
                <path id="패스_8307" d="M1970.252 391.935l17.958-10.512v-20.817l-17.958-10.512-18.309 10.513" class="cls-4" transform="translate(-1951.943 -350.093)"/>
                <path id="선_148" d="M0 20.817L0 0" class="cls-4" transform="translate(18.309 21.025)"/>
                <path id="패스_8308" d="M1988.211 377.51l-17.958 10.513-18.309-10.512" class="cls-4" transform="translate(-1951.943 -366.998)"/>
            </g>
            <g id="그룹_6189" transform="translate(1687.85 67.463)">
                <g id="그룹_6188" class="cls-3" transform="translate(0 .103)">
                    <path id="선_149" d="M0 0L0 20.817" class="cls-4" transform="translate(18.309)"/>
                    <path id="패스_8309" d="M1824.827 132.541l-17.958-10.513-18.309 10.512" class="cls-4" transform="translate(-1788.56 -101.211)"/>
                </g>
                <path id="패스_8310" d="M1824.827 77.976l-17.958-10.512-18.309 10.512v20.817l18.309 10.512" class="cls-4" transform="translate(-1788.56 -67.463)"/>
                <path id="선_150" d="M0 20.817L0 0" class="cls-4" transform="translate(18.309 21.025)"/>
                <path id="패스_8312" d="M1824.827 94.88l-17.958 10.513-18.309-10.512" class="cls-4" transform="translate(-1788.56 -84.368)"/>
            </g>
            <g id="그룹_6191" transform="translate(1705.969 77.976)">
                <g id="그룹_6190" class="cls-3" transform="translate(0 .103)">
                    <path id="선_151" d="M0 0L0 20.817" class="cls-4" transform="translate(18.309)"/>
                    <path id="선_152" d="M17.959 10.513L0 0" class="cls-4" transform="translate(18.309 20.817)"/>
                </g>
                <path id="패스_8314" d="M1872.085 105.394l-17.958-10.512-18.309 10.513v20.817l18.309 10.512 17.958-10.512v-20.817z" class="cls-4" transform="translate(-1835.818 -94.882)"/>
                <path id="선_153" d="M0 20.817L0 0" class="cls-4" transform="translate(18.309 21.025)"/>
                <path id="패스_8315" d="M1872.085 122.3l-17.958 10.513-18.309-10.513" class="cls-4" transform="translate(-1835.818 -111.787)"/>
            </g>
            <g id="그룹_6193" transform="translate(1750.668 103.034)">
                <path id="선_154" d="M17.958 10.512L0 0" class="cls-2" transform="translate(18.309 20.818)"/>
                <path id="선_155" d="M18.309 0L0 10.513" class="cls-2" transform="translate(0 20.818)"/>
                <g id="그룹_6192" class="cls-3" transform="translate(0 .103)">
                    <path id="선_156" d="M0 0L0 20.817" class="cls-4" transform="translate(18.309)"/>
                </g>
                <path id="패스_8319" d="M1988.667 170.749l-17.958-10.512-18.309 10.513v20.817l18.309 10.512 17.958-10.512V170.75z" class="cls-4" transform="translate(-1952.4 -160.237)"/>
                <path id="선_157" d="M0 20.817L0 0" class="cls-4" transform="translate(18.309 21.025)"/>
                <path id="패스_8320" d="M1988.667 187.654l-17.958 10.513-18.309-10.512" class="cls-4" transform="translate(-1952.4 -177.142)"/>
            </g>
            <path id="선_158" d="M17.959 0L0 10.513" class="cls-4" transform="translate(1768.977 113.546)"/>
            <path id="선_159" d="M18.309 10.512L0 0" class="cls-4" transform="translate(1750.668 113.547)"/>
            <g id="그룹_6195" transform="translate(1625.226 177.297)">
                <g id="그룹_6194" class="cls-3" transform="translate(0 .103)">
                    <path id="선_160" d="M0 0L0 20.817" class="cls-4" transform="translate(18.309)"/>
                    <path id="패스_8321" d="M1661.494 419.006l-17.958-10.513-18.31 10.507" class="cls-4" transform="translate(-1625.226 -387.675)"/>
                </g>
                <path id="패스_8322" d="M1661.494 364.44l-17.958-10.512-18.309 10.513v20.817l18.309 10.512 17.958-10.512v-20.817z" class="cls-4" transform="translate(-1625.226 -353.928)"/>
                <path id="선_161" d="M0 20.817L0 0" class="cls-4" transform="translate(18.309 21.025)"/>
                <path id="패스_8323" d="M1661.494 381.345l-17.958 10.513-18.309-10.512" class="cls-5" transform="translate(-1625.226 -370.833)"/>
            </g>
            <g id="그룹_6197" transform="translate(1625.226 156.479)">
                <path id="선_162" d="M18.309 0L0 10.513" class="cls-2" transform="translate(0 20.818)"/>
                <path id="선_163" d="M17.958 10.512L0 0" class="cls-2" transform="translate(18.309 20.818)"/>
                <g id="그룹_6196" class="cls-3" transform="translate(0 .103)">
                    <path id="선_164" d="M0 0L0 20.817" class="cls-4" transform="translate(18.309)"/>
                </g>
                <path id="패스_8327" d="M1661.494 310.144l-17.958-10.512-18.309 10.513v20.817l18.309 10.512 17.958-10.512v-20.817z" class="cls-4" transform="translate(-1625.226 -299.632)"/>
                <path id="선_165" d="M0 20.817L0 0" class="cls-4" transform="translate(18.309 21.025)"/>
                <path id="패스_8328" d="M1661.494 327.049l-17.958 10.513-18.309-10.512" class="cls-4" transform="translate(-1625.226 -316.537)"/>
            </g>
            <path id="선_166" d="M17.959 0L0 10.513" class="cls-4" transform="translate(1643.535 166.991)"/>
            <path id="선_167" d="M18.309 10.512L0 0" class="cls-4" transform="translate(1625.226 166.993)"/>
            <path id="선_168" d="M0 20.922L0 0" class="cls-4" transform="translate(1724.278 98.896)"/>
            <path id="선_169" d="M18.05 0L0 10.461" class="cls-4" transform="translate(1724.187 88.488)"/>
            <g id="그룹_6199" transform="translate(1670.212 202.108)">
                <g id="그룹_6198" class="cls-3" transform="translate(0 .103)">
                    <path id="선_170" d="M0 0L0 20.817" class="cls-4" transform="translate(18.309)"/>
                    <path id="패스_8329" d="M1778.823 483.717l-17.958-10.517-18.309 10.512" class="cls-4" transform="translate(-1742.556 -452.387)"/>
                </g>
                <path id="패스_8331" d="M1778.823 429.153l-17.958-10.512-18.309 10.513v20.816l18.309 10.512" class="cls-4" transform="translate(-1742.556 -418.639)"/>
                <path id="선_171" d="M0 20.817L0 0" class="cls-4" transform="translate(18.309 21.025)"/>
                <path id="패스_8332" d="M1778.823 446.057l-17.958 10.513-18.309-10.512" class="cls-4" transform="translate(-1742.556 -435.545)"/>
            </g>
            <g id="그룹_6201" transform="translate(1688.331 212.621)">
                <g id="그룹_6200" class="cls-3" transform="translate(0 .104)">
                    <path id="패스_8335" d="M1826.081 511.136l-17.958-10.513-18.309 10.512" class="cls-4" transform="translate(-1789.814 -479.805)"/>
                </g>
                <path id="패스_8336" d="M1826.081 456.57l-17.958-10.512-18.309 10.513v20.817l18.309 10.512 17.958-10.512v-20.817z" class="cls-4" transform="translate(-1789.814 -446.058)"/>
                <path id="선_172" d="M0 20.817L0 0" class="cls-4" transform="translate(18.309 21.025)"/>
                <path id="패스_8337" d="M1826.081 473.475l-17.958 10.513-18.309-10.512" class="cls-4" transform="translate(-1789.814 -462.963)"/>
            </g>
            <path id="선_173" d="M0 20.922L0 0" class="cls-4" transform="translate(1706.64 233.541)"/>
            <path id="선_174" d="M18.05 0L0 10.461" class="cls-4" transform="translate(1706.549 223.133)"/>
        </g>
    </g>
</svg>
