<svg xmlns="http://www.w3.org/2000/svg" width="320" height="140" viewBox="0 0 320 140">
    <defs>
        <style>
            .cls-2{fill:#141011}
        </style>
    </defs>
    <g id="talken" transform="translate(-1240 -3194)">
        <path id="Base" fill="none" d="M0 0H320V140H0z" transform="translate(1240 3194)"/>
        <g id="talken-2" transform="translate(1296.412 3230.315)">
            <path id="패스_8414" d="M198.8 93.905v11.2c0 7.06-3.226 9.741-10.522 9.741h-6.928c-8.283 0-13.341-2.206-13.341-10.182 0-8.01 5.092-10.216 13.341-10.216h8.012v-.543c0-3.734-2.175-5.363-7.13-5.363a39.384 39.384 0 0 0-7.977 1.053c-2.138.407-3.428-.577-3.428-2.749v-1.257c0-1.866 1.051-3.088 3.258-3.53a44.965 44.965 0 0 1 9.5-1.255c9.201-.004 15.215 3.971 15.215 13.101zm-9.436 10.727V101.2h-7.535c-4.108 0-4.958.95-4.958 3.462 0 2.477.849 3.427 4.922 3.427h4.175c2.917.003 3.393-1.183 3.393-3.457z" class="cls-2" transform="translate(-130.28 -62.63)"/>
            <path id="패스_8415" d="M637.863 101.237L623.3 102.73c1.223 3.8 4 5.159 8.516 5.159a32.417 32.417 0 0 0 7.772-.879c2.205-.51 3.531.441 3.531 2.647v1.019a3.27 3.27 0 0 1-2.648 3.5 37.529 37.529 0 0 1-10.06 1.285c-10.283 0-16.915-5.6-16.915-17.276 0-11.03 5.578-17.376 16.982-17.376 9.574 0 14.983 4.547 14.983 13.032-.005 4.747-1.49 6.751-7.598 7.396zm-1.331-8.282c0-3.224-1.713-4.956-6.057-4.956-4.717 0-7.177 2.138-7.685 7.875l11.4-1.187c1.967-.204 2.341-.579 2.341-1.732z" class="cls-2" transform="translate(-492.062 -62.63)"/>
            <path id="패스_8416" d="M368.454 18.712h-3.808a2.933 2.933 0 0 0-2.933 2.932v39.844a2.934 2.934 0 0 0 2.933 2.933h3.808a2.932 2.932 0 0 0 2.932-2.933V21.644a2.932 2.932 0 0 0-2.932-2.932z" class="cls-2" transform="translate(-287.588 -12.204)"/>
            <path id="패스_8417" d="M474.473 60.834l-.177-.2-12.545-14.06L474.1 34.5l.084-.085c1.373-1.46.812-2.93-1.256-3.282a5.662 5.662 0 0 0-.957-.078h-3.421a5.543 5.543 0 0 0-3.819 1.456l-.025.032-12.382 12.115V21.644a2.932 2.932 0 0 0-2.932-2.932h-3.808a2.933 2.933 0 0 0-2.933 2.932v39.844a2.934 2.934 0 0 0 2.933 2.933h3.808a2.932 2.932 0 0 0 2.932-2.933V48.777l12.429 13.929.081.092a5.467 5.467 0 0 0 4.206 1.617l-.176.006h3.345l-.26-.006a5.545 5.545 0 0 0 1.247-.083c2.072-.389 2.642-1.955 1.277-3.498z" class="cls-2" transform="translate(-353.32 -12.204)"/>
            <path id="패스_8418" d="M42.5 18.712H10.52a2.932 2.932 0 0 0-2.932 2.932v2.722A2.932 2.932 0 0 0 10.52 27.3h11.155v34.188a2.934 2.934 0 0 0 2.933 2.933h3.808a2.933 2.933 0 0 0 2.932-2.933V27.3H42.5a2.932 2.932 0 0 0 2.932-2.932v-2.724a2.932 2.932 0 0 0-2.932-2.932z" class="cls-2" transform="translate(0 -12.204)"/>
            <path id="패스_8419" d="M837.7 96.08a24.917 24.917 0 0 0-.808-6.343 11.309 11.309 0 0 0-8.569-8.215 36.621 36.621 0 0 0-14.41 0 11.346 11.346 0 0 0-8.576 8.188 24.66 24.66 0 0 0-.816 6.373v15.9a2.933 2.933 0 0 0 2.933 2.932h3.808a2.932 2.932 0 0 0 2.932-2.932V96.08a13.4 13.4 0 0 1 .6-3.989l.023-.079a3.935 3.935 0 0 1 2.451-2.539l.082-.028a11.582 11.582 0 0 1 7.534.007l.055.02A3.936 3.936 0 0 1 827.394 92l.027.095a13.383 13.383 0 0 1 .6 3.989v15.9a2.932 2.932 0 0 0 2.933 2.932h3.808a2.931 2.931 0 0 0 2.931-2.932V96.08z" class="cls-2" transform="translate(-647.196 -62.63)"/>
            <g id="그룹_6292" transform="translate(48.134 58.459)">
                <path id="패스_8420" d="M224.632 296.046h-1.247v-.631h3.184v.631h-1.248v4.067h-.689z" class="cls-2" transform="translate(-223.385 -295.376)"/>
                <path id="패스_8421" d="M283.29 299.062h-1.726l-.349 1.051h-.73l1.654-4.7h.577l1.654 4.7h-.727zm-.2-.631l-.659-2.055h-.012l-.659 2.055z" class="cls-2" transform="translate(-269.757 -295.376)"/>
                <path id="패스_8422" d="M346.569 295.415h.689v4.028h2.218v.67h-2.907z" class="cls-2" transform="translate(-323.424 -295.376)"/>
                <path id="패스_8423" d="M408.246 295.415h.689v2.42h.014l1.873-2.42h.818l-1.458 1.853 1.611 2.845h-.818l-1.24-2.3-.8.867v1.43h-.689z" class="cls-2" transform="translate(-373.513 -295.376)"/>
                <path id="패스_8424" d="M472.307 316.853h.65v.67l-.65.49z" class="cls-2" transform="translate(-425.538 -312.786)"/>
                <path id="패스_8425" d="M521.8 296.046h-1.247v-.631h3.184v.631h-1.248v4.067h-.689z" class="cls-2" transform="translate(-464.721 -295.376)"/>
                <path id="패스_8426" d="M581.324 297.6a8.135 8.135 0 0 1 .047-1.1 1.325 1.325 0 0 1 .153-.449 1.6 1.6 0 0 1 .53-.578 1.532 1.532 0 0 1 .9-.263 1.562 1.562 0 0 1 1.422.844 1.106 1.106 0 0 1 .159.448 14.784 14.784 0 0 1 0 2.185 1.112 1.112 0 0 1-.159.454 1.515 1.515 0 0 1-.518.574 1.59 1.59 0 0 1-.9.271 1.635 1.635 0 0 1-1.426-.844q-.05-.106-.091-.2a1.365 1.365 0 0 1-.062-.251 8.117 8.117 0 0 1-.055-1.091zm.689 0a5.689 5.689 0 0 0 .05.939.8.8 0 0 0 .178.4.813.813 0 0 0 .287.236.791.791 0 0 0 .419.107.83.83 0 0 0 .428-.107.768.768 0 0 0 .275-.236.837.837 0 0 0 .185-.4 6.057 6.057 0 0 0 .047-.939 6.2 6.2 0 0 0-.047-.946.986.986 0 0 0-.46-.633.982.982 0 0 0-.428-.1.934.934 0 0 0-.419.1.875.875 0 0 0-.287.242.79.79 0 0 0-.178.391 5.825 5.825 0 0 0-.05.946z" class="cls-2" transform="translate(-514.072 -295.209)"/>
                <path id="패스_8427" d="M645.711 295.415h.689v2.42h.014l1.873-2.42h.818l-1.458 1.853 1.611 2.845h-.818l-1.24-2.3-.8.867v1.43h-.689z" class="cls-2" transform="translate(-566.361 -295.376)"/>
                <path id="패스_8428" d="M709.978 295.415h2.907v.67h-2.218v1.344h1.893v.631h-1.893v1.383h2.218v.67h-2.907z" class="cls-2" transform="translate(-618.553 -295.376)"/>
                <path id="패스_8429" d="M771.655 295.415h.65l2.061 3.339h.012v-3.339h.689v4.7h-.652l-2.058-3.34h-.013v3.34h-.689z" class="cls-2" transform="translate(-668.642 -295.376)"/>
            </g>
            <path id="패스_8430" d="M973.511 9.886a6.2 6.2 0 1 1-6.2-6.2 6.2 6.2 0 0 1 6.2 6.2z" class="cls-2" transform="translate(-774.367)"/>
        </g>
    </g>
</svg>
